<svg width="497" height="272" viewBox="0 0 497 272" fill="none" xmlns="http://www.w3.org/2000/svg">
<path d="M216.09 131.09L213.09 118.69L210.09 131.09H204.69L199.03 111.3H204.75L207.75 124.5L211.13 111.3H215.04L218.43 124.5L221.43 111.3H227.19L221.52 131.09H216.09Z" fill="white"/>
<path d="M228.75 131.09V111.3H233.86V131.09H228.75Z" fill="white"/>
<path d="M241.83 131.09V115.75H236.29V111.3H252.43V115.75H246.92V131.09H241.83Z" fill="white"/>
<path d="M268.2 131.09V123.09H259.98V131.09H254.88V111.3H259.98V118.69H268.2V111.3H273.3V131.09H268.2Z" fill="white"/>
<path d="M283.43 121.21C283.43 115.1 288.06 110.98 294.14 110.98C295.939 110.907 297.72 111.37 299.256 112.31C300.793 113.25 302.015 114.625 302.77 116.26L298.38 118.36C298.023 117.525 297.433 116.81 296.682 116.299C295.93 115.789 295.048 115.504 294.14 115.48C292.663 115.542 291.267 116.172 290.244 117.239C289.221 118.306 288.649 119.727 288.649 121.205C288.649 122.683 289.221 124.104 290.244 125.171C291.267 126.238 292.663 126.868 294.14 126.93C295.047 126.908 295.929 126.626 296.681 126.117C297.432 125.608 298.022 124.894 298.38 124.06L302.77 126.13C302.007 127.761 300.783 129.133 299.25 130.077C297.716 131.02 295.94 131.494 294.14 131.44C288.07 131.44 283.43 127.29 283.43 121.21Z" fill="white"/>
<path d="M318.17 131.09L317.17 128.24H309.43L308.43 131.09H302.63L310.08 111.3H316.51L323.96 131.09H318.17ZM313.31 116.34L310.79 123.79H315.79L313.31 116.34Z" fill="white"/>
<path d="M336.43 131.09L333.11 124.44H330.5V131.09H325.43V111.3H335.34C339.73 111.3 342.22 114.21 342.22 117.89C342.282 119.171 341.931 120.438 341.221 121.505C340.51 122.572 339.476 123.384 338.27 123.82L342.27 131.09H336.43ZM337 117.86C336.993 117.554 336.921 117.252 336.79 116.975C336.658 116.698 336.47 116.452 336.237 116.253C336.003 116.054 335.731 115.906 335.437 115.82C335.143 115.733 334.834 115.709 334.53 115.75H330.53V119.99H334.53C334.832 120.032 335.14 120.011 335.433 119.927C335.726 119.842 335.999 119.698 336.232 119.502C336.466 119.305 336.656 119.063 336.79 118.788C336.924 118.514 336.999 118.215 337.01 117.91L337 117.86Z" fill="white"/>
<path d="M345.01 131.09V111.3H359.52V115.75H350.11V118.84H359.31V123.29H350.11V126.64H359.52V131.09H345.01Z" fill="white"/>
<path d="M227.84 98.08V81.58H210.78V98.08H200.18V57H210.78V72.34H227.84V57H238.43V98.08H227.84Z" fill="white"/>
<path d="M273.73 98.08L271.73 92.17H255.49L253.49 98.08H241.43L256.89 57H270.26L285.72 98.08H273.73ZM263.63 67.47L258.43 82.91H268.84L263.63 67.47Z" fill="white"/>
<path d="M316.72 98.08L299.35 74.31V98.08H288.76V57H299.66L316.29 79.6V57H326.95V98.08H316.72Z" fill="white"/>
<path d="M334.34 98.08V57H351.58C364.52 57 373.82 64.76 373.82 77.51C373.82 90.26 364.52 98.08 351.64 98.08H334.34ZM362.98 77.51C362.98 71.16 359.16 66.24 351.64 66.24H344.93V88.84H351.58C358.79 88.84 362.98 83.61 362.98 77.51Z" fill="white"/>
<path d="M378.93 98.08V57H389.53V88.84H406.03V98.08H378.93Z" fill="white"/>
<path d="M411.43 98.08V57H441.55V66.24H422.05V72.64H441.14V81.91H422.05V88.91H441.57V98.15L411.43 98.08Z" fill="white"/>
<path d="M199 168.32C199 164.17 202.24 161.12 206.84 161.12C211.44 161.12 214.67 164.12 214.67 168.32C214.67 172.52 211.41 175.53 206.84 175.53C202.27 175.53 199 172.48 199 168.32ZM211.92 168.32C211.936 167.312 211.651 166.322 211.103 165.476C210.555 164.63 209.767 163.967 208.84 163.57C207.913 163.173 206.89 163.061 205.899 163.248C204.908 163.435 203.996 163.912 203.277 164.62C202.559 165.327 202.067 166.232 201.864 167.219C201.662 168.207 201.757 169.232 202.14 170.165C202.522 171.098 203.173 171.896 204.01 172.458C204.847 173.02 205.832 173.32 206.84 173.32C207.51 173.355 208.179 173.251 208.806 173.013C209.433 172.775 210.003 172.409 210.481 171.939C210.959 171.469 211.334 170.904 211.582 170.281C211.829 169.658 211.945 168.99 211.92 168.32Z" fill="white"/>
<path d="M224.67 175.28V173.91C223.629 174.937 222.222 175.509 220.76 175.5C218.37 175.5 217.18 174.35 217.18 172.3V165.16H219.59V171.49C219.59 173.06 220.46 173.56 221.84 173.56C222.378 173.553 222.909 173.432 223.397 173.204C223.885 172.977 224.319 172.648 224.67 172.24V165.16H227.08V175.25L224.67 175.28Z" fill="white"/>
<path d="M230.2 175.28V165.19H232.62V166.65C233.071 166.133 233.623 165.715 234.242 165.421C234.862 165.127 235.535 164.963 236.22 164.94V167.11C235.979 167.066 235.735 167.046 235.49 167.05C234.943 167.063 234.405 167.19 233.91 167.425C233.416 167.659 232.976 167.995 232.62 168.41V175.28H230.2Z" fill="white"/>
<path d="M243.16 173.91L244.26 172.34C245.313 173.222 246.637 173.717 248.01 173.74C249.46 173.74 250.22 173.2 250.22 172.41C250.22 170.41 243.51 171.84 243.51 167.96C243.51 166.31 245.07 164.91 247.87 164.91C249.422 164.864 250.943 165.359 252.17 166.31L251.17 167.85C250.264 167.048 249.09 166.616 247.88 166.64C246.62 166.64 245.88 167.19 245.88 167.9C245.88 169.67 252.59 168.33 252.59 172.34C252.59 174.14 250.96 175.5 247.97 175.5C246.226 175.58 244.513 175.014 243.16 173.91Z" fill="white"/>
<path d="M255.43 172.91V167.08H253.6V165.18H255.43V162.42H257.85V165.18H260.1V167.08H257.85V172.36C257.85 173.05 258.21 173.58 258.9 173.58C259.288 173.589 259.666 173.453 259.96 173.2L260.53 174.87C259.88 175.345 259.083 175.575 258.28 175.52C256.43 175.53 255.43 174.61 255.43 172.91Z" fill="white"/>
<path d="M269.08 175.28V174.17C268.601 174.629 268.035 174.986 267.414 175.219C266.794 175.453 266.132 175.559 265.47 175.53C263.68 175.53 261.63 174.4 261.63 172.19C261.63 169.98 263.63 168.89 265.47 168.89C266.127 168.852 266.786 168.947 267.406 169.169C268.026 169.39 268.595 169.734 269.08 170.18V168.68C269.08 167.51 268 166.8 266.48 166.8C265.26 166.786 264.083 167.249 263.2 168.09L262.2 166.57C263.501 165.467 265.165 164.886 266.87 164.94C269.35 164.94 271.51 165.88 271.51 168.57V175.28H269.08ZM269.08 172.98V171.43C268.733 171.09 268.319 170.825 267.865 170.653C267.411 170.481 266.925 170.405 266.44 170.43C265.08 170.43 264.05 171.16 264.05 172.25C264.05 173.34 265.05 174.07 266.44 174.07C266.932 174.085 267.422 173.996 267.877 173.808C268.332 173.62 268.742 173.338 269.08 172.98Z" fill="white"/>
<path d="M275.21 175.28V167.09H273.37V165.19H275.21V164.63C275.174 164.162 275.24 163.691 275.403 163.251C275.566 162.81 275.823 162.41 276.156 162.079C276.488 161.747 276.889 161.491 277.33 161.329C277.771 161.167 278.242 161.103 278.71 161.14C279.675 161.08 280.627 161.392 281.37 162.01L280.43 163.37C280.074 163.075 279.623 162.918 279.16 162.93C278.16 162.93 277.63 163.5 277.63 164.63V165.19H279.88V167.09H277.63V175.28H275.21ZM282.31 175.28V167.09H280.43V165.19H282.27V164.63C282.234 164.162 282.3 163.691 282.463 163.251C282.626 162.81 282.883 162.41 283.216 162.079C283.548 161.747 283.949 161.491 284.39 161.329C284.831 161.167 285.302 161.103 285.77 161.14C286.735 161.078 287.688 161.39 288.43 162.01L287.49 163.37C287.134 163.075 286.683 162.918 286.22 162.93C285.22 162.93 284.69 163.5 284.69 164.63V165.19H286.94V167.09H284.73V175.28H282.31Z" fill="white"/>
<path d="M302.23 175.28V168.91C302.23 167.32 301.36 166.86 300 166.86C299.457 166.869 298.923 166.994 298.431 167.224C297.94 167.455 297.503 167.788 297.15 168.2V175.26H294.74V161.35H297.15V166.55C297.662 166.035 298.271 165.627 298.942 165.35C299.614 165.074 300.334 164.934 301.06 164.94C303.45 164.94 304.65 166.07 304.65 168.13V175.28H302.23Z" fill="white"/>
<path d="M314.57 175.28V174.17C314.091 174.629 313.525 174.986 312.904 175.22C312.284 175.453 311.622 175.559 310.96 175.53C309.17 175.53 307.12 174.4 307.12 172.19C307.12 169.98 309.12 168.89 310.96 168.89C311.617 168.853 312.276 168.948 312.896 169.169C313.516 169.391 314.085 169.735 314.57 170.18V168.68C314.57 167.51 313.49 166.8 311.97 166.8C310.75 166.786 309.573 167.249 308.69 168.09L307.69 166.57C308.986 165.466 310.648 164.884 312.35 164.94C314.83 164.94 316.99 165.88 316.99 168.57V175.28H314.57ZM314.57 172.98V171.43C314.224 171.089 313.81 170.824 313.356 170.651C312.901 170.479 312.415 170.404 311.93 170.43C310.57 170.43 309.54 171.16 309.54 172.25C309.54 173.34 310.54 174.07 311.93 174.07C312.422 174.087 312.912 173.998 313.368 173.81C313.823 173.622 314.233 173.339 314.57 172.98Z" fill="white"/>
<path d="M327.62 175.28V168.97C327.62 167.38 326.72 166.88 325.37 166.88C324.828 166.892 324.294 167.018 323.803 167.249C323.313 167.48 322.875 167.81 322.52 168.22V175.28H320.11V165.19H322.52V166.55C323.03 166.031 323.639 165.618 324.31 165.337C324.981 165.055 325.702 164.91 326.43 164.91C328.82 164.91 330.01 166.08 330.01 168.15V175.25L327.62 175.28Z" fill="white"/>
<path d="M340.97 175.28V173.91C340.531 174.425 339.985 174.838 339.37 175.119C338.755 175.401 338.086 175.544 337.41 175.54C334.58 175.54 332.49 173.54 332.49 170.23C332.49 166.92 334.56 164.91 337.43 164.91C338.11 164.896 338.784 165.037 339.401 165.323C340.018 165.609 340.562 166.032 340.99 166.56V161.32H343.43V175.25L340.97 175.28ZM340.97 172.23V168.23C340.624 167.808 340.189 167.468 339.696 167.233C339.204 166.998 338.666 166.874 338.12 166.87C337.262 166.917 336.454 167.291 335.863 167.915C335.273 168.539 334.943 169.366 334.943 170.225C334.943 171.085 335.273 171.911 335.863 172.535C336.454 173.16 337.262 173.533 338.12 173.58C338.665 173.578 339.203 173.456 339.695 173.222C340.188 172.989 340.623 172.65 340.97 172.23Z" fill="white"/>
<path d="M346.51 175.28V161.35H348.92V175.28H346.51Z" fill="white"/>
<path d="M351.43 170.22C351.438 169.499 351.592 168.787 351.883 168.128C352.173 167.468 352.594 166.873 353.12 166.38C353.646 165.887 354.266 165.505 354.943 165.258C355.62 165.01 356.34 164.902 357.06 164.94C357.781 164.912 358.5 165.036 359.171 165.302C359.842 165.569 360.449 165.972 360.955 166.487C361.46 167.002 361.853 167.617 362.107 168.293C362.361 168.968 362.471 169.689 362.43 170.41V170.91H353.88C353.999 171.736 354.431 172.484 355.086 173.002C355.741 173.519 356.569 173.765 357.4 173.69C358.557 173.701 359.681 173.301 360.57 172.56L361.67 174.01C360.39 175.016 358.797 175.54 357.17 175.49C353.84 175.53 351.43 173.42 351.43 170.22ZM357.03 166.73C356.268 166.68 355.517 166.93 354.937 167.428C354.358 167.925 353.996 168.629 353.93 169.39H360.18C360.154 169.002 360.05 168.623 359.873 168.276C359.696 167.929 359.45 167.622 359.151 167.373C358.852 167.124 358.505 166.939 358.132 166.828C357.758 166.718 357.367 166.684 356.98 166.73H357.03Z" fill="white"/>
<path d="M377.57 175.28V174.17C377.091 174.629 376.525 174.986 375.904 175.22C375.284 175.453 374.622 175.559 373.96 175.53C372.17 175.53 370.12 174.4 370.12 172.19C370.12 169.98 372.12 168.89 373.96 168.89C374.617 168.853 375.276 168.948 375.896 169.169C376.516 169.391 377.085 169.735 377.57 170.18V168.68C377.57 167.51 376.49 166.8 374.97 166.8C373.75 166.786 372.573 167.249 371.69 168.09L370.69 166.57C371.986 165.466 373.648 164.884 375.35 164.94C377.83 164.94 379.99 165.88 379.99 168.57V175.28H377.57ZM377.57 172.98V171.43C377.223 171.09 376.809 170.825 376.355 170.653C375.901 170.481 375.415 170.405 374.93 170.43C373.57 170.43 372.54 171.16 372.54 172.25C372.54 173.34 373.54 174.07 374.93 174.07C375.422 174.086 375.912 173.996 376.367 173.809C376.822 173.621 377.232 173.338 377.57 172.98Z" fill="white"/>
<path d="M383.1 175.28V161.35H385.52V175.28H383.1Z" fill="white"/>
<path d="M388.64 175.28V161.35H391.05V175.28H388.64Z" fill="white"/>
<path d="M399.43 170.22C399.43 167.32 401.59 164.94 405.13 164.94C408.67 164.94 410.83 167.32 410.83 170.22C410.83 173.12 408.67 175.53 405.13 175.53C401.59 175.53 399.43 173.11 399.43 170.22ZM408.32 170.22C408.285 169.598 408.068 169 407.697 168.499C407.326 167.999 406.816 167.618 406.231 167.404C405.646 167.19 405.011 167.152 404.405 167.295C403.798 167.437 403.247 167.755 402.818 168.207C402.39 168.659 402.104 169.227 401.994 169.841C401.885 170.454 401.958 171.086 402.204 171.659C402.45 172.231 402.858 172.719 403.378 173.062C403.898 173.406 404.507 173.589 405.13 173.59C405.568 173.603 406.004 173.523 406.41 173.356C406.815 173.188 407.181 172.938 407.483 172.62C407.785 172.302 408.016 171.924 408.162 171.51C408.308 171.097 408.365 170.657 408.33 170.22H408.32Z" fill="white"/>
<path d="M420.79 175.28V173.91C419.749 174.937 418.343 175.509 416.88 175.5C414.49 175.5 413.3 174.35 413.3 172.3V165.16H415.71V171.49C415.71 173.06 416.58 173.56 417.96 173.56C418.498 173.553 419.029 173.432 419.517 173.204C420.005 172.977 420.439 172.648 420.79 172.24V165.16H423.2V175.25L420.79 175.28Z" fill="white"/>
<path d="M426.32 175.28V165.19H428.73V166.65C429.182 166.132 429.736 165.713 430.357 165.419C430.978 165.125 431.653 164.962 432.34 164.94V167.11C432.099 167.066 431.855 167.046 431.61 167.05C431.062 167.064 430.522 167.192 430.026 167.426C429.531 167.66 429.089 167.995 428.73 168.41V175.28H426.32Z" fill="white"/>
<path d="M202.01 194.77V200.01H199.6V186.08H202.01V187.45C202.448 186.935 202.994 186.523 203.609 186.243C204.225 185.963 204.894 185.822 205.57 185.83C208.45 185.83 210.49 187.83 210.49 191.11C210.49 194.39 208.49 196.42 205.57 196.42C204.892 196.422 204.222 196.276 203.607 195.991C202.991 195.706 202.446 195.289 202.01 194.77ZM208.01 191.11C208.047 190.678 207.992 190.244 207.849 189.834C207.706 189.425 207.479 189.051 207.182 188.736C206.884 188.42 206.524 188.171 206.124 188.005C205.724 187.839 205.293 187.759 204.86 187.77C204.317 187.772 203.781 187.892 203.289 188.122C202.797 188.351 202.36 188.685 202.01 189.1V193.1C202.354 193.525 202.788 193.87 203.281 194.108C203.773 194.347 204.313 194.474 204.86 194.48C205.295 194.489 205.727 194.406 206.128 194.236C206.529 194.067 206.889 193.815 207.187 193.497C207.484 193.18 207.711 192.803 207.852 192.391C207.994 191.98 208.048 191.543 208.01 191.11Z" fill="white"/>
<path d="M212.9 196.17V186.08H215.32V187.54C215.771 187.023 216.323 186.605 216.942 186.311C217.562 186.017 218.235 185.853 218.92 185.83V188C218.68 187.952 218.435 187.929 218.19 187.93C217.643 187.943 217.105 188.07 216.61 188.305C216.116 188.539 215.676 188.875 215.32 189.29V196.17H212.9Z" fill="white"/>
<path d="M220.21 191.11C220.21 188.21 222.37 185.83 225.91 185.83C229.45 185.83 231.61 188.21 231.61 191.11C231.61 194.01 229.45 196.42 225.91 196.42C222.37 196.42 220.21 193.99 220.21 191.11ZM229.1 191.11C229.069 190.485 228.854 189.882 228.484 189.377C228.113 188.872 227.603 188.487 227.015 188.269C226.428 188.052 225.79 188.011 225.18 188.153C224.57 188.295 224.015 188.613 223.583 189.067C223.152 189.521 222.864 190.092 222.754 190.708C222.644 191.325 222.717 191.96 222.965 192.536C223.213 193.111 223.624 193.601 224.147 193.945C224.671 194.289 225.284 194.471 225.91 194.47C226.347 194.481 226.781 194.401 227.184 194.233C227.587 194.066 227.951 193.816 228.252 193.499C228.553 193.183 228.784 192.806 228.93 192.395C229.076 191.983 229.134 191.545 229.1 191.11Z" fill="white"/>
<path d="M241.88 196.17V194.79C241.44 195.306 240.893 195.719 240.276 196.001C239.659 196.283 238.988 196.426 238.31 196.42C235.49 196.42 233.4 194.42 233.4 191.11C233.4 187.8 235.46 185.83 238.31 185.83C238.991 185.815 239.667 185.956 240.286 186.242C240.904 186.528 241.45 186.952 241.88 187.48V182.23H244.29V196.17H241.88ZM241.88 193.17V189.17C241.535 188.747 241.1 188.406 240.607 188.171C240.115 187.936 239.576 187.812 239.03 187.81C238.186 187.875 237.398 188.256 236.823 188.878C236.248 189.499 235.929 190.314 235.929 191.16C235.929 192.006 236.248 192.821 236.823 193.442C237.398 194.063 238.186 194.445 239.03 194.51C239.578 194.502 240.117 194.373 240.61 194.133C241.103 193.893 241.536 193.547 241.88 193.12V193.17Z" fill="white"/>
<path d="M254.9 196.17V194.83C253.859 195.852 252.458 196.423 251 196.42C248.61 196.42 247.41 195.27 247.41 193.22V186.08H249.82V192.41C249.82 193.97 250.7 194.47 252.08 194.47C252.616 194.464 253.144 194.343 253.631 194.118C254.117 193.892 254.549 193.565 254.9 193.16V186.08H257.32V196.17H254.9Z" fill="white"/>
<path d="M259.77 191.11C259.77 188.11 262.14 185.83 265.49 185.83C266.29 185.776 267.092 185.91 267.832 186.22C268.572 186.531 269.228 187.011 269.75 187.62L268.16 188.91C267.862 188.522 267.475 188.213 267.03 188.009C266.586 187.805 266.098 187.713 265.61 187.74C265.17 187.74 264.734 187.827 264.328 187.995C263.922 188.163 263.552 188.41 263.241 188.721C262.93 189.032 262.683 189.402 262.515 189.808C262.347 190.215 262.26 190.65 262.26 191.09C262.26 191.53 262.347 191.966 262.515 192.372C262.683 192.778 262.93 193.148 263.241 193.459C263.552 193.77 263.922 194.017 264.328 194.185C264.734 194.353 265.17 194.44 265.61 194.44C266.101 194.458 266.589 194.357 267.033 194.147C267.477 193.936 267.863 193.622 268.16 193.23L269.75 194.59C269.226 195.197 268.569 195.675 267.83 195.988C267.091 196.3 266.291 196.437 265.49 196.39C262.14 196.42 259.77 194.16 259.77 191.11Z" fill="white"/>
<path d="M272.43 193.81V187.98H270.59V186.08H272.43V183.32H274.84V186.08H277.09V187.98H274.84V193.26C274.82 193.411 274.833 193.565 274.877 193.71C274.921 193.856 274.996 193.991 275.096 194.105C275.196 194.22 275.32 194.312 275.459 194.375C275.597 194.438 275.748 194.47 275.9 194.47C276.284 194.482 276.658 194.35 276.95 194.1L277.53 195.77C276.876 196.237 276.082 196.467 275.28 196.42C273.35 196.42 272.43 195.5 272.43 193.81Z" fill="white"/>
<path d="M278.27 194.83L279.37 193.26C280.423 194.142 281.747 194.637 283.12 194.66C284.56 194.66 285.32 194.12 285.32 193.32C285.32 191.32 278.61 192.76 278.61 188.87C278.61 187.22 280.17 185.87 282.98 185.87C284.53 185.827 286.048 186.318 287.28 187.26L286.28 188.81C285.381 188.003 284.208 187.57 283 187.6C281.73 187.6 280.95 188.14 280.95 188.85C280.95 190.63 287.66 189.29 287.66 193.3C287.66 195.1 286.03 196.46 283.04 196.46C281.305 196.515 279.609 195.935 278.27 194.83Z" fill="white"/>
<path d="M305.68 196.17L303.08 188.77L300.51 196.17H297.98L294.53 186.08H297.04L299.43 193.41L302.07 186.08H304.21L306.83 193.41L309.18 186.08H311.7L308.26 196.17H305.68Z" fill="white"/>
<path d="M313.05 183.49C313.02 183.189 313.081 182.886 313.227 182.62C313.372 182.355 313.594 182.139 313.864 182.002C314.134 181.865 314.44 181.814 314.74 181.853C315.04 181.893 315.321 182.023 315.546 182.225C315.771 182.428 315.929 182.694 316.001 182.988C316.072 183.282 316.052 183.591 315.944 183.874C315.836 184.157 315.646 184.401 315.397 184.573C315.148 184.746 314.853 184.839 314.55 184.84C314.172 184.859 313.802 184.728 313.521 184.475C313.24 184.222 313.071 183.868 313.05 183.49ZM313.33 196.17V186.08H315.74V196.17H313.33Z" fill="white"/>
<path d="M319.37 193.81V187.98H317.53V186.08H319.37V183.32H321.78V186.08H324.04V187.98H321.78V193.26C321.76 193.411 321.773 193.565 321.817 193.71C321.861 193.856 321.936 193.991 322.036 194.105C322.136 194.22 322.26 194.312 322.399 194.375C322.537 194.438 322.688 194.47 322.84 194.47C323.227 194.48 323.603 194.348 323.9 194.1L324.47 195.77C323.817 196.239 323.022 196.468 322.22 196.42C320.34 196.42 319.37 195.5 319.37 193.81Z" fill="white"/>
<path d="M333.71 196.17V189.82C333.71 188.23 332.84 187.82 331.48 187.82C330.938 187.829 330.404 187.951 329.913 188.181C329.422 188.41 328.985 188.74 328.63 189.15V196.22H326.22V182.23H328.63V187.43C329.143 186.917 329.753 186.512 330.424 186.237C331.096 185.963 331.815 185.824 332.54 185.83C334.93 185.83 336.12 186.95 336.12 189.02V196.17H333.71Z" fill="white"/>
<path d="M344.51 191.11C344.51 188.11 346.87 185.83 350.23 185.83C351.029 185.776 351.83 185.91 352.568 186.221C353.306 186.531 353.96 187.011 354.48 187.62L352.89 188.91C352.593 188.522 352.205 188.213 351.76 188.009C351.316 187.805 350.828 187.712 350.34 187.74C349.9 187.74 349.464 187.827 349.058 187.995C348.652 188.163 348.282 188.41 347.971 188.721C347.66 189.032 347.413 189.402 347.245 189.808C347.077 190.215 346.99 190.65 346.99 191.09C346.99 191.53 347.077 191.966 347.245 192.372C347.413 192.778 347.66 193.148 347.971 193.459C348.282 193.77 348.652 194.017 349.058 194.185C349.464 194.353 349.9 194.44 350.34 194.44C350.831 194.458 351.319 194.357 351.763 194.147C352.207 193.936 352.593 193.622 352.89 193.23L354.48 194.59C353.958 195.198 353.303 195.676 352.566 195.988C351.829 196.301 351.029 196.438 350.23 196.39C346.87 196.42 344.51 194.16 344.51 191.11Z" fill="white"/>
<path d="M363.43 196.17V195.06C362.951 195.519 362.385 195.876 361.764 196.109C361.144 196.343 360.482 196.449 359.82 196.42C358.03 196.42 355.98 195.29 355.98 193.07C355.98 190.85 357.98 189.77 359.82 189.77C360.478 189.733 361.137 189.829 361.758 190.052C362.378 190.275 362.947 190.622 363.43 191.07V189.56C363.43 188.39 362.35 187.68 360.83 187.68C359.605 187.665 358.424 188.132 357.54 188.98L356.54 187.45C357.845 186.354 359.507 185.778 361.21 185.83C363.69 185.83 365.85 186.76 365.85 189.46V196.17H363.43ZM363.43 193.87V192.32C363.083 191.977 362.668 191.71 362.211 191.538C361.755 191.366 361.267 191.292 360.78 191.32C359.43 191.32 358.39 192.05 358.39 193.13C358.39 194.21 359.39 194.95 360.78 194.95C361.27 194.973 361.759 194.893 362.216 194.713C362.673 194.534 363.087 194.26 363.43 193.91V193.87Z" fill="white"/>
<path d="M368.95 196.17V186.08H371.36V187.54C371.812 187.022 372.366 186.603 372.987 186.309C373.608 186.015 374.283 185.852 374.97 185.83V188C374.73 187.952 374.485 187.929 374.24 187.93C373.692 187.944 373.152 188.072 372.656 188.306C372.16 188.54 371.719 188.875 371.36 189.29V196.17H368.95Z" fill="white"/>
<path d="M376.26 191.11C376.268 190.389 376.422 189.678 376.713 189.018C377.003 188.358 377.424 187.764 377.95 187.271C378.476 186.777 379.096 186.396 379.773 186.148C380.45 185.901 381.17 185.793 381.89 185.83C382.617 185.791 383.345 185.906 384.025 186.167C384.704 186.429 385.321 186.831 385.835 187.347C386.349 187.864 386.747 188.483 387.005 189.164C387.263 189.845 387.373 190.573 387.33 191.3V191.84H378.79C378.907 192.665 379.337 193.414 379.99 193.931C380.643 194.449 381.47 194.695 382.3 194.62C383.456 194.626 384.578 194.226 385.47 193.49L386.58 194.93C385.296 195.937 383.701 196.464 382.07 196.42C378.72 196.42 376.26 194.31 376.26 191.11ZM381.86 187.62C381.1 187.57 380.35 187.819 379.771 188.314C379.192 188.81 378.829 189.511 378.76 190.27H385.01C384.983 189.887 384.879 189.514 384.704 189.172C384.53 188.83 384.289 188.527 383.995 188.28C383.701 188.033 383.361 187.847 382.994 187.734C382.628 187.62 382.242 187.582 381.86 187.62Z" fill="white"/>
<path d="M128.5 27.0107L255 24.0107C280.833 23.6774 339.4 22.3107 367 19.5107C394.6 16.7107 436.5 10.6774 454 8.0107C466.5 7.6774 491.9 15.0107 493.5 47.0107C491 93.511 490 109.011 487.5 135.511C485.5 156.711 490.667 182.011 493.5 192.011C496.167 198.011 497.5 212.311 481.5 221.511C461.5 233.011 392.5 233.511 388.5 234.511C385.3 235.311 298.5 234.844 255.5 234.511L136.5 231.511L109 229.511" stroke="white" stroke-width="3" stroke-linecap="round" stroke-dasharray="6 8"/>
<path d="M58.0345 192.967C58.0953 192.092 58.1561 191.323 58.1986 190.554C58.3263 188.587 58.4661 186.62 58.5573 184.653C58.6667 182.216 58.0102 179.868 57.6333 177.484C57.1895 174.631 56.6606 171.771 57.1591 168.877C57.7123 165.677 59.4205 163.006 61.5359 160.593C61.9736 160.088 62.4356 159.606 62.9523 159.043C61.7366 158.796 60.5755 158.614 59.4448 158.326C49.5057 155.831 40.3812 151.786 32.515 145.274C27.495 141.175 23.8652 135.713 22.0957 129.598C20.9893 126.002 20.3602 122.285 20.2234 118.537C20.0836 113.511 20.0896 108.491 20.3814 103.471C20.7145 98.4404 21.4173 93.4392 22.4847 88.505C22.5455 88.188 22.6063 87.8709 22.6732 87.5421C22.3936 87.5421 22.2477 87.6948 22.0653 87.7946C20.8495 88.4815 19.7918 88.1175 19.348 86.7965C19.0927 86.0391 18.9042 85.2582 18.6976 84.4891C17.0806 78.4123 15.6581 72.3003 14.5456 66.112C12.339 53.612 15.1535 42.2687 22.6732 31.9177C28.5211 23.8916 36.0469 17.7444 44.8006 12.8947C52.156 8.69824 60.0404 5.43435 68.2593 3.18363C72.6083 2.12256 77.0167 1.30316 81.4628 0.729442C85.0646 0.195352 88.7065 -0.0462159 92.3502 0.00727485C96.2434 0.17396 100.111 0.700873 103.9 1.58078C108.305 2.4073 112.6 3.71114 116.702 5.46756C124.354 8.7906 130.804 14.2452 135.225 21.1321C138.346 26.1275 140.978 31.3934 143.085 36.8613C143.79 38.6227 144.52 40.384 145.207 42.1454C145.249 42.324 145.356 42.4818 145.509 42.5898C145.662 42.6977 145.851 42.7484 146.039 42.7326C149.973 42.8793 153.906 42.9791 157.833 43.2551C163.403 43.6169 168.923 44.4958 174.319 45.8795C175.791 46.2907 177.172 46.9615 178.392 47.8582C180.726 49.5021 180.483 52.3497 177.899 53.6649C176.91 54.1388 175.878 54.5259 174.817 54.8215C166.568 57.3285 158.368 59.9765 150.246 62.8417C148.083 63.6734 145.974 64.6302 143.93 65.7068C143.687 65.8243 143.462 65.9006 143.669 66.294C146.763 71.7777 148.629 77.7254 150.508 83.6553C152.35 89.133 153.9 94.6985 155.152 100.33C156.554 106.735 157.216 113.27 157.128 119.817C156.903 127.989 154.21 135.217 148.422 141.247C145.553 144.235 142.094 146.572 138.532 148.738C134.355 151.306 129.911 153.445 125.274 155.121L124.696 155.344C124.909 155.614 125.219 155.614 125.474 155.69L154.69 164.432C156.246 164.896 156.514 165.254 156.514 166.781C156.424 172.691 156.327 178.606 156.222 184.524C156.043 194.783 155.865 205.038 155.687 215.289C155.656 216.822 155.431 217.051 153.863 217.227C149.292 217.814 144.745 218.401 140.155 218.988C135.973 219.528 131.788 220.063 127.602 220.591C124.283 221.014 120.97 221.448 117.645 221.859C117.128 221.918 117.262 222.247 117.262 222.523C117.292 225.224 117.335 227.924 117.353 230.625C117.353 232.228 116.806 232.809 115.146 232.974C114.374 233.05 113.602 233.126 112.824 233.185C112.459 233.214 112.283 233.332 112.253 233.731C111.823 238.851 111.379 243.969 110.921 249.084C110.463 254.2 109.995 259.342 109.517 264.508C109.353 266.352 109.183 268.195 109.037 270.045C108.915 271.63 108.526 271.994 106.873 272C102.447 272 98.0279 271.871 93.6085 271.748C92.569 271.718 92.3137 271.442 92.259 270.421C91.8537 261.982 91.4322 253.545 90.9946 245.11C90.8183 241.546 90.6602 237.982 90.49 234.418C90.4475 233.543 90.4353 233.543 89.5842 233.678C88.4171 233.86 88.4049 233.86 88.3077 234.993C87.87 240.137 87.4363 245.28 87.0068 250.423C86.4921 256.478 85.9733 262.532 85.4506 268.583C85.408 269.123 85.3594 269.663 85.3168 270.198C85.2621 270.879 84.9034 271.166 84.18 271.196C80.2166 271.348 76.2774 271.102 72.3018 271.143C71.4021 271.143 70.4781 271.143 69.6027 271.143C68.7273 271.143 68.2654 270.855 68.162 269.927C67.8702 267.315 67.6149 264.702 67.3413 262.089C66.9766 258.543 66.6078 254.997 66.235 251.451L65.1286 240.941C64.8733 238.422 64.6119 235.903 64.3687 233.379C64.3323 232.997 64.1924 232.844 63.7608 232.792C62.3384 232.557 61.9372 232.105 61.7548 230.701C61.3973 227.67 61.2127 224.622 61.2016 221.572C61.2571 221.012 61.1229 220.45 60.8193 219.97C60.5156 219.491 60.0588 219.119 59.5177 218.912C49.82 214.295 41.7516 207.013 36.3265 197.981C33.7247 193.654 31.9679 188.945 30.1321 184.289C28.8677 181.095 27.8342 177.831 26.0227 174.848C24.7269 172.778 23.1186 170.906 21.2507 169.294C19.348 167.615 17.038 167.057 14.5639 166.81C12.2268 166.635 9.91123 166.254 7.64602 165.671C5.78277 165.132 4.06885 164.195 2.63088 162.929C1.85932 162.265 1.23406 161.457 0.792311 160.554C0.350558 159.652 0.101337 158.672 0.0594806 157.675C-0.217089 155.141 0.477106 152.596 2.01083 150.523C3.70078 148.275 6.08373 147.224 8.8071 146.865C13.1414 146.278 17.5 146.196 21.7614 147.259C26.6914 148.48 31.5849 149.872 35.7429 152.913C38.7221 155.038 41.1881 157.762 42.9708 160.898C45.944 166.343 48.3861 172.043 50.2656 177.925C51.7895 182.496 53.828 186.893 56.3445 191.035C56.7505 191.793 57.3281 192.454 58.0345 192.967Z" fill="#4D2512"/>
<path d="M21.1352 86.2508C20.6307 84.3308 20.1261 82.5049 19.6641 80.673C18.4483 75.9056 17.2994 71.1205 16.4727 66.2708C15.787 62.6233 15.5422 58.9113 15.7432 55.2093C16.2032 48.4683 18.3812 41.9416 22.0835 36.2099C24.8913 31.6477 28.3588 27.496 32.3813 23.8802C37.0749 19.722 42.2983 16.1587 47.9252 13.2767C52.2595 11.1043 56.5694 8.9143 61.2259 7.40538C67.7093 5.30834 74.3625 3.73722 81.1163 2.70836C84.7337 2.1561 88.3998 1.95938 92.0584 2.12123C94.9592 2.32388 97.8454 2.68851 100.703 3.21329C104.253 3.70838 107.752 4.50407 111.158 5.59116C118.003 7.93967 124.119 11.4213 129.091 16.6292C131.363 19.1381 133.353 21.8717 135.031 24.7844C137.462 28.7944 139.286 33.0922 141.201 37.3606C141.924 38.9987 142.593 40.6544 143.28 42.3043C143.395 42.5861 143.498 42.8914 143.638 43.2143C141.705 43.2143 139.863 43.2671 138.021 43.3259C132.061 43.5301 126.126 44.1838 120.271 45.281C107.303 47.7209 94.5261 51.0305 82.0342 55.1858C72.3098 58.3703 62.8398 62.238 53.7002 66.7581C44.0546 71.6658 34.7393 77.1566 25.8099 83.1977C24.3145 84.2604 22.7583 85.2174 21.1352 86.2508Z" fill="#F66513"/>
<path d="M48.6486 115.53C42.756 114.369 36.9419 112.863 31.2385 111.021C28.2294 110.099 25.4999 108.62 22.7279 107.164C22.5999 107.101 22.4957 107.001 22.4302 106.877C22.3647 106.754 22.3412 106.614 22.3632 106.477C22.478 102.563 22.8495 98.6609 23.4756 94.7929C23.9437 91.8984 24.5881 89.0391 25.0926 86.1563C25.1428 85.7987 25.2789 85.4575 25.49 85.1598C25.7011 84.8621 25.9814 84.6163 26.3084 84.4419C31.2202 81.2009 36.1746 78.0246 41.2444 75.0067C41.6336 74.7801 42.0787 74.6584 42.5332 74.6545C45.22 74.5312 47.9069 74.3609 50.5999 74.1965C52.3871 74.0849 54.1804 73.9616 55.9737 73.8383C59.9858 73.5624 64.004 73.2512 68.0222 73.0105C72.0404 72.7698 76.1437 72.3236 80.1801 71.8362C85.968 71.0705 91.7043 69.9765 97.3592 68.5601C107.371 66.1411 117.092 62.8414 126.769 59.4185C128.976 58.6376 131.201 57.8978 133.401 57.07C133.61 56.9684 133.85 56.9458 134.075 57.0066C134.3 57.0675 134.493 57.2073 134.617 57.3988C140.441 63.6634 144.185 71.0025 146.775 78.9816C148.666 84.8529 150.52 90.7241 152.131 96.6483C152.212 96.8619 152.229 97.0931 152.182 97.316C152.135 97.539 152.024 97.7448 151.863 97.9106C150.295 99.7072 148.781 101.539 147.243 103.353C147.018 103.623 146.739 103.858 146.489 104.111C146.234 103.852 146.277 103.524 146.179 103.201C146.118 102.941 146.003 102.697 145.841 102.482C145.679 102.267 145.474 102.086 145.237 101.95C144.738 101.642 144.17 101.452 143.581 101.397C142.991 101.342 142.396 101.423 141.845 101.633C140.939 101.944 140.021 102.22 139.116 102.531C138.661 102.7 138.267 102.992 137.98 103.372C137.693 103.753 137.526 104.205 137.499 104.674C137.399 105.128 137.453 105.6 137.65 106.023C137.848 106.445 138.181 106.795 138.599 107.023C138.921 107.209 139.286 107.314 139.662 107.328C140.037 107.341 140.409 107.262 140.745 107.099C141.353 106.929 141.784 106.424 142.447 106.412C143 106.682 143.626 106.483 144.191 106.665C144.112 106.864 144.082 107.087 143.881 107.252C143.119 108.191 142.084 108.89 140.909 109.26C140.703 109.137 140.464 109.077 140.223 109.087C139.981 109.096 139.748 109.175 139.553 109.313C137.863 110.058 136.155 110.775 134.453 111.485C134.298 111.554 134.135 111.603 133.967 111.632C133.748 111.643 133.532 111.679 133.322 111.737C133.052 111.78 132.784 111.836 132.52 111.908C127.744 112.595 122.877 112.406 118.174 111.35C116.557 111.021 114.982 110.557 113.396 110.123C112.56 109.799 111.645 109.719 110.763 109.894C109.274 110.082 107.797 110.328 106.326 110.598C105.383 110.769 104.502 110.986 103.894 111.802C102.235 112.319 100.636 112.976 99.0005 113.563C95.2749 114.902 91.4287 115.905 87.5113 116.558C87.3044 116.563 87.0994 116.599 86.9034 116.663C84.6299 117.098 82.326 117.356 80.0403 117.732C78.8731 117.521 77.7232 117.228 76.5996 116.857C74.2349 116.211 71.8823 115.542 69.5298 114.879C69.165 114.773 68.5936 114.497 68.4599 114.996C68.3261 115.495 68.9827 115.436 69.3353 115.536C71.6392 116.194 73.9492 116.84 76.2592 117.491C76.4963 117.562 77.019 117.456 76.8671 118.014C75.8745 118.263 74.8531 118.389 73.8276 118.39C73.0069 118.472 72.1802 118.501 71.3535 118.525C69.7061 118.572 68.0526 118.707 66.4113 118.671C63.1601 118.64 59.9203 118.295 56.7397 117.644C54.6546 117.192 52.5756 116.705 50.5027 116.205C50.0992 116.119 49.709 115.983 49.3416 115.8C49.1106 115.689 48.8857 115.601 48.6486 115.53Z" fill="#F59118"/>
<path d="M49.2261 115.659C52.7944 116.522 56.3567 117.421 59.998 117.967C62.5894 118.335 65.2098 118.479 67.8277 118.395C70.8672 118.301 73.9066 118.243 76.8975 117.884C77.2014 117.673 77.5054 117.826 77.7972 117.884C78.5388 118.072 79.2743 118.29 80.0099 118.513C80.2069 118.577 80.4108 118.621 80.6178 118.642C80.8184 118.642 81.0251 118.642 81.0798 118.407C81.1345 118.172 80.9461 118.131 80.8062 118.043C80.5145 117.849 80.0828 117.908 79.8822 117.561L86.9946 116.469C87.0483 116.522 87.0824 116.59 87.0919 116.663C86.9948 117.22 87.0131 117.79 87.1456 118.341C87.2781 118.891 87.5223 119.41 87.8639 119.869C88.0263 120.159 88.2681 120.401 88.563 120.568C89.414 120.92 89.6633 121.542 89.7788 122.388C89.9855 124.038 90.9946 125.276 92.3015 126.292C92.8971 126.738 93.2879 127.391 93.3897 128.112C94.1023 132.054 95.6012 135.825 97.803 139.215C98.505 140.488 99.5202 141.576 100.759 142.381C101.998 143.187 103.424 143.686 104.909 143.835C106.897 144.064 108.897 144.041 110.739 143.072C111.914 142.41 112.969 141.567 113.864 140.577C117.408 136.866 119.104 132.357 119.943 127.478C119.97 127.141 120.081 126.815 120.266 126.528C120.452 126.241 120.705 126.001 121.006 125.828C121.536 125.533 121.983 125.12 122.312 124.622C122.64 124.124 122.838 123.557 122.891 122.969C123.041 122.161 123.123 121.342 123.134 120.521C123.107 120.217 123.158 119.911 123.282 119.631C123.406 119.35 123.599 119.103 123.845 118.912C124.527 118.304 125.06 117.558 125.408 116.728C125.504 116.541 125.577 116.344 125.626 116.141C125.687 115.841 125.797 115.465 125.383 115.377C124.97 115.289 125.037 115.683 124.946 115.912C123.754 118.994 121.104 120.937 117.067 119.992C114.978 119.517 113.029 118.585 111.371 117.268C110.678 116.681 110.66 116.464 111.28 115.847C111.766 115.36 112.271 114.884 112.769 114.403C113.269 113.918 113.651 113.333 113.888 112.688C114.056 112.334 114.122 111.941 114.077 111.553C114.032 111.165 113.878 110.797 113.633 110.487C113.499 110.328 113.323 110.175 113.396 109.929C115.323 110.381 117.207 110.997 119.164 111.338C123.4 112.171 127.749 112.314 132.034 111.761C132.222 111.731 132.423 111.761 132.611 111.725C132.8 111.69 132.976 111.602 133.103 111.814C133.049 112.154 132.739 112.219 132.496 112.33C131.967 112.559 131.42 112.747 130.903 113.005C130.648 113.135 130.198 113.24 130.398 113.628C130.599 114.015 130.915 113.757 131.183 113.628C131.717 113.416 132.252 113.193 132.787 112.964C135.041 111.997 137.3 111.037 139.565 110.081C140.101 109.875 140.593 109.577 141.018 109.201C142.046 108.614 142.927 107.868 143.894 107.222C143.547 110.158 145.584 112.718 148.921 113.54C150.976 114.045 152.289 113.904 154.811 112.906C155.018 114.385 154.976 115.841 155.042 117.338C155.042 117.638 154.848 117.79 154.641 117.967C152.094 120.174 151.748 121.489 152.915 124.619C153.045 125.094 153.25 125.548 153.523 125.963C154.082 126.65 153.948 127.308 153.729 128.059C151.79 134.565 147.875 139.679 142.277 143.724C135.965 148.222 128.984 151.772 121.572 154.251C119.949 154.803 118.313 155.302 116.672 155.795C115.026 156.196 113.352 156.476 111.663 156.635C107.596 157.222 103.523 157.856 99.4382 158.396C97.9392 158.534 96.4334 158.593 94.9277 158.572C89.177 158.69 83.4202 158.966 77.6634 158.625C69.0982 158.114 60.5998 157.181 52.5269 154.122C47.0265 152.127 41.8113 149.463 37.0074 146.196C36.7581 146.025 36.5211 145.826 36.1928 145.567C37.3235 145.356 38.3387 145.186 39.3478 144.98C41.4465 144.58 43.4424 143.781 45.22 142.632C47.5483 141.076 48.7458 138.275 48.1015 135.827C48.0167 135.359 47.7659 134.934 47.392 134.626C47.0181 134.317 46.5446 134.144 46.0529 134.136C44.3204 133.936 42.6122 134.242 40.8979 134.353C37.749 134.565 34.6184 134.982 31.4512 134.858C29.8039 134.751 28.1641 134.555 26.5394 134.271C26.4316 134.271 26.3265 134.239 26.2383 134.179C26.1502 134.119 26.0834 134.034 26.047 133.936C25.2811 131.993 24.5091 130.056 23.8829 128.065C23.8707 127.995 23.8707 127.924 23.8829 127.854C23.8002 127.47 23.8596 127.069 24.0506 126.723C24.2416 126.377 24.5522 126.106 24.9285 125.957C25.1595 126.139 25.4574 125.957 25.6884 126.092C26.9042 126.239 28.0896 126.404 29.2932 126.527C32.4907 126.867 35.6396 126.386 38.7946 126.04C41.1645 125.867 43.4996 125.388 45.7368 124.613C48.5696 123.521 49.992 121.46 50.3628 118.654C50.4703 118.131 50.4242 117.589 50.2298 117.09C50.0354 116.591 49.7003 116.154 49.2626 115.829C49.22 115.8 49.2018 115.765 49.22 115.736C49.2382 115.706 49.2139 115.659 49.2261 115.659Z" fill="#FCFAF4"/>
<path d="M154.368 172.089C154.216 176.334 154.276 180.585 154.155 184.824C154.07 187.712 154.155 190.595 154.021 193.478C153.869 196.502 154.021 199.531 153.875 202.549C153.729 205.414 153.875 208.274 153.735 211.133C153.687 212.278 153.62 213.423 153.632 214.573C153.648 214.654 153.644 214.736 153.622 214.815C153.601 214.893 153.561 214.966 153.506 215.028C153.451 215.09 153.383 215.139 153.306 215.172C153.229 215.206 153.145 215.222 153.061 215.219C149.967 215.595 146.872 215.971 143.778 216.394C140.684 216.816 137.602 217.215 134.508 217.615C131.414 218.014 128.271 218.384 125.152 218.789C122.398 219.141 119.645 219.523 116.885 219.875C114.125 220.227 111.177 220.562 108.326 220.932C107.961 220.979 107.809 220.932 107.87 220.574C108.131 218.971 107.967 217.345 108.089 215.73C108.259 213.493 108.198 211.233 108.301 208.984C108.429 206.154 108.502 203.318 108.605 200.488C108.703 197.932 108.796 195.388 108.885 192.856C109.043 188.687 109.225 184.518 109.329 180.35C109.377 178.242 109.517 176.14 109.578 174.032C109.578 173.574 109.779 173.398 110.186 173.345C112.49 173.052 114.794 172.758 117.092 172.471C119.827 172.118 122.563 171.748 125.286 171.396C128.009 171.044 130.708 170.709 133.414 170.357C136.119 170.005 138.885 169.635 141.608 169.282L149.808 168.243C151.024 168.085 152.24 167.932 153.456 167.75C154.325 167.615 154.349 167.615 154.349 168.49C154.362 169.652 154.368 170.868 154.368 172.089Z" fill="#A1763B"/>
<path d="M44.4966 73.1167L48.0771 71.1615C62.4843 63.3351 77.7424 57.4873 93.572 52.9958C102.156 50.5592 110.8 48.3751 119.584 46.7135C123.961 45.8979 128.381 45.3099 132.824 44.9522C137.18 44.5923 141.553 44.4668 145.924 44.5764C150.337 44.6762 154.745 44.9346 159.14 45.3808C163.461 45.7567 167.749 46.4257 171.972 47.3829C173.901 47.8682 175.756 48.5924 177.492 49.5376C178.234 49.9369 178.258 50.1248 177.747 50.888C177.644 50.16 177.066 50.1013 176.532 49.9486C172.386 48.6452 168.185 48.5806 163.875 48.9505C159.791 49.2656 155.731 49.8205 151.717 50.6121C145.28 51.9982 138.946 53.7968 132.757 55.996C125.055 58.6909 117.389 61.5033 109.578 63.8929C101.55 66.401 93.3605 68.3956 85.0615 69.864C81.171 70.5274 77.244 70.9208 73.3109 71.3201C68.004 71.8602 62.6727 72.1538 57.3536 72.5354C53.9433 72.782 50.527 72.9464 47.1106 73.1225C46.2443 73.2525 45.3623 73.2505 44.4966 73.1167V73.1167Z" fill="#FE7F37"/>
<path d="M75.9188 204.457C75.9188 202.484 75.9188 200.512 75.9188 198.539C75.9188 198.14 75.9188 197.852 76.4902 197.899C78.3139 198.04 80.1376 198.228 81.9612 198.269C85.5721 198.345 89.2195 198.979 92.7575 197.682C94.3805 197.095 96.0097 196.431 97.2072 195.228C98.9033 193.513 100.21 191.546 100.101 189.004C100.004 186.785 97.8516 184.19 95.5538 183.72C91.5174 182.874 87.4627 182.105 83.3959 181.319C82.095 181.066 80.7941 180.831 79.481 180.62C79.1102 180.561 79.0069 180.362 78.9461 180.062C78.3382 176.903 77.7303 173.733 77.0312 170.586C76.5631 168.455 76.5388 166.276 76.1984 164.127C76.1133 163.587 76.4963 163.84 76.6908 163.893C78.7819 164.48 80.867 165.108 82.9521 165.719C83.8092 165.971 84.6481 166.306 85.5174 166.482C85.6105 166.479 85.7029 166.498 85.7875 166.535C85.8722 166.573 85.9467 166.629 86.0055 166.698C86.0642 166.768 86.1056 166.85 86.1263 166.938C86.1471 167.025 86.1468 167.116 86.1253 167.204C86.1253 168.613 86.1253 170.022 86.1253 171.425C86.094 171.618 86.1394 171.814 86.2522 171.976C86.365 172.137 86.5369 172.251 86.7332 172.294C89.3411 173.105 91.9429 173.938 94.5508 174.749C95.1587 174.948 95.3957 174.801 95.4261 174.161C95.4869 172.852 95.5781 171.543 95.5599 170.234C95.5599 169.576 95.7726 169.494 96.338 169.646C98.9033 170.421 101.475 171.179 104.04 171.942C105.256 172.312 106.472 172.682 107.73 173.022C107.817 173.036 107.901 173.066 107.976 173.112C108.051 173.157 108.116 173.217 108.166 173.287C108.217 173.357 108.252 173.436 108.27 173.52C108.288 173.604 108.288 173.69 108.271 173.774C108.155 177.191 108.101 180.608 107.949 184.025C107.839 186.479 107.736 188.934 107.663 191.388C107.572 194.323 107.456 197.259 107.353 200.23C107.274 202.543 107.177 204.862 107.092 207.176C106.982 210.24 106.867 213.305 106.763 216.37C106.721 217.585 106.69 218.801 106.654 220.016C106.654 220.815 106.605 220.844 105.839 220.603C101.815 219.292 97.7949 217.983 93.7787 216.675C87.9632 214.797 82.1436 212.928 76.32 211.068C75.8884 210.927 75.8944 210.71 75.8944 210.399C75.9147 208.407 75.9228 206.426 75.9188 204.457Z" fill="#805A26"/>
<path d="M69.8884 203.259C71.5237 203.259 71.5054 203.259 71.548 204.827C71.548 205.737 71.6331 206.653 71.7182 207.557C71.7547 207.938 71.8945 208.326 72.4051 208.314C72.9157 208.302 72.9765 207.985 73.013 207.592C73.0738 206.893 73.6209 207.287 73.9735 207.228C74.3261 207.169 74.6178 207.304 74.5814 207.762C74.5814 208.649 74.5814 209.524 74.5814 210.434C74.5814 211.843 74.5814 211.813 75.9734 212.236C78.2591 212.941 80.5266 213.686 82.8062 214.42C85.2378 215.201 87.6694 216.006 90.1009 216.769C90.2044 216.785 90.3035 216.821 90.3926 216.875C90.4816 216.928 90.5589 216.998 90.6199 217.08C90.6809 217.163 90.7244 217.256 90.7481 217.355C90.7717 217.453 90.7749 217.555 90.7575 217.655C90.7575 220.38 90.7575 223.098 90.7575 225.822C90.7575 226.01 90.7575 226.198 90.7575 226.38C90.8122 227.466 90.8183 227.466 89.7119 227.472H84.3199C80.2956 227.472 76.2713 227.531 72.2471 227.419C69.8155 227.349 67.3839 227.366 64.9523 227.302C64.3444 227.302 63.7365 227.208 63.1286 227.196C62.6362 227.196 62.5937 226.867 62.5815 226.527C62.5207 225.194 62.4599 223.861 62.4235 222.529C62.2958 218.19 61.9493 213.857 61.9432 209.512C61.9432 208.925 61.8642 208.302 61.8338 207.692C61.8338 207.287 61.9858 207.158 62.387 207.175C63.8155 207.24 65.2441 207.281 66.6727 207.322C66.7675 207.311 66.8634 207.333 66.9434 207.383C67.0234 207.434 67.0825 207.51 67.1103 207.598C67.1311 207.679 67.1697 207.755 67.2235 207.821C67.2773 207.887 67.3451 207.941 67.4223 207.979C67.4994 208.018 67.5842 208.04 67.6709 208.044C67.7576 208.048 67.8442 208.034 67.9249 208.003C68.0806 207.957 68.2126 207.855 68.2948 207.72C68.377 207.584 68.4033 207.423 68.3687 207.269C68.1742 206.177 68.3687 205.067 68.1681 203.981C68.0708 203.423 68.1681 203.177 68.776 203.236C69.146 203.264 69.5174 203.272 69.8884 203.259V203.259Z" fill="#4F5272"/>
<path d="M92.1982 232.299C97.2378 232.908 102.32 233.126 107.396 232.951C108.192 232.951 108.994 232.868 109.791 232.804C110.168 232.774 110.289 232.845 110.253 233.262C110.095 234.906 110.113 234.912 108.368 234.929C107.446 234.922 106.524 234.971 105.608 235.076C104.909 235.164 104.715 235.416 104.909 236.068C105.161 236.925 105.531 237.744 106.01 238.505C106.305 239.019 106.733 239.451 107.251 239.759C107.77 240.068 108.362 240.242 108.97 240.266C109.548 240.296 109.657 240.542 109.578 241.029C109.462 242.004 109.371 242.985 109.298 243.965C109.298 244.306 109.146 244.411 108.806 244.388C108.298 244.355 107.788 244.355 107.28 244.388C106.593 244.435 106.32 244.793 106.569 245.386C107.177 246.871 107.456 248.521 108.545 249.819C108.621 249.924 108.675 250.044 108.704 250.17C108.732 250.296 108.734 250.426 108.709 250.553C108.49 252.936 108.273 255.318 108.058 257.698C107.973 258.632 107.876 259.565 107.815 260.499C107.785 260.957 107.614 261.139 107.104 261.127C102.806 261.004 98.5081 260.91 94.2103 260.821C93.8091 260.821 93.6571 260.692 93.6328 260.305C93.5781 259.131 93.4748 257.956 93.4201 256.782C93.2499 253.342 93.11 249.895 92.9398 246.454C92.7149 241.781 92.4535 237.078 92.1982 232.299Z" fill="#F59118"/>
<path d="M80.016 260.686C76.6361 260.686 73.2623 260.686 69.8885 260.686C69.3474 260.686 69.1894 260.51 69.1347 260.023C68.8854 257.745 68.6058 255.467 68.3383 253.183C68.2167 252.138 68.1377 251.087 67.9736 250.048C67.9128 249.625 68.0587 249.549 68.4173 249.566C68.5876 249.566 68.7578 249.566 68.928 249.566C69.5407 249.597 70.15 249.461 70.6871 249.175C71.2243 248.889 71.6677 248.463 71.9675 247.946C72.5549 247.057 73.0867 246.136 73.5601 245.186C74.0768 244.047 73.7364 243.542 72.4781 243.519C70.9948 243.519 69.5176 243.472 68.0344 243.519C67.4265 243.519 67.2016 243.366 67.1894 242.785C67.1804 242.059 67.1134 241.334 66.9888 240.618C66.8854 240.031 67.1286 240.031 67.5967 240.078C69.2635 240.242 70.9471 240.131 72.5753 239.749C74.4477 239.25 75.4932 237.988 76.0586 236.274C76.2714 235.622 76.0586 235.281 75.3656 235.035C74.5478 234.807 73.7001 234.694 72.8489 234.7C70.8915 234.553 68.928 234.483 66.9645 234.371C66.7456 234.371 66.4234 234.465 66.3566 234.142C66.2798 233.799 66.2511 233.448 66.2715 233.097C66.2715 232.968 66.5146 233.009 66.6545 233.021C71.4021 233.385 76.1498 233.608 80.9096 233.549C82.5631 233.549 84.2105 233.432 85.8518 233.279C86.3746 233.232 86.5995 233.279 86.5266 233.925C86.253 236.344 86.0889 238.775 85.87 241.2C85.6025 244.235 85.3168 247.265 85.0433 250.294C84.8326 252.607 84.6299 254.919 84.4354 257.228C84.3381 258.32 84.2226 259.418 84.1497 260.516C84.1497 260.868 83.9734 260.921 83.6451 260.915C82.4293 260.915 81.2622 260.915 80.0768 260.915L80.016 260.686Z" fill="#F59118"/>
<path d="M60.8977 182.816C60.3688 181.97 60.7518 181.571 61.4205 181.107C64.6423 178.882 68.3079 177.942 72.1498 177.473C73.5966 177.291 75.0555 177.291 76.5084 177.214C77.0008 177.185 77.1893 177.338 77.25 177.802C77.3838 178.864 77.7607 179.898 77.785 180.978C77.785 181.518 78.2531 181.565 78.6543 181.665C80.9825 182.105 83.3229 182.51 85.6512 182.957C88.7393 183.544 91.8395 184.131 94.9033 184.783C98.1556 185.499 99.6267 188.757 98.2407 191.658C96.7513 194.77 93.9854 196.079 90.8183 196.889C88.8609 197.388 86.8609 197.206 84.8791 197.124C82.6725 197.036 80.4658 196.901 78.2652 196.748C76.5753 196.625 74.8853 196.455 73.1954 196.296C73.0853 196.27 72.9791 196.23 72.8793 196.179C73.7425 195.004 74.5753 193.912 75.4142 192.803C76.3332 191.644 77.0104 190.324 77.4081 188.916C77.8762 187.155 77.244 185.616 76.0586 184.313C75.2136 183.391 73.8823 183.461 72.7881 184.395C71.32 185.66 69.9334 187.011 68.6362 188.44C67.3873 189.849 66.2704 191.362 65.2988 192.961C65.007 193.425 64.8368 193.384 64.545 193.002C64.1105 192.438 63.7568 191.82 63.4934 191.165C63.4311 190.914 63.4283 190.652 63.4851 190.4C63.542 190.148 63.657 189.912 63.8216 189.709C64.5112 188.491 65.4024 187.39 66.4599 186.45C67.931 185.152 69.2562 183.708 70.8368 182.522C71.0223 182.385 71.1574 182.194 71.222 181.977C71.2866 181.761 71.2773 181.53 71.1954 181.318C71.0553 180.79 70.7516 180.315 70.3247 179.957C69.8978 179.599 69.3682 179.376 68.8064 179.316C67.9178 179.155 67.0012 179.215 66.1438 179.492C64.1189 180.127 62.3072 181.275 60.8977 182.816Z" fill="#F59118"/>
<path d="M153.492 166.429C147.991 167.151 142.52 167.879 137.043 168.584C131.067 169.359 125.079 170.11 119.098 170.885C116.058 171.279 113.019 171.695 109.979 172.101C109.669 172.168 109.347 172.168 109.037 172.101L97.0066 168.513C96.9081 168.475 96.8126 168.43 96.7209 168.378L104.624 167.204L117.566 165.307C121.906 164.673 126.246 164.051 130.581 163.388C133.45 162.953 136.344 162.654 139.182 162.049C139.347 162.022 139.516 162.043 139.669 162.108L153.273 166.218C153.371 166.247 153.468 166.264 153.492 166.429Z" fill="#CEA269"/>
<path d="M177 51.5104L173.383 52.7317C165.583 55.3796 157.711 57.8397 150.064 60.8751C147.796 61.7734 145.553 62.7305 143.31 63.6699C142.38 64.0574 142.386 64.075 141.851 63.2589C140.164 60.7566 138.302 58.3692 136.277 56.1135C137.76 55.6321 139.164 55.1389 140.593 54.722C145.172 53.3568 149.825 52.2356 154.532 51.3637C156.86 50.9361 159.209 50.6284 161.571 50.4419C163.863 50.2716 166.149 50.025 168.447 49.9311C169.949 49.892 171.45 50.036 172.915 50.3597C174.314 50.6046 175.683 50.9903 177 51.5104V51.5104Z" fill="#B94705"/>
<path d="M138.003 161.826L126.702 163.47L109.943 165.936C105.268 166.623 100.593 167.321 95.9124 167.985C95.3045 168.073 95.1587 168.308 95.1465 168.848C95.0979 170.492 94.9884 172.13 94.9216 173.774C94.9216 174.167 94.8304 174.302 94.3684 174.15C91.9368 173.363 89.5356 172.606 87.1101 171.854C86.9717 171.831 86.848 171.757 86.7652 171.647C86.6824 171.538 86.6469 171.401 86.6664 171.267C86.6907 169.646 86.6907 168.028 86.6664 166.411C86.6664 166.036 86.7697 165.871 87.1709 165.824C93.2499 164.987 99.3288 164.137 105.408 163.276L122.83 160.798C125.541 160.411 128.259 160.029 130.97 159.624C131.21 159.606 131.452 159.642 131.675 159.73L137.997 161.597C138.106 161.679 138.106 161.75 138.003 161.826Z" fill="#F5D7AE"/>
<path d="M81.2986 160.998C79.5297 161.25 77.7546 161.491 75.9856 161.761C75.0799 161.896 74.8063 162.166 74.7698 162.976C74.6449 164.474 74.7993 165.982 75.2258 167.427C75.6878 168.754 75.5662 170.186 75.9613 171.537C76.089 171.977 75.706 171.836 75.5115 171.836C74.2288 171.871 72.9461 171.836 71.6574 171.959C67.6422 172.277 63.7025 173.196 59.9797 174.684C59.8217 174.748 59.6697 174.819 59.5117 174.877C59.4673 174.883 59.4223 174.883 59.3779 174.877C58.8706 172.77 58.8877 170.576 59.4276 168.475C59.9676 166.375 61.0151 164.428 62.4843 162.794C63.3475 161.779 64.1803 160.745 65.1043 159.782C65.2026 159.666 65.3327 159.578 65.4799 159.529C65.6271 159.481 65.7855 159.473 65.9371 159.506C69.431 160.048 72.9513 160.416 76.4841 160.61C77.7931 160.692 79.1021 160.735 80.4111 160.739C80.6725 160.939 81.1163 160.563 81.2986 160.998Z" fill="#F66613"/>
<path d="M78.1133 162.713C82.2834 162.125 86.4475 161.503 90.6177 160.91C95.0006 160.282 99.3896 159.665 103.773 159.031L116.994 157.111C118.24 156.929 119.487 156.765 120.733 156.571C120.949 156.547 121.169 156.576 121.371 156.653L129.572 159.078C129.682 159.135 129.788 159.199 129.888 159.272L125.748 159.859L113.231 161.62L100.788 163.382C96.6358 163.969 92.4839 164.556 88.3441 165.143C87.2062 165.364 86.0289 165.303 84.9217 164.967C82.6786 164.216 80.3868 163.605 78.1133 162.936C78.0956 162.922 78.0813 162.906 78.0715 162.886C78.0616 162.867 78.0565 162.846 78.0565 162.824C78.0565 162.803 78.0616 162.781 78.0715 162.762C78.0813 162.743 78.0956 162.726 78.1133 162.713V162.713Z" fill="#CEA269"/>
<path d="M92.1009 222.153C92.1009 220.844 92.1009 219.529 92.1009 218.214C92.1009 217.58 92.2407 217.462 92.8669 217.674C97.2924 219.135 101.736 220.545 106.149 222.03C107.005 222.281 107.911 222.323 108.788 222.153C110.775 221.895 112.763 221.648 114.745 221.361C115.225 221.29 115.426 221.408 115.426 221.883C115.426 223.263 115.426 224.649 115.426 226.034C115.426 226.657 114.982 226.621 114.593 226.621C113.554 226.68 112.514 226.674 111.475 226.745C109.651 226.874 107.827 226.798 106.003 226.95C104.022 227.12 102.028 227.12 100.052 227.132C98.0242 227.189 95.9944 227.132 93.9732 226.962C93.5392 226.917 93.102 226.907 92.6663 226.933C92.2104 226.933 92.0584 226.768 92.0888 226.345C92.0888 224.942 92.0888 223.533 92.0888 222.124L92.1009 222.153Z" fill="#4F5272"/>
<path d="M31.8099 153.001C29.6215 153.734 27.6255 154.92 25.9619 156.477C23.477 158.725 21.4483 161.401 19.9802 164.368C19.8281 164.61 19.7365 164.884 19.7127 165.166C19.7127 166.076 19.2629 165.918 18.6185 165.753C17.6406 165.491 16.6481 165.281 15.6459 165.125C15.2994 165.067 15.1474 164.973 15.1171 164.614C14.5517 158.743 16.6125 153.882 21.3237 150.06C21.5895 149.798 21.9316 149.622 22.3043 149.553C22.677 149.485 23.0624 149.529 23.4087 149.678C26.0896 150.559 28.8312 151.287 31.3114 152.713L31.8099 153.001Z" fill="#F69118"/>
<path d="M43.6152 203.952C42.0653 202.343 40.6275 200.637 39.3113 198.844C38.9709 198.386 38.7034 197.899 38.3204 197.458C37.9374 197.018 38.0894 196.871 38.3751 196.49C41.578 192.593 45.859 189.653 50.7215 188.011C51.9373 187.565 51.9373 187.571 52.606 188.716C53.163 189.81 53.8137 190.856 54.5512 191.845C54.8248 192.204 54.8248 192.362 54.3993 192.62C51.1347 194.492 48.2657 196.942 45.9434 199.842C45.0142 201.126 44.2335 202.504 43.6152 203.952V203.952Z" fill="#F59118"/>
<path d="M34.3934 189.755C33.439 187.677 32.6184 185.645 31.8463 183.555C31.7308 183.256 31.9011 183.126 32.0652 182.968C35.9326 179.023 40.6181 175.91 45.8158 173.832C46.2413 173.662 46.3933 173.727 46.5331 174.143C47.2079 176.093 47.913 178.042 48.6182 180.015C48.7519 180.367 48.6972 180.52 48.3082 180.684C46.3264 181.5 44.3994 182.445 42.4845 183.408C39.376 184.981 36.625 187.139 34.3934 189.755V189.755Z" fill="#F59118"/>
<path d="M77.9795 232.287C76.2227 232.375 73.8458 232.204 71.475 232.099C68.9888 231.987 66.5085 231.746 64.0222 231.558C63.4934 231.512 63.1165 231.3 63.0678 230.701C63.0071 229.915 62.8916 229.128 62.8004 228.353C62.7517 227.959 62.8612 227.766 63.3414 227.766C67.3657 227.836 71.396 227.801 75.4203 227.959C79.4446 228.118 83.3776 228.047 87.3533 228.012C88.3685 228.012 89.3897 227.971 90.3928 227.918C90.7575 227.918 90.9155 228.03 90.9095 228.4C90.9095 229.292 90.9095 230.161 90.9095 231.077C90.9264 231.16 90.9228 231.245 90.899 231.326C90.8752 231.407 90.8319 231.482 90.7727 231.544C90.7134 231.605 90.6398 231.653 90.5579 231.682C90.4761 231.711 90.3882 231.721 90.3016 231.711C88.3745 231.858 86.4414 231.987 84.5144 232.146C82.5874 232.304 80.5935 232.275 77.9795 232.287Z" fill="#4F5272"/>
<path d="M27.8828 174.256C27.2462 173.165 26.5523 172.107 25.8038 171.085C25.7235 170.983 25.68 170.858 25.68 170.73C25.68 170.602 25.7235 170.477 25.8038 170.375C26.529 168.914 27.3409 167.494 28.2354 166.124C29.1725 164.743 30.419 163.583 31.8828 162.73C33.9317 161.475 36.0686 160.359 38.2779 159.389C38.3459 159.348 38.4219 159.319 38.5015 159.306C38.581 159.293 38.6625 159.295 38.7411 159.312C38.8198 159.33 38.894 159.362 38.9596 159.408C39.0251 159.453 39.0806 159.511 39.1228 159.577C40.4971 161.25 41.7041 163.045 42.7277 164.938C42.9526 165.366 42.8736 165.525 42.4237 165.648C40.2394 166.325 38.11 167.157 36.053 168.138C32.9398 169.639 30.1635 171.718 27.8828 174.256V174.256Z" fill="#F59117"/>
<path d="M60.7396 187.348C61.1651 188.693 61.6028 190.026 62.1195 191.341C62.6041 192.654 63.4253 193.828 64.5063 194.752C65.5874 195.676 66.8932 196.32 68.3018 196.625C70.1612 197.155 72.0719 197.499 74.0039 197.652C74.4476 197.652 74.6483 197.823 74.6118 198.292C74.5753 199.279 74.5814 200.265 74.6118 201.228C74.6118 201.58 74.5024 201.739 74.1315 201.762C73.3595 201.821 72.5936 201.956 71.8215 201.974C69.39 202.015 66.9584 202.115 64.5268 201.974C63.5111 201.961 62.5239 201.648 61.698 201.077C60.872 200.506 60.2469 199.704 59.9068 198.78C59.6598 198.166 59.5641 197.504 59.6271 196.848C59.8217 193.672 60.0892 190.501 60.46 187.337C60.4728 187.311 60.4933 187.289 60.5189 187.274C60.5444 187.259 60.574 187.252 60.6038 187.253C60.6336 187.254 60.6624 187.264 60.6866 187.281C60.7107 187.298 60.7292 187.321 60.7396 187.348V187.348Z" fill="#F66613"/>
<path d="M103.426 231.711C100.756 231.741 98.0858 231.641 95.4261 231.412C94.4839 231.353 93.5477 231.218 92.6116 231.13C92.338 231.13 92.2347 230.989 92.2286 230.731C92.2286 229.797 92.1556 228.864 92.1131 227.93C92.1131 227.507 92.2286 227.413 92.721 227.431C96.0219 227.542 99.3167 227.736 102.618 227.595C104.94 227.496 107.268 227.384 109.59 227.319C111.31 227.272 113.025 227.161 114.739 227.049C115.268 227.049 115.481 227.155 115.456 227.701C115.414 228.617 115.456 229.533 115.456 230.449C115.456 230.819 115.365 230.989 114.94 231.036C113.231 231.194 111.535 231.412 109.827 231.564C107.697 231.72 105.561 231.769 103.426 231.711V231.711Z" fill="#4F5272"/>
<path d="M58.9098 199.719C59.2845 200.405 59.7595 201.036 60.3202 201.592C60.3838 201.644 60.4347 201.708 60.4694 201.781C60.5041 201.854 60.5216 201.934 60.5208 202.014C60.5512 203.94 60.5998 205.86 60.6363 207.78C60.6441 207.967 60.6022 208.153 60.5147 208.32C59.3962 210.528 58.3202 212.759 57.3719 215.043C57.2017 215.466 57.0436 215.495 56.6606 215.26C54.8633 214.237 53.1482 213.085 51.53 211.814C51.3621 211.707 51.244 211.541 51.2009 211.351C51.1578 211.161 51.193 210.963 51.299 210.798C52.5148 207.956 54.4844 205.608 56.2898 203.165C57.1226 201.997 58.0102 200.887 58.9098 199.719Z" fill="#F59118"/>
<path d="M76.6422 261.984C78.8731 261.984 81.1041 261.984 83.329 261.984C83.87 261.984 83.9369 262.16 83.9369 262.63C83.7789 264.027 83.633 265.424 83.5418 266.827C83.5114 267.274 83.3594 267.368 82.9339 267.35C80.5347 267.28 78.1356 267.219 75.7364 267.168C74.0647 267.133 72.3869 267.103 70.7152 267.086C70.1863 267.086 69.9735 266.898 69.9249 266.346C69.8094 264.996 69.6149 263.651 69.4082 262.307C69.3292 261.819 69.4933 261.719 69.9675 261.719C72.1984 261.719 74.4294 261.719 76.6543 261.719L76.6422 261.984Z" fill="#FEFEFE"/>
<path d="M100.593 262.183C102.727 262.183 104.848 262.183 106.994 262.183C107.432 262.183 107.651 262.254 107.602 262.77C107.42 264.121 107.292 265.471 107.177 266.827C107.14 267.191 106.994 267.285 106.636 267.279C102.583 267.209 98.5304 267.152 94.4778 267.109C94.0827 267.109 93.9976 266.98 93.9793 266.628C93.9185 265.227 93.8334 263.823 93.724 262.418C93.6936 261.984 93.8152 261.866 94.2772 261.872C96.3866 261.872 98.496 261.872 100.605 261.872L100.593 262.183Z" fill="#FEFEFE"/>
<path d="M60.229 180.378C59.925 179.11 59.7062 177.889 59.5056 176.668C59.4387 176.263 59.6636 176.18 59.9372 176.081C62.8025 174.871 65.8155 174.019 68.9036 173.544C71.1348 173.221 73.3894 173.074 75.6452 173.104C76.095 173.104 76.3564 173.168 76.4051 173.691C76.4912 174.27 76.611 174.845 76.7637 175.411C76.861 175.822 76.7637 175.998 76.2713 175.998C74.0673 176.045 71.8694 176.241 69.6939 176.585C66.4107 177.111 63.2933 178.347 60.5755 180.202C60.4843 180.249 60.3931 180.284 60.229 180.378Z" fill="#F66613"/>
<path d="M142.392 106.489C141.827 106.647 141.401 107.076 140.806 107.199C140.221 107.446 139.56 107.461 138.964 107.242C138.368 107.022 137.886 106.585 137.62 106.025C137.362 105.439 137.319 104.784 137.499 104.171C137.68 103.558 138.072 103.023 138.611 102.655C138.745 102.561 138.909 102.496 139.043 102.397C140.306 101.824 141.643 101.417 143.018 101.187C143.426 101.131 143.842 101.158 144.238 101.269C144.634 101.379 145.002 101.569 145.316 101.827C146.258 102.614 146.532 103.665 146.052 104.54L144.617 106.078C143.942 106.565 143.152 106.489 142.392 106.489Z" fill="#FEA172"/>
<path d="M67.0131 204.721C67.0131 206.077 67.0131 206.095 65.6149 206.066C64.5268 206.066 63.4447 205.972 62.3566 205.937C62.0587 205.937 61.9189 205.831 61.9129 205.526C61.8825 204.733 61.8277 203.94 61.7913 203.148C61.7913 202.86 61.7913 202.608 62.229 202.778C63.4195 203.176 64.6795 203.343 65.9371 203.271C67.0009 203.271 67.0009 203.271 67.0131 204.298C67.0192 204.439 67.0131 204.58 67.0131 204.721Z" fill="#7D6255"/>
<path d="M74.6057 204.539V204.886C74.6057 206.166 74.6057 206.131 73.2866 205.978C72.8975 205.937 72.8732 205.778 72.861 205.502C72.8883 204.852 72.8455 204.201 72.7334 203.559C72.6665 203.306 72.7334 203.107 73.086 203.095C73.4385 203.083 73.7547 203.025 74.0829 202.978C74.4112 202.931 74.63 203.036 74.6118 203.418C74.5936 203.8 74.6057 204.181 74.6057 204.539Z" fill="#7D6154"/>
<path d="M24.8981 125.928C24.3935 126.48 23.8525 127.014 23.8525 127.824C23.5595 127.08 23.3437 126.309 23.2081 125.523L24.8981 125.928Z" fill="#F9F6F0"/>
<path d="M142.392 106.489C143.091 106.148 143.881 106.26 144.617 106.078C144.526 106.306 144.375 106.508 144.179 106.665C143.889 106.777 143.575 106.819 143.263 106.789C142.952 106.758 142.653 106.655 142.392 106.489V106.489Z" fill="#F89845"/>
<path d="M146.052 104.557C146.41 103.5 145.979 102.643 145.316 101.845C146.301 102.32 146.422 103.207 146.477 104.123C146.38 104.303 146.233 104.454 146.052 104.557V104.557Z" fill="#FA9B56"/>
<path d="M81.2986 160.997C81.0798 160.681 80.6907 160.997 80.4172 160.739H82.7576C82.2911 160.908 81.797 160.995 81.2986 160.997V160.997Z" fill="#7E3813"/>
<path d="M60.7396 187.348H60.4843V186.878C60.5721 186.921 60.6438 186.989 60.6895 187.073C60.7353 187.158 60.7528 187.253 60.7396 187.348Z" fill="#B84E13"/>
<path d="M25.6519 126.063C25.3966 126.063 25.1048 126.18 24.892 125.929C25.1536 125.899 25.4183 125.946 25.6519 126.063Z" fill="#F9F6F0"/>
<path d="M78.1133 162.712V162.958C77.9674 162.958 77.7789 162.958 77.785 162.8C77.7911 162.642 77.9917 162.718 78.1133 162.712Z" fill="#9C7146"/>
<path d="M138.003 161.825V161.585C138.155 161.585 138.337 161.585 138.331 161.743C138.325 161.901 138.125 161.836 138.003 161.825Z" fill="#9B785B"/>
<path d="M49.2261 115.66V115.8C48.9985 115.776 48.7852 115.682 48.6182 115.53C48.7229 115.505 48.8324 115.504 48.9378 115.526C49.0433 115.548 49.1419 115.594 49.2261 115.66Z" fill="#C09D7C"/>
<path d="M113.42 109.901C114.484 111.075 114.575 111.879 113.833 113.288C113.19 114.369 112.325 115.312 111.292 116.06C110.83 116.435 110.909 116.617 111.323 116.94C113.663 118.778 116.271 119.999 119.341 120.011C120.621 119.955 121.847 119.495 122.83 118.7C123.813 117.906 124.499 116.821 124.781 115.613C124.848 115.267 124.982 115.026 125.389 115.026C125.797 115.026 125.924 115.402 125.9 115.748C125.799 116.447 125.526 117.111 125.104 117.686C124.879 118.103 124.585 118.481 124.234 118.807C123.894 119.064 123.628 119.402 123.464 119.788C123.3 120.174 123.243 120.595 123.298 121.009C123.293 121.547 123.253 122.085 123.177 122.618C123.126 123.372 122.875 124.101 122.45 124.735C122.024 125.369 121.437 125.888 120.745 126.24C120.602 126.318 120.481 126.428 120.392 126.561C120.303 126.694 120.249 126.846 120.234 127.004C119.738 130.5 118.593 133.881 116.854 136.985C115.656 139.087 114.041 140.94 112.101 142.439C109.566 144.4 106.672 144.435 103.669 143.772C100.849 143.15 98.9397 141.424 97.5173 139.075C95.3125 135.588 93.8262 131.722 93.1404 127.691C93.1231 127.506 93.066 127.327 92.9728 127.166C92.8796 127.004 92.7524 126.863 92.5994 126.751C90.8243 125.448 89.5599 123.816 89.5113 121.579C89.5113 121.232 89.2317 121.191 89.0189 121.062C88.3106 120.665 87.7339 120.081 87.356 119.38C86.9782 118.678 86.8149 117.887 86.8852 117.099C86.9169 116.939 86.9722 116.785 87.0493 116.641C87.1046 116.567 87.1822 116.512 87.2715 116.482C87.3608 116.453 87.4573 116.451 87.5478 116.476C87.7027 116.51 87.8413 116.593 87.9408 116.713C88.0402 116.832 88.0945 116.981 88.0949 117.134C88.1435 117.457 88.2104 117.786 88.2894 118.103C88.3821 118.578 88.608 119.02 88.9423 119.38C89.2767 119.74 89.7068 120.005 90.1861 120.146C91.6081 120.548 93.0683 120.812 94.5447 120.933C96.0135 121.109 97.4985 121.121 98.9702 120.968C101.88 120.587 104.601 119.358 106.769 117.445C107.152 117.128 106.921 116.964 106.636 116.747C105.336 115.83 104.312 114.596 103.669 113.171C103.45 112.637 103.311 112.085 103.858 111.627C103.985 111.349 104.182 111.105 104.43 110.918C104.678 110.731 104.97 110.605 105.28 110.552C107.301 110.101 109.35 109.771 111.414 109.566C112.102 109.432 112.818 109.552 113.42 109.901V109.901Z" fill="#4D2512"/>
<path d="M103.815 111.667C103.672 112.005 103.62 112.373 103.665 112.735C103.709 113.098 103.849 113.444 104.07 113.74C104.854 115.138 106.027 116.297 107.456 117.086C105.936 118.575 104.092 119.72 102.058 120.438C100.024 121.156 97.8501 121.429 95.6936 121.237C93.9746 121.123 92.2685 120.87 90.5933 120.48C88.8426 120.057 88.0767 119.171 87.9308 117.427C87.9308 117.033 87.8821 116.669 87.4262 116.511C87.3776 116.476 87.3654 116.446 87.3837 116.417C87.4019 116.388 87.4201 116.376 87.4384 116.376C92.8597 115.421 98.1517 113.877 103.213 111.773C103.396 111.685 103.578 111.497 103.815 111.667Z" fill="#FCFAF4"/>
<path d="M71.9431 101.011C72.2982 100.422 72.8023 99.929 73.4082 99.5787C75.2987 98.2695 77.2683 97.1657 79.7181 97.2302C82.7576 97.2772 84.3746 99.8606 82.9947 102.485C81.6147 105.109 77.5236 107.84 73.5905 107.364C73.116 107.337 72.6581 107.186 72.266 106.926C71.874 106.666 71.5627 106.308 71.3656 105.89C70.8863 104.934 70.7931 103.839 71.1042 102.82C71.6088 102.82 72.0829 102.996 72.5997 102.978C72.8896 102.98 73.1746 102.905 73.4233 102.761C73.6721 102.617 73.875 102.41 74.01 102.162C74.1382 102.02 74.2152 101.841 74.2294 101.652C74.2437 101.464 74.1944 101.276 74.089 101.117C73.8154 100.776 73.4325 100.806 73.0313 100.876C72.63 100.947 72.3504 101.246 71.9431 101.011Z" fill="#4D2512"/>
<path d="M125.177 100.03C123.383 99.2139 121.943 98.0925 121.675 96.0493C121.395 93.8476 122.186 92.5265 124.459 92.2154C125.917 92.0009 127.406 92.0789 128.831 92.4446C130.257 92.8103 131.589 93.4557 132.745 94.3408C134.909 95.9906 134.623 98.5387 132.246 99.9185C131.616 100.317 130.912 100.594 130.173 100.735C129.894 100.887 129.566 100.699 129.274 100.858H128.982C128.69 100.705 128.374 100.858 128.064 100.74C127.733 100.782 127.397 100.752 127.079 100.652C126.891 100.359 126.55 100.623 126.332 100.453C126.186 100.453 126.028 100.494 125.906 100.371C125.736 100.112 125.408 100.165 125.177 100.03Z" fill="#4C2411"/>
<path d="M64.1073 113.535C63.5374 113.66 62.9525 113.709 62.3688 113.681C61.153 113.828 59.9736 113.846 58.7943 114.04C58.4085 114.093 58.0159 114.005 57.694 113.793C57.2955 113.513 56.9734 113.145 56.7552 112.718C56.5371 112.292 56.4295 111.82 56.4418 111.345C56.5198 110.87 56.7543 110.433 57.1102 110.098C57.4661 109.762 57.9246 109.547 58.4174 109.483C59.3948 109.427 60.3687 109.323 61.3353 109.172C61.6541 109.037 62.0046 108.986 62.3505 109.026C62.9178 108.919 63.5 108.909 64.0709 108.996C64.5631 109.086 65.0148 109.32 65.3641 109.667C65.7133 110.013 65.9432 110.456 66.0222 110.934C66.0813 111.389 65.9969 111.851 65.78 112.26C65.5631 112.668 65.2238 113.004 64.8064 113.223C64.5997 113.359 64.3444 113.429 64.1073 113.535Z" fill="#FEA172"/>
<path d="M112.441 70.7974C112.712 71.4865 112.764 72.2381 112.589 72.9557C112.415 73.6734 112.022 74.3243 111.462 74.8251C111.046 75.1368 110.519 75.2776 109.996 75.2172C109.472 75.1568 108.995 74.8999 108.666 74.5021C108.551 74.7781 108.429 75.0423 108.326 75.3182C107.165 78.4124 102.648 78.1423 101.031 75.9054C100.356 74.9601 100.344 74.966 99.4261 75.7586C97.9489 77.0385 96.3866 77.1971 94.7635 76.2811C93.9649 75.7409 93.3579 74.9763 93.0249 74.0912C92.9817 74.0327 92.9622 73.961 92.97 73.8896C92.9779 73.8182 93.0125 73.752 93.0675 73.7036C93.262 73.5569 93.3897 73.7036 93.493 73.8328C93.9637 74.4035 94.536 74.8886 95.183 75.2654C96.496 75.9993 97.7969 76.1578 99.1282 75.2654C100.241 74.508 100.447 74.5608 101.432 75.4592C103.055 76.9563 106.739 77.3027 108.119 74.3612C108.326 73.9209 108.599 73.9209 108.988 74.144C109.143 74.2573 109.32 74.3379 109.509 74.3805C109.698 74.4232 109.894 74.4269 110.084 74.3914C110.275 74.356 110.455 74.2822 110.614 74.1748C110.773 74.0674 110.907 73.9289 111.006 73.7682C111.673 73.0456 112.097 72.1449 112.222 71.1849C112.247 71.0029 112.271 70.8561 112.441 70.7974Z" fill="#4D2512"/>
<path d="M79.9066 117.574C80.1619 117.639 80.4233 117.703 80.6786 117.779C81.0737 117.903 81.554 118.014 81.3777 118.554C81.2014 119.095 80.7698 118.93 80.3929 118.825L77.396 117.985C77.2318 117.944 77.0616 117.915 76.8975 117.885L69.0982 115.666C68.9584 115.625 68.8246 115.578 68.6848 115.543C68.314 115.454 68.0222 115.267 68.1134 114.867C68.2046 114.468 68.5997 114.433 68.9401 114.527C70.2046 114.856 71.4629 115.202 72.7212 115.554L79.9066 117.574Z" fill="#4D2512"/>
<path d="M140.994 109.196C140.987 109.348 140.932 109.495 140.837 109.617C140.741 109.738 140.609 109.829 140.459 109.877L131.049 113.881C130.696 114.034 130.307 114.139 130.1 113.722C129.894 113.305 130.259 113.059 130.617 112.894L133.049 111.832C133.134 111.685 133.292 111.656 133.438 111.603C133.584 111.55 133.796 111.526 133.961 111.438C135.918 110.616 137.871 109.791 139.821 108.961C140.283 108.767 140.702 108.638 140.994 109.196Z" fill="#4D2612"/>
<path d="M122.569 77.6431C125.31 77.7312 128.04 77.9366 130.623 78.9465C131.055 79.1168 131.839 79.1931 131.566 79.8624C131.292 80.5318 130.702 80.1032 130.259 79.9446C127.459 78.9978 124.498 78.5773 121.535 78.7058C121.294 78.7234 121.053 78.7234 120.812 78.7058C120.502 78.6647 120.204 78.5238 120.246 78.1715C120.246 78.0998 120.26 78.0288 120.289 77.9627C120.317 77.8966 120.36 77.8369 120.413 77.7874C120.467 77.7378 120.53 77.6994 120.6 77.6746C120.67 77.6498 120.744 77.6391 120.818 77.6431C121.401 77.6255 121.985 77.6431 122.569 77.6431Z" fill="#4D2512"/>
<path d="M78.636 78.8936C79.0859 78.8936 79.3777 78.9405 79.4081 79.3045C79.4385 79.6686 79.1528 79.8506 78.8002 79.9269C76.7403 80.3827 74.7656 81.1432 72.9461 82.1815C72.1383 82.659 71.3719 83.1989 70.6544 83.7961C70.4659 83.9429 70.2836 84.0955 70.089 84.2364C69.8945 84.3773 69.5176 84.5476 69.2501 84.2364C68.9827 83.9252 69.1346 83.6493 69.4143 83.3968C70.628 82.3148 71.9879 81.3964 73.4568 80.6667C74.9212 79.9312 76.4697 79.3637 78.0707 78.9758C78.2895 78.9288 78.5266 78.8936 78.636 78.8936Z" fill="#4D2512"/>
<path d="M71.9431 101.011C72.3188 100.86 72.7023 100.729 73.092 100.617C73.3051 100.545 73.5361 100.538 73.7536 100.596C73.9711 100.655 74.1646 100.777 74.3078 100.946C74.4281 101.108 74.4927 101.302 74.4927 101.501C74.4927 101.7 74.4281 101.894 74.3078 102.056C73.6999 103.265 72.4416 103.559 71.1346 102.79C70.7942 101.944 70.8671 101.756 71.9431 101.011Z" fill="#FEFDFD"/>
<path d="M61.3353 109.178C60.5437 109.446 59.7041 109.556 58.8673 109.501C58.5457 109.513 58.2301 109.589 57.9396 109.722C57.6491 109.856 57.3897 110.045 57.1771 110.278C56.9645 110.512 56.8032 110.784 56.7029 111.08C56.6027 111.375 56.5655 111.687 56.5937 111.996C56.5937 113.03 58.1317 114.11 59.232 113.934C60.2646 113.737 61.3169 113.655 62.3687 113.687C61.9189 113.957 61.3961 113.84 60.9159 113.934C60.1865 114.034 59.4518 114.093 58.7153 114.11C57.1469 114.339 56.1378 113.817 55.7427 112.566C55.3232 111.221 55.8947 110.217 57.4022 109.63C58.6919 109.339 60.011 109.188 61.3353 109.178V109.178Z" fill="#FEA06F"/>
<path d="M64.1073 113.534C64.5445 113.257 64.9518 112.938 65.3231 112.583C65.5862 112.324 65.7618 111.994 65.8269 111.636C65.892 111.279 65.8435 110.911 65.6879 110.581C65.2927 109.718 64.7092 109.066 63.6453 109.031C63.2077 109.031 62.77 109.031 62.3323 109.031C63.9432 108.62 65.4204 109.031 65.9797 110.099C66.18 110.435 66.289 110.814 66.2967 111.202C66.3043 111.589 66.2103 111.972 66.0234 112.315C65.8365 112.658 65.5628 112.949 65.2278 113.163C64.8927 113.376 64.5073 113.504 64.1073 113.534Z" fill="#FC9D5C"/>
<path d="M57.4022 109.606C56.8491 109.894 56.3806 110.312 56.0406 110.822C55.8647 111.168 55.7826 111.551 55.8018 111.936C55.8211 112.321 55.9411 112.694 56.1506 113.022C56.3601 113.35 56.6523 113.621 56.9998 113.811C57.3474 114 57.7389 114.101 58.1378 114.104H58.7092C58.391 114.227 58.0499 114.285 57.7073 114.274C57.3647 114.264 57.0281 114.186 56.7183 114.044C56.4085 113.903 56.1323 113.701 55.9069 113.451C55.6815 113.202 55.5118 112.911 55.4083 112.595C55.3098 112.271 55.2845 111.931 55.3343 111.597C55.3842 111.263 55.5079 110.943 55.6971 110.66C55.8863 110.376 56.1365 110.135 56.4308 109.954C56.725 109.772 57.0564 109.653 57.4022 109.606Z" fill="#FC9D5C"/>
<path d="M139.043 102.414C138.379 102.915 137.868 103.581 137.565 104.34C137.043 105.919 138.964 107.863 140.52 107.229C140.614 107.214 140.711 107.214 140.806 107.229C140.237 107.515 139.575 107.574 138.963 107.391C138.35 107.209 137.837 106.8 137.535 106.254C136.842 104.798 137.511 102.837 139.043 102.414Z" fill="#FD9F68"/>
<path d="M133.48 111.679L133.043 111.832C132.927 111.685 132.745 111.738 132.593 111.697C132.828 111.582 133.09 111.53 133.353 111.544C133.48 111.526 133.529 111.567 133.48 111.679Z" fill="#E7DCD2"/>
<path d="M125.177 100.03C125.474 100.03 125.784 100.03 125.906 100.371C125.638 100.314 125.389 100.198 125.177 100.03V100.03Z" fill="#4D2512"/>
<path d="M128.064 100.741C128.368 100.741 128.702 100.618 128.982 100.864C128.67 100.912 128.35 100.869 128.064 100.741Z" fill="#4D2512"/>
<path d="M129.274 100.858C129.547 100.618 129.882 100.764 130.173 100.735C129.895 100.869 129.58 100.912 129.274 100.858V100.858Z" fill="#4D2512"/>
<path d="M87.4384 116.376C87.4443 116.421 87.4443 116.466 87.4384 116.511L87.0189 116.652V116.482C87.073 116.43 87.1403 116.393 87.2139 116.374C87.2876 116.356 87.365 116.356 87.4384 116.376V116.376Z" fill="#F1D8BC"/>
<path d="M133.48 111.678L133.353 111.544C133.535 111.386 133.748 111.439 133.961 111.439C133.835 111.57 133.665 111.655 133.48 111.678V111.678Z" fill="#C9A681"/>
<path d="M126.332 100.453C126.587 100.494 126.903 100.307 127.079 100.652L126.332 100.453Z" fill="#4D2512"/>
<path d="M69.8641 134.084C69.5298 134.084 69.3717 133.996 69.2562 133.82C69.1922 133.729 69.1654 133.619 69.1811 133.511C69.1969 133.402 69.254 133.303 69.3413 133.233C69.5078 133.1 69.6918 132.99 69.8884 132.904L81.3533 127.409C81.5014 127.328 81.6559 127.26 81.8153 127.203C81.9392 127.15 82.0795 127.144 82.2073 127.188C82.3352 127.232 82.4408 127.321 82.5022 127.438C82.5365 127.494 82.5587 127.557 82.5675 127.622C82.5763 127.686 82.5714 127.752 82.5533 127.815C82.5351 127.878 82.504 127.937 82.4618 127.988C82.4197 128.039 82.3672 128.082 82.3077 128.113C82.1681 128.205 82.0195 128.284 81.864 128.348L70.4051 133.843C70.2106 133.973 69.9857 134.084 69.8641 134.084Z" fill="#4D2513"/>
<path d="M80.557 122.2C80.8914 122.2 81.1953 122.306 81.2014 122.699C81.2075 123.093 80.8974 123.234 80.5266 123.286C78.861 123.463 77.2014 123.65 75.5358 123.821C73.007 124.091 70.4781 124.349 67.9432 124.613H67.7973C67.4022 124.649 67.0313 124.613 67.0009 124.12C66.9706 123.627 67.3049 123.574 67.6696 123.533C69.3596 123.357 71.0435 123.169 72.7334 122.999L80.1862 122.235L80.557 122.2Z" fill="#4D2513"/>
<path d="M131.116 119.077C130.781 119.077 130.508 118.977 130.471 118.642C130.435 118.308 130.678 118.096 131.031 118.055L135.754 117.268C138.003 116.904 140.246 116.552 142.489 116.182C142.897 116.112 143.267 116.124 143.365 116.558C143.462 116.993 143.116 117.145 142.72 117.227L131.547 119.048C131.401 119.053 131.255 119.065 131.116 119.077Z" fill="#4D2613"/>
<path d="M142.635 124.825L132.137 123.798C131.742 123.762 131.292 123.68 131.353 123.169C131.414 122.659 131.851 122.676 132.258 122.717L142.757 123.774C143.164 123.815 143.675 123.821 143.608 124.391C143.541 124.96 143.043 124.843 142.635 124.825Z" fill="#4D2613"/>
<path d="M134.951 192.239C134.974 192.396 134.941 192.556 134.859 192.693C134.776 192.831 134.648 192.937 134.496 192.996L123.292 199.948C122.009 200.746 120.733 201.556 119.444 202.349C118.788 202.748 118.52 202.643 118.368 201.956C117.28 197.047 116.204 192.127 115.092 187.219C115.026 187.032 115.033 186.828 115.113 186.646C115.192 186.464 115.338 186.317 115.523 186.232L129.754 177.331C130.453 176.897 130.52 176.95 130.757 177.748C132.119 182.445 133.482 187.154 134.848 191.875C134.897 192.027 134.939 192.209 134.951 192.239Z" fill="#4D2512"/>
<path d="M109.566 126.786C112.551 126.742 115.514 127.275 118.283 128.353C118.563 128.465 118.788 128.524 118.696 128.94C117.651 133.467 115.73 137.495 112.295 140.877C108.648 144.482 101.645 143.284 99.1221 139.609C97.2851 136.896 95.8526 133.947 94.8668 130.849C94.7934 130.675 94.7874 130.481 94.8499 130.303C94.9125 130.125 95.0393 129.975 95.2073 129.88C97.2144 128.472 99.5218 127.515 101.961 127.079C102.529 126.941 103.115 126.888 103.7 126.921C103.845 126.921 104.004 126.962 104.058 126.78C104.113 126.598 103.997 126.521 103.894 126.416C103.419 126.012 103.046 125.508 102.806 124.942C102.587 124.355 102.545 123.832 103.189 123.468C103.833 123.104 104.222 123.222 104.745 123.85C105.621 124.889 105.62 124.889 106.307 123.727C106.489 123.479 106.753 123.3 107.056 123.221C107.359 123.142 107.681 123.167 107.967 123.292C108.184 123.43 108.335 123.645 108.389 123.89C108.442 124.135 108.393 124.391 108.253 124.602C107.991 125.153 107.645 125.67 107.335 126.199C107.086 126.621 107.195 126.786 107.7 126.786C108.35 126.774 108.958 126.786 109.566 126.786Z" fill="#FE999B"/>
<path d="M107.821 126.351L108.575 125.071C109.043 124.243 108.921 123.245 108.295 122.922C107.669 122.599 106.204 122.599 105.864 123.697C105.799 123.837 105.722 123.97 105.633 124.097C105.061 123.645 104.818 122.84 103.949 122.84C103.742 122.827 103.533 122.854 103.338 122.922C103.142 122.99 102.963 123.096 102.812 123.234C101.596 124.408 102.605 125.4 103.268 126.445C100.145 126.795 97.1701 127.924 94.6359 129.721C94.5204 129.134 94.3988 128.606 94.2954 128.066C94.2529 127.848 94.2468 127.625 94.5204 127.537C95.3532 127.279 95.3228 126.657 95.1283 126.052C94.869 125.052 94.6962 124.032 94.6115 123.005C94.5143 122.417 94.6906 122.224 95.3349 122.265C98.0279 122.423 100.666 122.265 103.183 121.179C105.039 120.358 106.745 119.252 108.234 117.902C109.134 117.11 109.742 117.057 110.666 117.797C112.79 119.572 115.415 120.694 118.204 121.02C118.593 121.067 118.642 121.314 118.727 121.607C119.038 122.747 118.993 123.95 118.599 125.065C118.496 125.426 118.416 125.793 118.362 126.163C118.317 126.313 118.327 126.473 118.39 126.616C118.453 126.76 118.566 126.878 118.709 126.95C119.316 127.179 119.031 127.596 118.909 127.878C118.727 128.295 118.398 127.931 118.186 127.848C115.46 126.868 112.583 126.334 109.675 126.269C109.079 126.228 108.52 126.31 107.821 126.351Z" fill="#D75255"/>
<path d="M94.034 126.498C92.7271 125.606 91.6025 124.707 90.9946 123.369C90.7514 122.834 90.3867 122.194 90.6724 121.725C90.8669 121.437 91.5964 121.807 92.0888 121.877C93.4565 122.077 93.4626 122.095 93.5295 123.451C93.6034 124.479 93.7722 125.499 94.034 126.498V126.498Z" fill="#FDFDFD"/>
<path d="M119.566 125.665C119.821 124.449 120.174 123.351 119.961 122.177C119.76 121.161 119.809 121.161 120.842 120.903C121.262 120.797 121.663 120.645 122.058 120.516C122.411 123.081 121.772 124.432 119.566 125.665Z" fill="#FDFDFD"/>
<path d="M105.9 111.585C106.247 111.632 106.569 111.732 106.575 112.172C106.581 112.242 106.572 112.312 106.547 112.378C106.523 112.445 106.484 112.505 106.433 112.555C106.382 112.605 106.321 112.644 106.253 112.669C106.185 112.694 106.112 112.705 106.04 112.701C105.669 112.701 105.353 112.595 105.317 112.19C105.28 111.785 105.517 111.638 105.9 111.585Z" fill="#F3F1F0"/>
<path d="M125.487 94.8169C126.63 95.1418 127.802 95.3658 128.988 95.4862C129.848 95.6129 130.634 96.0287 131.207 96.6605C131.317 96.7555 131.393 96.8811 131.426 97.0199C131.459 97.1588 131.446 97.304 131.389 97.4355C131.219 97.7937 130.915 97.6058 130.641 97.5882C130.336 97.5572 130.029 97.6237 129.767 97.7775C129.504 97.9312 129.301 98.1637 129.189 98.4395C129.115 98.5531 129.068 98.6807 129.051 98.8135C129.033 98.9464 129.045 99.0813 129.087 99.209C129.129 99.3368 129.198 99.4543 129.291 99.5536C129.385 99.6528 129.499 99.7315 129.626 99.784C128.259 100.401 124.411 99.0325 123.322 97.5177C123.93 97.6586 124.435 97.5764 124.538 96.9775C124.642 96.3787 124.131 96.3434 123.608 96.3023C123.882 96.0734 124.088 95.9207 124.277 95.7504C124.465 95.5802 124.35 95.5156 124.161 95.5038C124.316 95.3014 124.514 95.1348 124.744 95.0159C124.973 94.8971 125.227 94.8291 125.487 94.8169Z" fill="#4D2512"/>
<path d="M125.487 94.8163C125.093 95.1256 124.644 95.3624 124.161 95.515C123.778 95.5619 123.401 95.6383 123.018 95.65C122.819 95.6704 122.619 95.6228 122.453 95.5156C122.286 95.4083 122.164 95.2482 122.107 95.0629C122.034 94.8859 122.024 94.6905 122.079 94.5077C122.134 94.3248 122.251 94.1648 122.411 94.053C122.721 93.7703 123.101 93.5682 123.515 93.4656C123.928 93.3629 124.362 93.363 124.775 93.4659C125.529 93.7066 125.724 94.0706 125.487 94.8163Z" fill="#FDFDFD"/>
<path d="M115.566 187.072C115.511 186.796 115.718 186.696 115.9 186.579L129.766 177.907C130.125 177.678 130.228 177.754 130.338 178.136C131.675 182.759 133.022 187.376 134.38 191.986C134.489 192.356 134.38 192.521 134.052 192.709C129.189 195.707 124.325 198.717 119.462 201.739C119.031 202.009 118.885 201.973 118.781 201.48C118.058 198.157 117.31 194.846 116.575 191.499C116.267 190.125 115.959 188.755 115.651 187.389L115.566 187.072Z" fill="#F5D7AE"/>
</svg>
