<svg width="512" height="286" viewBox="0 0 512 286" fill="none" xmlns="http://www.w3.org/2000/svg">
<path d="M22.63 186V177.89L15 165.89H20.85L25.22 173.31L29.54 165.89H35.42L27.82 177.89V186H22.63Z" fill="white"/>
<path d="M36.9 186V165.93H51.64V170.45H42.08V173.59H51.43V178.11H42.08V181.52H51.64V186H36.9Z" fill="white"/>
<path d="M59.15 186V170.45H53.51V165.93H69.96V170.45H64.36V186H59.15Z" fill="white"/>
<path d="M93.8 186L92.8 183.11H84.87L83.87 186H77.96L85.53 165.89H92.07L99.68 186H93.8ZM88.8 171L86.24 178.56H91.34L88.8 171Z" fill="white"/>
<path d="M101.16 186V165.93H115.9V170.45H106.34V173.59H115.69V178.11H106.34V186H101.16Z" fill="white"/>
<path d="M118.71 186V165.93H133.45V170.45H123.9V173.59H133.24V178.11H123.9V186H118.71Z" fill="white"/>
<path d="M135.23 176C135.23 169.88 139.85 165.6 146 165.6C152.15 165.6 156.73 169.88 156.73 176C156.73 182.12 152.15 186.4 146 186.4C139.85 186.4 135.23 182.12 135.23 176ZM151.46 176C151.46 172.71 149.31 170.18 146 170.18C142.69 170.18 140.51 172.71 140.51 176C140.51 179.29 142.68 181.82 146 181.82C149.32 181.82 151.46 179.26 151.46 176Z" fill="white"/>
<path d="M170.58 186L167.2 179.25H164.54V186H159.36V165.93H169.43C173.89 165.93 176.43 168.88 176.43 172.62C176.495 173.917 176.142 175.201 175.422 176.281C174.701 177.362 173.652 178.182 172.43 178.62L176.54 186.01L170.58 186ZM171.15 172.55C171.141 172.24 171.068 171.936 170.934 171.656C170.801 171.376 170.61 171.127 170.375 170.926C170.139 170.724 169.864 170.574 169.567 170.485C169.27 170.397 168.958 170.371 168.65 170.41H164.54V174.72H168.65C168.957 174.759 169.268 174.734 169.565 174.646C169.861 174.558 170.136 174.408 170.371 174.208C170.606 174.007 170.797 173.76 170.931 173.481C171.065 173.203 171.14 172.899 171.15 172.59V172.55Z" fill="white"/>
<path d="M179.29 186V165.93H187.73C194.07 165.93 198.62 169.73 198.62 175.93C198.62 182.13 194.07 186 187.77 186H179.29ZM193.29 175.93C193.346 175.189 193.24 174.445 192.981 173.749C192.722 173.053 192.316 172.42 191.789 171.896C191.263 171.372 190.63 170.967 189.932 170.711C189.235 170.454 188.491 170.352 187.75 170.41H184.46V181.48H187.71C188.445 181.516 189.179 181.4 189.867 181.139C190.555 180.878 191.181 180.478 191.707 179.963C192.233 179.449 192.646 178.831 192.922 178.149C193.198 177.467 193.33 176.736 193.31 176L193.29 175.93Z" fill="white"/>
<path d="M213.96 186L212.96 183.11H204.96L203.96 186H198.08L205.65 165.89H212.19L219.79 186H213.96ZM209.01 171L206.45 178.56H211.55L209.01 171Z" fill="white"/>
<path d="M221.27 186V165.93H232.67C236.67 165.93 238.55 168.52 238.55 171.06C238.607 172.11 238.294 173.146 237.665 173.988C237.037 174.831 236.132 175.426 235.11 175.67C236.227 175.902 237.225 176.522 237.927 177.422C238.628 178.321 238.987 179.441 238.94 180.58C238.94 183.51 236.94 186.04 233.03 186.04L221.27 186ZM233.27 172C233.269 171.776 233.22 171.555 233.127 171.351C233.035 171.147 232.9 170.965 232.732 170.816C232.564 170.668 232.366 170.557 232.152 170.491C231.938 170.424 231.712 170.403 231.49 170.43H226.49V173.57H231.49C231.713 173.602 231.941 173.585 232.157 173.52C232.373 173.456 232.573 173.345 232.742 173.196C232.911 173.046 233.046 172.862 233.137 172.656C233.228 172.449 233.274 172.226 233.27 172V172ZM233.66 179.78C233.66 178.78 232.94 178.09 231.66 178.09H226.46V181.5H231.67C232.96 181.52 233.66 180.88 233.66 179.8V179.78Z" fill="white"/>
<path d="M241.69 186V165.93H246.87V181.52H254.96V186H241.69Z" fill="white"/>
<path d="M257.61 186V165.93H272.35V170.45H262.79V173.59H272.14V178.11H262.79V181.52H272.35V186H257.61Z" fill="white"/>
<path d="M18.3 126.71C18.3 113.17 28.51 103.71 42.11 103.71C55.71 103.71 65.86 113.18 65.86 126.71C65.9747 132.366 63.9741 137.861 60.25 142.12L63.06 145.52L55.12 151.92L51.78 147.92C48.6949 149.11 45.4166 149.72 42.11 149.72C28.51 149.72 18.3 140.25 18.3 126.71ZM44.71 139.32L40.65 134.38L48.58 128L52.78 133.07C53.7074 131.085 54.1887 128.921 54.19 126.73C54.19 119.46 49.45 113.86 42.11 113.86C34.77 113.86 29.96 119.44 29.96 126.71C29.96 133.98 34.77 139.58 42.1 139.58C42.9771 139.594 43.8529 139.507 44.71 139.32V139.32Z" fill="white"/>
<path d="M93.14 148.92V145.05C91.7222 146.587 89.9894 147.8 88.06 148.606C86.1305 149.412 84.0498 149.792 81.96 149.72C74.69 149.72 71.35 145.52 71.35 139.65V116.71H81.67V135.38C81.67 139.32 83.67 140.65 87 140.65C88.1962 140.641 89.3739 140.354 90.4397 139.81C91.5055 139.267 92.43 138.483 93.14 137.52V116.71H103.41V148.92H93.14Z" fill="white"/>
<path d="M129.89 148.92V145.72C127.89 148.12 124.02 149.72 119.89 149.72C114.96 149.72 108.82 146.32 108.82 139.12C108.82 131.31 114.96 128.71 119.89 128.71C124.16 128.71 127.96 130.11 129.89 132.51V129.31C129.89 126.51 127.49 124.58 123.35 124.58C120.036 124.638 116.849 125.864 114.35 128.04L110.55 120.91C114.682 117.587 119.848 115.818 125.15 115.91C132.89 115.91 140.15 118.77 140.15 128.78V148.92H129.89ZM129.89 140.65V137.78C128.82 136.25 126.42 135.52 124.15 135.52C121.48 135.52 119.02 136.72 119.02 139.25C119.02 141.78 121.48 142.98 124.15 142.98C126.42 143 128.82 142.18 129.89 140.65Z" fill="white"/>
<path d="M147.63 148.92V104.43H157.9V148.92H147.63Z" fill="white"/>
<path d="M164.64 107.9C164.64 106.335 165.262 104.835 166.368 103.728C167.475 102.622 168.975 102 170.54 102C172.105 102 173.605 102.622 174.712 103.728C175.818 104.835 176.44 106.335 176.44 107.9C176.44 109.465 175.818 110.965 174.712 112.072C173.605 113.178 172.105 113.8 170.54 113.8C168.975 113.8 167.475 113.178 166.368 112.072C165.262 110.965 164.64 109.465 164.64 107.9V107.9ZM165.37 148.9V116.71H175.64V148.92L165.37 148.9Z" fill="white"/>
<path d="M185.25 140.25V125.58H179.96V116.71H185.3V107.9H195.57V116.71H202.11V125.58H195.57V137.38C195.57 139.25 196.64 140.65 198.37 140.65C199.304 140.695 200.223 140.412 200.97 139.85L202.97 147.59C201.7 148.79 199.17 149.72 195.37 149.72C188.78 149.72 185.25 146.45 185.25 140.25Z" fill="white"/>
<path d="M207.96 152.32C208.749 152.713 209.618 152.919 210.5 152.92C212.83 152.92 214.3 152.46 214.9 151.12L215.63 149.39L202.72 116.71H213.53L220.86 137.12L228.13 116.71H238.96L224.43 153.52C221.82 160.33 217.02 161.86 210.82 161.99C209.339 161.969 207.864 161.791 206.42 161.46L207.96 152.32Z" fill="white"/>
<path d="M16.29 215.23C16.2412 214.116 16.4231 213.004 16.8241 211.963C17.2252 210.922 17.8368 209.976 18.6207 209.183C19.4045 208.389 20.3438 207.766 21.3796 207.353C22.4153 206.94 23.5253 206.744 24.64 206.78C26.8811 206.78 29.0303 207.67 30.615 209.255C32.1997 210.84 33.09 212.989 33.09 215.23C33.09 217.471 32.1997 219.62 30.615 221.205C29.0303 222.79 26.8811 223.68 24.64 223.68C23.5253 223.715 22.4153 223.52 21.3796 223.107C20.3438 222.694 19.4045 222.071 18.6207 221.277C17.8368 220.484 17.2252 219.538 16.8241 218.497C16.4231 217.456 16.2412 216.344 16.29 215.23V215.23ZM30.05 215.23C30.05 211.85 27.92 209.33 24.64 209.33C21.36 209.33 19.23 211.85 19.23 215.23C19.23 218.61 21.33 221.13 24.64 221.13C27.95 221.13 30.05 218.59 30.05 215.23V215.23Z" fill="white"/>
<path d="M43.65 223.39V221.82C43.121 222.401 42.4774 222.867 41.7597 223.187C41.042 223.507 40.2658 223.675 39.48 223.68C36.94 223.68 35.66 222.33 35.66 219.93V211.56H38.23V219C38.23 220.84 39.16 221.42 40.63 221.42C41.2128 221.401 41.7843 221.254 42.3031 220.987C42.8218 220.721 43.2751 220.343 43.63 219.88V211.58H46.2V223.41L43.65 223.39Z" fill="white"/>
<path d="M49.55 223.39V211.56H52.12V213.27C52.5756 212.677 53.1553 212.191 53.8187 211.845C54.482 211.5 55.2128 211.303 55.96 211.27V213.82C55.7035 213.767 55.4418 213.744 55.18 213.75C54.5836 213.77 53.9993 213.923 53.4698 214.198C52.9404 214.473 52.4792 214.864 52.12 215.34V223.4L49.55 223.39Z" fill="white"/>
<path d="M66.96 221.75V227.89H64.36V211.56H66.96V213.17C67.4019 212.579 67.9753 212.098 68.6348 211.767C69.2943 211.435 70.0219 211.262 70.76 211.26C73.82 211.26 76 213.57 76 217.46C76 221.35 73.82 223.68 70.76 223.68C70.02 223.676 69.2911 223.5 68.6314 223.165C67.9716 222.83 67.3993 222.345 66.96 221.75V221.75ZM73.36 217.46C73.36 215.16 72.03 213.54 70 213.54C69.4136 213.557 68.8389 213.707 68.3192 213.979C67.7994 214.251 67.3484 214.638 67 215.11V219.79C67.3447 220.269 67.7941 220.662 68.314 220.941C68.8338 221.22 69.4104 221.377 70 221.4C71.96 221.4 73.33 219.76 73.33 217.46H73.36Z" fill="white"/>
<path d="M78.54 223.39V211.56H81.11V213.27C81.5685 212.678 82.1503 212.192 82.815 211.847C83.4798 211.501 84.2117 211.305 84.96 211.27V213.82C84.7034 213.768 84.4418 213.744 84.18 213.75C83.5819 213.769 82.9956 213.921 82.4643 214.196C81.933 214.471 81.4702 214.862 81.11 215.34V223.4L78.54 223.39Z" fill="white"/>
<path d="M179 223.12V211.29H181.57V213C182.029 212.408 182.61 211.922 183.275 211.577C183.94 211.231 184.672 211.035 185.42 211V213.55C185.163 213.498 184.902 213.474 184.64 213.48C184.042 213.499 183.456 213.651 182.924 213.926C182.393 214.201 181.93 214.592 181.57 215.07V223.13L179 223.12Z" fill="white"/>
<path d="M86.33 217.46C86.3576 216.263 86.7377 215.102 87.4227 214.12C88.1078 213.139 89.0673 212.381 90.181 211.943C91.2947 211.504 92.513 211.404 93.6833 211.655C94.8536 211.906 95.9238 212.497 96.7597 213.354C97.5957 214.21 98.1602 215.294 98.3826 216.471C98.6049 217.647 98.4752 218.862 98.0096 219.965C97.5441 221.067 96.7635 222.008 95.7656 222.669C94.7677 223.33 93.5969 223.682 92.4 223.68C91.5833 223.705 90.7704 223.56 90.0128 223.254C89.2551 222.948 88.5693 222.488 87.9986 221.903C87.428 221.319 86.985 220.622 86.6978 219.857C86.4105 219.092 86.2853 218.276 86.33 217.46ZM95.81 217.46C95.81 215.38 94.61 213.54 92.4 213.54C90.19 213.54 89 215.38 89 217.46C89 219.54 90.22 221.4 92.4 221.4C94.58 221.4 95.81 219.57 95.81 217.46V217.46Z" fill="white"/>
<path d="M109.42 223.39V221.77C108.981 222.361 108.409 222.842 107.751 223.174C107.093 223.505 106.367 223.679 105.63 223.68C102.63 223.68 100.39 221.38 100.39 217.46C100.39 213.54 102.59 211.26 105.63 211.26C106.371 211.256 107.102 211.43 107.762 211.767C108.421 212.105 108.99 212.596 109.42 213.2V207.05H111.96V223.39H109.42ZM109.42 219.81V215.13C109.076 214.651 108.627 214.259 108.106 213.983C107.586 213.707 107.009 213.556 106.42 213.54C104.36 213.54 103.06 215.18 103.06 217.46C103.06 219.74 104.36 221.4 106.42 221.4C107.009 221.384 107.586 221.232 108.106 220.956C108.627 220.681 109.076 220.288 109.42 219.81V219.81Z" fill="white"/>
<path d="M123.31 223.39V221.82C122.784 222.402 122.142 222.868 121.426 223.188C120.71 223.508 119.935 223.676 119.15 223.68C116.6 223.68 115.33 222.33 115.33 219.93V211.56H117.9V219C117.9 220.84 118.83 221.42 120.3 221.42C120.883 221.403 121.455 221.256 121.974 220.989C122.493 220.723 122.946 220.344 123.3 219.88V211.58H125.87V223.41L123.31 223.39Z" fill="white"/>
<path d="M128.5 217.46C128.462 216.644 128.594 215.83 128.886 215.067C129.178 214.305 129.624 213.61 130.197 213.028C130.769 212.446 131.456 211.989 132.214 211.685C132.971 211.38 133.784 211.236 134.6 211.26C135.471 211.208 136.341 211.373 137.132 211.741C137.923 212.11 138.61 212.67 139.13 213.37L137.44 214.91C137.14 214.47 136.733 214.113 136.257 213.873C135.781 213.633 135.252 213.519 134.72 213.54C132.59 213.54 131.15 215.16 131.15 217.46C131.15 219.76 132.59 221.4 134.72 221.4C135.256 221.412 135.787 221.288 136.263 221.04C136.738 220.791 137.143 220.427 137.44 219.98L139.13 221.57C138.607 222.267 137.919 222.824 137.129 223.192C136.339 223.56 135.47 223.728 134.6 223.68C133.785 223.694 132.975 223.542 132.221 223.233C131.467 222.924 130.783 222.464 130.212 221.882C129.641 221.3 129.195 220.608 128.901 219.847C128.606 219.087 128.47 218.275 128.5 217.46V217.46Z" fill="white"/>
<path d="M141.96 220.62V213.79H139.96V211.56H141.96V208.33H144.53V211.56H146.96V213.79H144.56V220C144.56 220.81 144.95 221.42 145.69 221.42C146.107 221.426 146.509 221.268 146.81 220.98L147.42 222.98C146.744 223.527 145.887 223.798 145.02 223.74C144.599 223.798 144.171 223.757 143.768 223.62C143.366 223.483 143.002 223.254 142.705 222.95C142.407 222.647 142.185 222.278 142.055 221.874C141.926 221.469 141.893 221.04 141.96 220.62Z" fill="white"/>
<path d="M149 222.562L150.17 220.722C151.257 221.741 152.681 222.325 154.17 222.362C155.72 222.362 156.53 221.732 156.53 220.802C156.53 218.472 149.37 220.142 149.37 215.582C149.37 213.652 151.04 212.002 154.03 212.002C155.709 211.961 157.343 212.55 158.61 213.652L157.52 215.462C157.063 215.001 156.517 214.637 155.916 214.393C155.314 214.149 154.669 214.03 154.02 214.042C152.67 214.042 151.84 214.672 151.84 215.512C151.84 217.592 158.99 216.022 158.99 220.722C158.99 222.832 157.25 224.422 154.07 224.422C152.202 224.489 150.382 223.821 149 222.562V222.562Z" fill="white"/>
<path d="M212.941 222.59V221.29C212.451 221.816 211.854 222.23 211.189 222.505C210.525 222.779 209.809 222.907 209.091 222.88C208.563 222.9 208.036 222.814 207.542 222.626C207.048 222.438 206.596 222.153 206.215 221.787C205.833 221.421 205.529 220.983 205.32 220.497C205.112 220.011 205.003 219.488 205.001 218.96C204.99 218.43 205.089 217.903 205.294 217.414C205.498 216.924 205.803 216.483 206.188 216.119C206.574 215.754 207.031 215.474 207.531 215.297C208.031 215.12 208.562 215.049 209.091 215.09C209.804 215.054 210.516 215.171 211.181 215.433C211.845 215.695 212.445 216.096 212.941 216.61V214.85C212.941 213.48 211.791 212.64 210.171 212.64C209.514 212.636 208.863 212.77 208.261 213.031C207.658 213.293 207.117 213.677 206.671 214.16L205.591 212.37C206.256 211.736 207.041 211.241 207.899 210.913C208.758 210.586 209.673 210.431 210.591 210.46C213.241 210.46 215.591 211.57 215.591 214.73V222.59H212.941ZM212.941 219.89V218.08C212.593 217.677 212.159 217.358 211.671 217.147C211.182 216.936 210.652 216.838 210.121 216.86C209.811 216.808 209.494 216.824 209.191 216.907C208.888 216.99 208.607 217.138 208.367 217.341C208.128 217.543 207.935 217.796 207.803 218.081C207.671 218.366 207.602 218.676 207.602 218.99C207.602 219.304 207.671 219.614 207.803 219.899C207.935 220.184 208.128 220.436 208.367 220.639C208.607 220.842 208.888 220.99 209.191 221.073C209.494 221.156 209.811 221.172 210.121 221.12C210.653 221.14 211.183 221.04 211.671 220.827C212.16 220.614 212.594 220.294 212.941 219.89V219.89Z" fill="white"/>
<path d="M173.941 223.133V221.833C173.451 222.36 172.854 222.774 172.189 223.048C171.525 223.323 170.809 223.451 170.091 223.423C169.563 223.443 169.036 223.357 168.542 223.169C168.048 222.982 167.596 222.696 167.215 222.331C166.833 221.965 166.529 221.526 166.32 221.04C166.112 220.555 166.003 220.032 166.001 219.503C165.99 218.973 166.089 218.446 166.294 217.957C166.498 217.468 166.803 217.026 167.188 216.662C167.574 216.297 168.031 216.018 168.531 215.84C169.031 215.663 169.562 215.593 170.091 215.633C170.804 215.597 171.516 215.714 172.181 215.976C172.845 216.238 173.445 216.64 173.941 217.153V215.393C173.941 214.023 172.791 213.183 171.171 213.183C170.514 213.18 169.863 213.313 169.261 213.575C168.658 213.836 168.117 214.221 167.671 214.703L166.591 212.913C167.256 212.28 168.041 211.785 168.899 211.457C169.758 211.129 170.673 210.975 171.591 211.003C174.241 211.003 176.591 212.113 176.591 215.273V223.133H173.941ZM173.941 220.433V218.623C173.593 218.221 173.159 217.902 172.671 217.69C172.182 217.479 171.652 217.381 171.121 217.403C170.811 217.351 170.494 217.367 170.191 217.45C169.888 217.533 169.607 217.681 169.367 217.884C169.128 218.087 168.935 218.339 168.803 218.624C168.671 218.909 168.602 219.219 168.602 219.533C168.602 219.847 168.671 220.158 168.803 220.442C168.935 220.727 169.128 220.98 169.367 221.183C169.607 221.385 169.888 221.533 170.191 221.616C170.494 221.7 170.811 221.715 171.121 221.663C171.653 221.684 172.183 221.584 172.671 221.371C173.16 221.158 173.594 220.837 173.941 220.433V220.433Z" fill="white"/>
<path d="M219.481 222.59V212.99H217.481V210.76H219.481V210.1C219.481 207.53 220.971 206.01 223.201 206.01C223.718 205.972 224.236 206.042 224.725 206.214C225.214 206.386 225.662 206.657 226.041 207.01L225.041 208.6C224.675 208.258 224.191 208.072 223.691 208.08C222.691 208.08 222.051 208.74 222.051 210.08V210.74H224.451V212.97H222.051V222.57L219.481 222.59ZM227.041 222.59V212.99H225.041V210.76H227.041V210.1C227.041 207.53 228.541 206.01 230.771 206.01C231.287 205.974 231.806 206.044 232.294 206.216C232.783 206.388 233.231 206.658 233.611 207.01L232.611 208.6C232.25 208.257 231.769 208.07 231.271 208.08C230.271 208.08 229.621 208.74 229.621 210.08V210.74H232.031V212.97H229.621V222.57L227.041 222.59Z" fill="white"/>
<path d="M233.241 216.66C233.268 215.463 233.649 214.301 234.334 213.32C235.019 212.338 235.978 211.581 237.092 211.142C238.206 210.704 239.424 210.604 240.594 210.855C241.764 211.106 242.835 211.697 243.671 212.553C244.507 213.41 245.071 214.494 245.293 215.67C245.516 216.846 245.386 218.062 244.92 219.165C244.455 220.267 243.674 221.208 242.676 221.869C241.679 222.53 240.508 222.881 239.311 222.88C238.494 222.904 237.681 222.759 236.924 222.454C236.166 222.148 235.48 221.688 234.909 221.103C234.339 220.518 233.896 219.822 233.609 219.057C233.321 218.292 233.196 217.476 233.241 216.66V216.66ZM242.721 216.66C242.721 214.58 241.521 212.74 239.311 212.74C237.101 212.74 235.911 214.58 235.911 216.66C235.911 218.74 237.131 220.6 239.311 220.6C241.491 220.6 242.721 218.77 242.721 216.66Z" fill="white"/>
<path d="M248.011 222.59V210.76H250.581V212.47C251.037 211.878 251.617 211.392 252.28 211.047C252.944 210.701 253.674 210.504 254.421 210.47V213.02C254.164 212.967 253.903 212.943 253.641 212.95C253.045 212.97 252.46 213.123 251.931 213.398C251.401 213.673 250.94 214.063 250.581 214.54V222.6L248.011 222.59Z" fill="white"/>
<path d="M264.831 222.59V220.97C264.392 221.561 263.82 222.042 263.162 222.373C262.504 222.705 261.778 222.878 261.041 222.88C258.041 222.88 255.791 220.58 255.791 216.66C255.791 212.74 258.001 210.46 261.041 210.46C261.782 210.455 262.513 210.629 263.173 210.967C263.832 211.305 264.401 211.796 264.831 212.4V206.25H267.401V222.59H264.831ZM264.831 219.01V214.33C264.486 213.852 264.036 213.461 263.516 213.185C262.996 212.909 262.419 212.757 261.831 212.74C259.781 212.74 258.481 214.38 258.481 216.66C258.481 218.94 259.781 220.6 261.831 220.6C262.419 220.582 262.996 220.43 263.516 220.154C264.036 219.878 264.486 219.487 264.831 219.01V219.01Z" fill="white"/>
<path d="M277.981 222.59V221.29C277.492 221.814 276.896 222.228 276.234 222.502C275.571 222.777 274.857 222.905 274.141 222.88C273.613 222.9 273.086 222.813 272.592 222.626C272.097 222.438 271.646 222.153 271.265 221.787C270.883 221.421 270.579 220.982 270.37 220.497C270.162 220.011 270.053 219.488 270.051 218.96C270.038 218.429 270.137 217.901 270.341 217.411C270.545 216.921 270.849 216.479 271.235 216.115C271.62 215.75 272.078 215.47 272.579 215.293C273.08 215.117 273.612 215.047 274.141 215.09C274.852 215.055 275.563 215.172 276.225 215.435C276.887 215.697 277.486 216.097 277.981 216.61V214.85C277.981 213.48 276.831 212.64 275.221 212.64C274.562 212.636 273.91 212.769 273.306 213.031C272.702 213.292 272.159 213.677 271.711 214.16L270.641 212.37C271.306 211.736 272.091 211.24 272.949 210.912C273.807 210.584 274.722 210.43 275.641 210.46C278.281 210.46 280.581 211.57 280.581 214.73V222.59H277.981ZM277.981 219.89V218.08C277.635 217.677 277.203 217.358 276.716 217.147C276.229 216.935 275.701 216.837 275.171 216.86C274.861 216.807 274.544 216.823 274.241 216.906C273.938 216.989 273.657 217.137 273.417 217.34C273.178 217.543 272.985 217.796 272.853 218.08C272.721 218.365 272.652 218.675 272.652 218.99C272.652 219.304 272.721 219.614 272.853 219.899C272.985 220.183 273.178 220.436 273.417 220.639C273.657 220.842 273.938 220.99 274.241 221.073C274.544 221.156 274.861 221.172 275.171 221.12C275.702 221.14 276.23 221.04 276.717 220.827C277.203 220.614 277.636 220.293 277.981 219.89Z" fill="white"/>
<path d="M283.881 222.59V206.25H286.461V212.4C286.894 211.799 287.463 211.31 288.122 210.972C288.781 210.635 289.511 210.459 290.251 210.46C293.311 210.46 295.521 212.84 295.521 216.66C295.521 220.48 293.291 222.88 290.251 222.88C289.514 222.877 288.788 222.703 288.131 222.371C287.473 222.04 286.901 221.56 286.461 220.97V222.59H283.881ZM289.521 220.59C291.521 220.59 292.851 218.95 292.851 216.65C292.851 214.35 291.551 212.73 289.521 212.73C288.923 212.74 288.335 212.889 287.804 213.165C287.273 213.441 286.813 213.836 286.461 214.32V219.03C286.814 219.511 287.274 219.904 287.805 220.176C288.336 220.449 288.924 220.594 289.521 220.6V220.59Z" fill="white"/>
<path d="M298.111 222.59V206.25H300.691V222.59H298.111Z" fill="white"/>
<path d="M303.331 216.659C303.304 215.855 303.439 215.053 303.729 214.302C304.018 213.551 304.456 212.865 305.016 212.287C305.576 211.708 306.246 211.249 306.988 210.935C307.729 210.621 308.526 210.459 309.331 210.459C312.891 210.459 315.141 213.159 315.141 216.879V217.519H306.031C306.113 218.442 306.549 219.296 307.249 219.903C307.949 220.509 308.856 220.82 309.781 220.769C311.031 220.773 312.236 220.301 313.151 219.449L314.331 221.139C313.007 222.303 311.293 222.924 309.531 222.879C308.705 222.918 307.88 222.784 307.108 222.484C306.337 222.185 305.637 221.728 305.054 221.142C304.47 220.557 304.015 219.855 303.718 219.083C303.421 218.311 303.29 217.486 303.331 216.659V216.659ZM309.331 212.569C308.482 212.55 307.659 212.866 307.04 213.447C306.421 214.029 306.055 214.831 306.021 215.679H312.691C312.681 215.253 312.585 214.832 312.41 214.443C312.234 214.054 311.982 213.704 311.669 213.414C311.355 213.124 310.987 212.9 310.585 212.755C310.184 212.61 309.757 212.547 309.331 212.569V212.569Z" fill="white"/>
<path d="M47.88 246.49L45.11 237.82L42.37 246.49H39.68L36 234.66H38.67L41.17 243.25L43.99 234.66H46.26L49.06 243.25L51.58 234.66H54.28L50.58 246.49H47.88Z" fill="white"/>
<path d="M55.33 240.61C55.3032 239.805 55.4385 239.003 55.728 238.252C56.0175 237.501 56.4552 236.816 57.015 236.237C57.5749 235.659 58.2454 235.199 58.9867 234.885C59.728 234.571 60.5249 234.409 61.33 234.41C64.88 234.41 67.13 237.11 67.13 240.83V241.47H58.02C58.104 242.391 58.5414 243.244 59.2405 243.85C59.9396 244.456 60.8461 244.767 61.77 244.72C63.0222 244.718 64.2284 244.247 65.15 243.4L66.32 245.09C64.9961 246.253 63.282 246.875 61.52 246.83C60.6946 246.867 59.8706 246.731 59.1007 246.431C58.3309 246.132 57.6321 245.674 57.0493 245.089C56.4665 244.503 56.0126 243.802 55.7165 243.031C55.4204 242.26 55.2888 241.435 55.33 240.61V240.61ZM61.33 236.52C60.481 236.498 59.6578 236.813 59.0397 237.395C58.4217 237.978 58.0587 238.781 58.03 239.63H64.69C64.6868 239.196 64.5951 238.767 64.4206 238.37C64.2461 237.973 63.9925 237.616 63.6752 237.32C63.3579 237.024 62.9836 236.796 62.5752 236.65C62.1668 236.504 61.7329 236.442 61.3 236.47L61.33 236.52Z" fill="white"/>
<path d="M187.007 217.2C186.981 216.395 187.116 215.594 187.405 214.842C187.695 214.091 188.133 213.406 188.692 212.827C189.252 212.249 189.923 211.789 190.664 211.475C191.405 211.161 192.202 211 193.007 211C196.557 211 198.807 213.7 198.807 217.42V218.06H189.697C189.781 218.981 190.219 219.834 190.918 220.44C191.617 221.046 192.524 221.358 193.447 221.31C194.7 221.309 195.906 220.838 196.827 219.99L197.997 221.68C196.674 222.844 194.959 223.465 193.197 223.42C192.372 223.457 191.548 223.322 190.778 223.022C190.008 222.722 189.31 222.265 188.727 221.679C188.144 221.093 187.69 220.392 187.394 219.621C187.098 218.85 186.966 218.025 187.007 217.2V217.2ZM193.007 213.11C192.158 213.088 191.335 213.403 190.717 213.986C190.099 214.568 189.736 215.371 189.707 216.22H196.367C196.364 215.786 196.273 215.358 196.098 214.961C195.924 214.563 195.67 214.206 195.353 213.91C195.035 213.615 194.661 213.387 194.253 213.24C193.844 213.094 193.41 213.033 192.977 213.06L193.007 213.11Z" fill="white"/>
<path d="M78.58 244.85V250.99H76V234.66H78.58V236.28C79.0171 235.685 79.5879 235.202 80.2462 234.868C80.9045 234.535 81.632 234.361 82.37 234.36C85.43 234.36 87.61 236.67 87.61 240.56C87.61 244.45 85.43 246.78 82.37 246.78C81.6315 246.776 80.904 246.6 80.2458 246.265C79.5877 245.93 79.0172 245.445 78.58 244.85V244.85ZM84.96 240.61C84.96 238.31 83.64 236.69 81.6 236.69C81.0132 236.705 80.4377 236.854 79.9176 237.126C79.3975 237.399 78.9468 237.786 78.6 238.26V242.94C78.9426 243.421 79.3915 243.816 79.9118 244.096C80.4321 244.375 81.0098 244.53 81.6 244.55C83.64 244.5 84.96 242.86 84.96 240.61Z" fill="white"/>
<path d="M90.18 246.49V234.66H92.75V236.37C93.2056 235.776 93.7853 235.29 94.4487 234.945C95.112 234.599 95.8428 234.403 96.59 234.37V236.92C96.3335 236.867 96.0718 236.843 95.81 236.85C95.2136 236.87 94.6293 237.023 94.0999 237.298C93.5704 237.573 93.1092 237.963 92.75 238.44V246.5L90.18 246.49Z" fill="white"/>
<path d="M97.96 240.61C97.9875 239.414 98.3674 238.252 99.052 237.271C99.7366 236.29 100.696 235.532 101.809 235.094C102.922 234.655 104.14 234.554 105.31 234.804C106.48 235.054 107.55 235.644 108.386 236.5C109.223 237.356 109.788 238.439 110.011 239.614C110.235 240.79 110.107 242.005 109.643 243.108C109.179 244.211 108.399 245.152 107.403 245.814C106.406 246.476 105.236 246.83 104.04 246.83C103.223 246.855 102.41 246.709 101.651 246.404C100.893 246.098 100.207 245.638 99.6354 245.054C99.064 244.469 98.6201 243.772 98.3317 243.008C98.0433 242.243 97.9167 241.426 97.96 240.61V240.61ZM107.44 240.61C107.44 238.53 106.24 236.69 104.04 236.69C101.84 236.69 100.63 238.53 100.63 240.61C100.63 242.69 101.86 244.55 104.04 244.55C106.22 244.55 107.44 242.67 107.44 240.61Z" fill="white"/>
<path d="M115.84 246.49L111.02 234.66H113.78L117.24 243.52L120.69 234.66H123.43L118.58 246.49H115.84Z" fill="white"/>
<path d="M124.75 231.61C124.748 231.293 124.84 230.983 125.015 230.718C125.189 230.454 125.439 230.247 125.731 230.125C126.023 230.002 126.345 229.969 126.656 230.03C126.967 230.09 127.253 230.242 127.478 230.465C127.703 230.688 127.856 230.974 127.918 231.284C127.981 231.595 127.95 231.917 127.829 232.21C127.708 232.503 127.503 232.753 127.24 232.93C126.977 233.106 126.667 233.2 126.35 233.2C126.14 233.201 125.932 233.161 125.738 233.082C125.544 233.003 125.368 232.886 125.219 232.738C125.07 232.59 124.952 232.414 124.872 232.221C124.791 232.027 124.75 231.82 124.75 231.61V231.61ZM125.05 246.48V234.66H127.58V246.49L125.05 246.48Z" fill="white"/>
<path d="M139.28 246.49V244.87C138.838 245.461 138.265 245.941 137.605 246.273C136.946 246.604 136.218 246.778 135.48 246.78C132.48 246.78 130.24 244.48 130.24 240.56C130.24 236.64 132.44 234.36 135.48 234.36C136.223 234.354 136.956 234.527 137.617 234.865C138.279 235.203 138.849 235.695 139.28 236.3V230.15H141.85V246.49H139.28ZM139.28 242.91V238.23C138.934 237.754 138.484 237.363 137.964 237.087C137.444 236.812 136.868 236.659 136.28 236.64C134.22 236.64 132.93 238.28 132.93 240.56C132.93 242.84 134.22 244.5 136.28 244.5C136.868 244.481 137.444 244.328 137.964 244.052C138.484 243.777 138.934 243.386 139.28 242.91V242.91Z" fill="white"/>
<path d="M144.47 240.61C144.443 239.805 144.579 239.003 144.868 238.252C145.158 237.501 145.595 236.816 146.155 236.237C146.715 235.659 147.385 235.199 148.127 234.885C148.868 234.571 149.665 234.409 150.47 234.41C154.02 234.41 156.27 237.11 156.27 240.83V241.47H147.16C147.244 242.391 147.681 243.244 148.381 243.85C149.08 244.456 149.986 244.767 150.91 244.72C152.162 244.718 153.368 244.247 154.29 243.4L155.47 245.09C154.146 246.253 152.432 246.875 150.67 246.83C149.844 246.868 149.019 246.734 148.248 246.435C147.477 246.135 146.777 245.678 146.193 245.093C145.609 244.507 145.154 243.805 144.857 243.033C144.561 242.261 144.429 241.436 144.47 240.61V240.61ZM150.47 236.52C149.622 236.503 148.802 236.82 148.185 237.401C147.568 237.983 147.204 238.783 147.17 239.63H153.83C153.827 239.196 153.735 238.767 153.561 238.37C153.386 237.973 153.133 237.616 152.815 237.32C152.498 237.024 152.124 236.796 151.715 236.65C151.307 236.504 150.873 236.442 150.44 236.47L150.47 236.52Z" fill="white"/>
<path d="M164.38 240.61C164.38 236.72 166.56 234.41 169.62 234.41C170.359 234.41 171.088 234.585 171.748 234.918C172.408 235.251 172.981 235.735 173.42 236.33V234.71H175.99V251.04H173.42V244.9C172.981 245.495 172.408 245.98 171.749 246.315C171.089 246.65 170.36 246.826 169.62 246.83C166.58 246.78 164.38 244.45 164.38 240.61ZM173.38 242.94V238.21C173.032 237.738 172.581 237.351 172.061 237.079C171.541 236.807 170.966 236.657 170.38 236.64C168.38 236.64 167.02 238.26 167.02 240.56C167.02 242.86 168.35 244.5 170.38 244.5C170.976 244.483 171.561 244.329 172.088 244.05C172.615 243.771 173.071 243.374 173.42 242.89L173.38 242.94Z" fill="white"/>
<path d="M187.3 246.49V244.92C186.774 245.502 186.132 245.967 185.416 246.288C184.7 246.608 183.925 246.775 183.14 246.78C180.59 246.78 179.32 245.43 179.32 243.03V234.66H181.89V242.08C181.89 243.92 182.82 244.5 184.29 244.5C184.873 244.482 185.445 244.335 185.964 244.069C186.483 243.802 186.936 243.423 187.29 242.96V234.66H189.86V246.49H187.3Z" fill="white"/>
<path d="M200.45 246.49V245.19C199.961 245.715 199.366 246.129 198.703 246.403C198.04 246.677 197.327 246.806 196.61 246.78C196.082 246.8 195.555 246.714 195.061 246.526C194.567 246.338 194.115 246.053 193.734 245.687C193.352 245.322 193.048 244.883 192.839 244.397C192.631 243.911 192.522 243.389 192.52 242.86C192.507 242.329 192.606 241.802 192.81 241.312C193.014 240.822 193.318 240.38 193.704 240.015C194.09 239.65 194.547 239.371 195.048 239.194C195.549 239.017 196.081 238.948 196.61 238.99C197.322 238.951 198.034 239.067 198.696 239.33C199.359 239.592 199.957 239.995 200.45 240.51V238.75C200.45 237.38 199.3 236.54 197.69 236.54C197.032 236.536 196.379 236.67 195.775 236.931C195.171 237.193 194.628 237.577 194.18 238.06L193.11 236.28C193.773 235.642 194.557 235.144 195.416 234.814C196.275 234.485 197.191 234.33 198.11 234.36C200.75 234.36 203.05 235.47 203.05 238.63V246.49H200.45ZM200.45 243.79V241.98C200.104 241.578 199.672 241.259 199.185 241.047C198.698 240.836 198.17 240.738 197.64 240.76C197.33 240.708 197.013 240.724 196.71 240.807C196.407 240.89 196.126 241.038 195.886 241.241C195.647 241.444 195.454 241.696 195.322 241.981C195.19 242.266 195.121 242.576 195.121 242.89C195.121 243.204 195.19 243.514 195.322 243.799C195.454 244.084 195.647 244.337 195.886 244.539C196.126 244.742 196.407 244.89 196.71 244.973C197.013 245.056 197.33 245.072 197.64 245.02C198.171 245.04 198.699 244.94 199.186 244.727C199.673 244.514 200.105 244.194 200.45 243.79Z" fill="white"/>
<path d="M206.36 246.49V230.15H208.93V246.49H206.36Z" fill="white"/>
<path d="M211.96 231.61C211.958 231.293 212.05 230.983 212.225 230.718C212.399 230.454 212.649 230.247 212.941 230.125C213.233 230.002 213.555 229.969 213.866 230.03C214.177 230.09 214.463 230.242 214.688 230.465C214.913 230.688 215.066 230.974 215.128 231.284C215.191 231.595 215.16 231.917 215.039 232.21C214.918 232.503 214.713 232.753 214.45 232.93C214.187 233.106 213.877 233.2 213.56 233.2C213.35 233.201 213.143 233.161 212.948 233.082C212.754 233.003 212.578 232.886 212.429 232.738C212.281 232.59 212.163 232.414 212.082 232.221C212.001 232.027 211.96 231.82 211.96 231.61V231.61ZM212.26 246.48V234.66H214.83V246.49L212.26 246.48Z" fill="white"/>
<path d="M218.7 243.72V236.89H216.7V234.66H218.7V231.43H221.27V234.66H223.67V236.89H221.27V243.08C221.27 243.89 221.66 244.5 222.4 244.5C222.606 244.504 222.812 244.467 223.004 244.391C223.196 244.316 223.371 244.203 223.52 244.06L224.14 246.06C223.46 246.605 222.6 246.876 221.73 246.82C221.313 246.872 220.89 246.827 220.494 246.689C220.098 246.551 219.739 246.322 219.445 246.022C219.152 245.722 218.932 245.358 218.802 244.958C218.673 244.559 218.638 244.135 218.7 243.72V243.72Z" fill="white"/>
<path d="M225.85 248.81C226.167 248.943 226.507 249.011 226.85 249.01C227.206 249.059 227.568 248.988 227.878 248.806C228.189 248.625 228.429 248.344 228.56 248.01L229.15 246.66L224.28 234.66H227.04L230.5 243.52L233.95 234.66H236.69L230.99 248.66C230.712 249.484 230.168 250.193 229.445 250.676C228.721 251.159 227.858 251.389 226.99 251.33C226.502 251.319 226.017 251.262 225.54 251.16L225.85 248.81Z" fill="white"/>
<path d="M247.18 244.85V250.99H244.58V234.66H247.15V236.28C247.588 235.684 248.16 235.2 248.821 234.866C249.481 234.532 250.21 234.359 250.95 234.36C254.01 234.36 256.19 236.67 256.19 240.56C256.19 244.45 254.01 246.78 250.95 246.78C250.215 246.773 249.492 246.594 248.837 246.259C248.183 245.924 247.616 245.442 247.18 244.85V244.85ZM253.58 240.61C253.58 238.31 252.26 236.69 250.23 236.69C249.644 236.707 249.069 236.857 248.549 237.129C248.029 237.401 247.578 237.788 247.23 238.26V242.94C247.574 243.42 248.023 243.814 248.543 244.094C249.063 244.373 249.64 244.529 250.23 244.55C252.25 244.5 253.58 242.86 253.58 240.61Z" fill="white"/>
<path d="M258.79 246.49V234.66H261.36V236.37C261.817 235.778 262.398 235.294 263.061 234.948C263.723 234.603 264.453 234.406 265.2 234.37V236.92C264.943 236.867 264.682 236.843 264.42 236.85C263.824 236.87 263.239 237.023 262.71 237.298C262.18 237.573 261.719 237.963 261.36 238.44V246.5L258.79 246.49Z" fill="white"/>
<path d="M266.58 240.61C266.61 239.416 266.99 238.258 267.675 237.279C268.36 236.301 269.318 235.547 270.429 235.11C271.541 234.674 272.756 234.575 273.923 234.825C275.091 235.076 276.158 235.666 276.992 236.521C277.826 237.375 278.39 238.457 278.612 239.63C278.834 240.803 278.706 242.016 278.242 243.116C277.779 244.217 277.001 245.156 276.006 245.816C275.012 246.477 273.844 246.83 272.65 246.83C271.833 246.855 271.02 246.71 270.263 246.404C269.505 246.098 268.819 245.638 268.249 245.053C267.678 244.469 267.235 243.772 266.948 243.007C266.661 242.242 266.535 241.426 266.58 240.61ZM276.05 240.61C276.05 238.53 274.85 236.69 272.65 236.69C270.45 236.69 269.25 238.53 269.25 240.61C269.25 242.69 270.47 244.55 272.65 244.55C274.83 244.55 276.05 242.67 276.05 240.61Z" fill="white"/>
<path d="M289.67 246.49V244.87C289.229 245.462 288.655 245.942 287.996 246.274C287.336 246.606 286.608 246.779 285.87 246.78C282.87 246.78 280.63 244.48 280.63 240.56C280.63 236.64 282.84 234.36 285.87 234.36C286.613 234.354 287.346 234.527 288.007 234.865C288.669 235.203 289.239 235.695 289.67 236.3V230.15H292.24V246.49H289.67ZM289.67 242.91V238.23C289.325 237.753 288.875 237.361 288.355 237.085C287.835 236.81 287.258 236.657 286.67 236.64C284.62 236.64 283.32 238.28 283.32 240.56C283.32 242.84 284.62 244.5 286.67 244.5C287.258 244.483 287.835 244.33 288.355 244.054C288.875 243.779 289.325 243.387 289.67 242.91V242.91Z" fill="white"/>
<path d="M303.58 246.49V244.92C303.051 245.501 302.407 245.966 301.69 246.286C300.972 246.606 300.196 246.774 299.41 246.78C296.87 246.78 295.59 245.43 295.59 243.03V234.66H298.16V242.08C298.16 243.92 299.09 244.5 300.56 244.5C301.143 244.481 301.714 244.333 302.233 244.067C302.752 243.801 303.205 243.422 303.56 242.96V234.66H306.13V246.49H303.58Z" fill="white"/>
<path d="M308.75 240.61C308.714 239.795 308.846 238.981 309.139 238.219C309.431 237.457 309.878 236.763 310.45 236.182C311.022 235.6 311.708 235.142 312.465 234.838C313.222 234.533 314.034 234.387 314.85 234.41C315.721 234.36 316.59 234.527 317.38 234.895C318.171 235.263 318.858 235.822 319.38 236.52L317.69 238.06C317.39 237.62 316.983 237.263 316.507 237.023C316.031 236.783 315.502 236.669 314.97 236.69C312.84 236.69 311.39 238.31 311.39 240.61C311.39 242.91 312.84 244.55 314.97 244.55C315.506 244.562 316.037 244.438 316.513 244.19C316.988 243.941 317.393 243.577 317.69 243.13L319.38 244.72C318.855 245.415 318.167 245.971 317.378 246.339C316.588 246.707 315.72 246.875 314.85 246.83C314.035 246.844 313.225 246.692 312.471 246.383C311.717 246.074 311.033 245.614 310.462 245.032C309.891 244.45 309.445 243.758 309.151 242.997C308.856 242.237 308.72 241.425 308.75 240.61V240.61Z" fill="white"/>
<path d="M324 243.29V236.46H322V234.23H324V231H326.57V234.23H328.97V236.46H326.57V242.65C326.57 243.46 326.97 244.07 327.7 244.07C328.119 244.075 328.525 243.917 328.83 243.63L329.44 245.63C328.763 246.174 327.907 246.445 327.04 246.39C326.623 246.442 326.2 246.397 325.803 246.259C325.406 246.12 325.047 245.892 324.753 245.592C324.459 245.292 324.238 244.929 324.107 244.529C323.976 244.13 323.94 243.706 324 243.29Z" fill="white"/>
<path d="M331 244.562L332.18 242.722C333.263 243.747 334.689 244.332 336.18 244.362C337.72 244.362 338.53 243.732 338.53 242.802C338.53 240.472 331.38 242.142 331.38 237.582C331.38 235.652 333.05 234.002 336.03 234.002C337.709 233.959 339.344 234.548 340.61 235.652L339.53 237.462C339.074 237 338.528 236.636 337.926 236.392C337.324 236.148 336.679 236.029 336.03 236.042C334.69 236.042 333.85 236.672 333.85 237.512C333.85 239.592 341 238.022 341 242.722C341 244.832 339.26 246.422 336.08 246.422C334.209 246.488 332.386 245.821 331 244.562V244.562Z" fill="white"/>
<path d="M29.27 247.58C28.88 247.21 28.36 246.72 27.83 246.16C26.5613 247.267 24.9335 247.874 23.25 247.87C20.36 247.87 18 246.3 18 243.22C18 240.7 19.67 239.4 21.56 238.44C20.8789 237.356 20.4801 236.118 20.4 234.84C20.4 232.66 22.29 231 24.84 231C27.04 231 28.84 232.2 28.84 234.33C28.84 236.8 26.84 237.88 24.78 238.86C25.34 239.64 25.93 240.35 26.39 240.86C26.85 241.37 27.47 242.16 28.01 242.75C28.7004 241.684 29.2452 240.53 29.63 239.32L31.71 240.32C31.1183 241.758 30.3634 243.124 29.46 244.39C30.46 245.39 31.46 246.47 32.64 247.6L29.27 247.58ZM26.4 244.66C25.57 243.78 24.81 242.92 24.4 242.39C23.78 241.67 23.15 240.87 22.58 240.06C22.0366 240.341 21.5779 240.761 21.2509 241.278C20.924 241.794 20.7407 242.389 20.72 243C20.7084 243.377 20.7752 243.753 20.9161 244.103C21.0571 244.453 21.2691 244.77 21.5388 245.034C21.8085 245.298 22.13 245.504 22.4831 245.637C22.8361 245.771 23.2131 245.83 23.59 245.81C24.6267 245.768 25.6151 245.361 26.38 244.66H26.4ZM23.78 237.36C25.33 236.63 26.58 235.85 26.58 234.47C26.5892 234.254 26.5523 234.038 26.4718 233.837C26.3913 233.635 26.269 233.454 26.113 233.303C25.957 233.153 25.7709 233.038 25.567 232.965C25.363 232.892 25.1459 232.863 24.93 232.88C24.4083 232.893 23.9123 233.11 23.548 233.483C23.1836 233.857 22.9798 234.358 22.98 234.88C23.0249 235.76 23.2934 236.613 23.76 237.36H23.78Z" fill="white"/>
<path d="M443 52.5C441.333 44 433.6 27 416 27C398.4 27 339 36.6667 311.5 41.5C226.667 49.8333 60 54.5 47 59.5C29 68.5 6.5 73.5 2 129.5C2 175.1 2 223.833 2 242.5C7.5 257 26.3 285.5 57.5 283.5C88.7 281.5 153.5 278.667 182 277.5C229.333 276.333 330.5 273.6 356.5 272C382.5 270.4 395.667 267.667 399 266.5" stroke="white" stroke-width="3" stroke-linecap="round" stroke-dasharray="6 8"/>
<g clip-path="url(#clip0_15_1902)">
<path d="M353.2 267C351.565 262.157 350.288 257.202 349.378 252.174C347.826 243.602 347.084 234.904 347.164 226.194C347.164 225.589 347.164 224.989 347.164 224.389C346.887 224.275 346.787 224.515 346.641 224.624C343.652 227.232 337.182 228.076 333.262 223.8C330.81 221.201 329.349 217.828 329.132 214.267C328.671 207.452 330.65 201.298 334.298 195.609C334.487 195.317 334.67 195.019 334.905 194.644C333.246 194.315 331.66 193.966 330.064 193.684C326.917 193.096 323.889 191.995 321.102 190.425C317.325 188.364 313.772 185.917 310.503 183.124C305.792 179.114 302.819 174.004 300.699 168.278C298.197 161.524 297.209 154.306 297.804 147.132C298.532 137.599 299.673 128.123 301.908 118.804C303.968 110.437 306.625 102.227 309.859 94.2374C310.157 93.4864 310.021 93.1944 309.377 92.7824C304.795 89.9974 301.333 85.7053 299.589 80.6475C298.664 77.9039 298.321 74.9985 298.584 72.116C298.82 68.5855 299.291 65.0707 301.034 61.9575C305.085 54.7506 310.817 49.6922 319.354 48.5918C327.242 47.5489 334.345 49.4523 340.506 54.5524C340.696 54.7694 340.964 54.9042 341.252 54.9286C341.54 54.9529 341.826 54.8648 342.05 54.6828C349.866 49.973 358.589 46.9526 367.652 45.8175C375.289 44.8571 383.001 44.6266 390.683 45.1292C403.745 45.9439 416.33 50.3224 427.062 57.7856C427.262 57.9756 427.528 58.0816 427.805 58.0816C428.082 58.0816 428.348 57.9756 428.548 57.7856C432.212 55.2303 436.133 53.0922 440.587 52.2527C446.057 51.2097 451.459 51.3348 456.641 53.6763C457.968 54.2791 459.202 55.0676 460.305 56.0178C462.434 57.8288 464.394 59.8272 466.163 61.9888C468.428 64.8028 469.867 68.1873 470.319 71.7666C470.916 75.8744 470.779 80.0549 469.916 84.1154C469.513 85.8556 468.768 87.4988 467.722 88.9495C465.02 93.0154 461.191 96.2114 456.699 98.1485C456.06 98.4197 455.929 98.67 456.149 99.3636C458.321 105.929 459.62 112.687 460.578 119.524C461.488 126.037 462.221 132.561 462.614 139.132C462.975 145.098 463.1 151.069 462.352 157.024C461.596 163.646 458.709 169.846 454.124 174.697C444.498 184.981 432.731 191.442 419.053 194.613C418.53 194.733 417.781 194.613 417.609 195.03C417.436 195.447 417.902 195.974 418.101 196.454C419.503 199.828 421.089 203.155 421.88 206.737C422.848 211.118 423.136 215.529 421.487 219.858C421.388 220.116 421.388 220.402 421.487 220.661C423.487 226.355 425.434 232.066 427.245 237.828C427.282 237.909 427.329 237.984 427.386 238.052C428.927 236.712 430.232 235.126 431.249 233.359C434.725 226.71 437.85 219.936 439.923 212.677C441.598 206.771 444.387 201.237 448.141 196.37C449.694 194.386 451.522 192.63 453.569 191.155C458.253 187.729 463.121 184.647 468.837 183.156C472.724 182.175 476.734 181.764 480.74 181.935C482.427 181.942 484.109 182.106 485.765 182.426C490.565 183.5 493.554 186.691 494.276 191.525C494.606 193.716 494.627 195.88 493.8 197.976C492.23 201.929 489.346 204.177 485.132 204.756C481.62 205.246 478.139 205.918 474.663 206.586C472.282 207.04 470.512 208.416 469.083 210.294C466.911 213.216 465.061 216.363 463.566 219.68C461.075 225.047 458.458 230.355 456.238 235.846C453.098 243.637 448.282 250.271 442.226 256.064C439.682 258.495 437.159 260.956 434.275 263.005C434.142 263.095 434.038 263.221 433.977 263.368C433.915 263.516 433.899 263.678 433.929 263.835C434.059 264.872 434.117 265.918 434.102 266.963H431.391C431.278 266.863 431.188 266.74 431.128 266.603C431.067 266.465 431.037 266.316 431.04 266.166C430.846 264.45 430.564 262.745 430.391 261.029C430.27 259.803 429.988 258.604 429.81 257.379C429.731 256.857 429.485 256.654 428.941 256.748C426.72 257.065 424.462 257.019 422.257 256.612C421.363 256.481 420.486 256.257 419.639 255.944C418.265 255.363 417.101 254.378 416.304 253.12C415.507 251.862 415.115 250.391 415.18 248.904C415.295 247.387 416.227 246.521 417.535 245.942C418.902 245.356 420.317 244.89 421.765 244.55C422.911 244.258 424.062 243.976 425.219 243.721C425.963 243.554 426.02 243.45 425.821 242.74C425.261 240.738 424.617 238.751 424.047 236.749C424.002 236.503 423.863 236.284 423.658 236.139C423.454 235.994 423.201 235.934 422.953 235.972C421.042 235.972 419.132 235.998 417.195 235.857C414.792 235.68 413.008 234.741 412.023 232.472C411.61 231.534 411.123 230.621 410.757 229.656C409.961 227.57 410.495 226.173 412.426 225.031C414.01 224.149 415.638 223.35 417.305 222.637C417.799 222.388 418.306 222.163 418.823 221.965C419.189 221.839 419.268 221.62 419.137 221.266C419.006 220.911 418.849 220.901 418.614 221.156C418.352 221.435 418.074 221.698 417.781 221.944C415.038 224.16 411.882 224.744 408.464 224.29C407.865 224.213 407.273 224.096 406.69 223.941C404.397 223.232 402.141 222.429 400.267 220.864C399.017 219.813 397.84 218.679 396.744 217.469C395.216 215.801 393.525 214.288 391.96 212.651C389.249 209.824 386.59 206.946 384.14 203.885C382.907 202.457 381.757 200.959 380.696 199.4C380.553 199.152 380.344 198.948 380.091 198.813C379.839 198.677 379.553 198.615 379.267 198.633C377.199 198.659 375.132 198.633 373.069 198.633C370.452 198.633 367.835 198.529 365.218 198.362C364.631 198.32 364.427 198.68 364.213 199.092C363.056 201.382 361.836 203.634 360.549 205.835C358.281 209.721 355.76 213.454 353.001 217.01C352.326 217.855 351.608 218.664 350.849 219.435C350.432 219.855 350.108 220.359 349.901 220.913C349.693 221.466 349.606 222.058 349.645 222.648C349.708 224.212 349.645 225.808 349.645 227.388C349.645 228.301 349.645 228.332 350.598 228.483C351.551 228.634 352.571 228.895 353.545 229.135C356.717 229.917 357.67 231.925 357.282 234.955C356.937 237.656 355.293 239.377 352.786 240.331C352.225 240.554 351.645 240.729 351.053 240.853C350.488 240.962 350.274 241.207 350.342 241.838C350.582 243.982 350.896 246.12 351.21 248.253C351.331 249.097 351.483 249.202 352.367 249.082C353.871 248.92 355.386 248.894 356.895 249.003C359.701 249.139 360.899 250.75 361.229 253.175C361.394 254.289 361.289 255.426 360.925 256.491C360.561 257.557 359.948 258.521 359.135 259.303C358.183 260.278 356.947 260.607 355.66 260.805C353.864 261.086 353.875 261.071 354.409 262.802C354.744 263.881 355.094 264.956 355.456 266.03C355.555 266.332 355.728 266.645 355.456 266.958L353.2 267Z" fill="#4D2512"/>
<path d="M406.58 223.748C407.956 224.05 409.358 224.214 410.767 224.239C412.206 224.233 413.63 223.944 414.956 223.39C416.283 222.835 417.487 222.024 418.498 221.005L418.99 220.541C419.014 220.535 419.04 220.535 419.064 220.541C419.587 221.876 419.587 221.871 418.341 222.424C416.35 223.268 414.403 224.215 412.51 225.261C411.573 225.808 410.767 226.45 410.6 227.633C410.539 228.132 410.6 228.639 410.778 229.109C411.276 230.53 411.898 231.905 412.636 233.218C413.578 234.898 415.133 235.503 416.965 235.654C419.1 235.817 421.242 235.871 423.382 235.815C423.465 235.8 423.55 235.801 423.632 235.819C423.714 235.837 423.792 235.871 423.86 235.92C423.929 235.969 423.987 236.031 424.03 236.103C424.074 236.174 424.103 236.254 424.115 236.337C424.753 238.527 425.387 240.717 426.078 242.892C426.292 243.554 426.161 243.784 425.471 243.935C422.923 244.401 420.422 245.09 417.996 245.995C415.583 246.954 414.829 248.529 415.562 251.027C416.556 254.401 418.928 256.028 422.325 256.456C424.68 256.753 427.036 256.977 429.375 256.482C429.684 256.419 429.831 256.482 429.899 256.837C430.32 258.948 430.63 261.081 430.825 263.225C430.899 264.487 431.197 265.738 431.391 266.995H355.492C355.246 265.634 354.639 264.388 354.288 263.058C354.105 262.354 353.587 261.525 353.807 261.003C354.027 260.482 355.073 260.758 355.754 260.638C356.727 260.468 357.648 260.081 358.449 259.505C359.249 258.928 359.908 258.179 360.376 257.312C360.843 256.446 361.107 255.485 361.148 254.502C361.189 253.519 361.006 252.539 360.611 251.637C359.873 249.916 358.471 249.259 356.686 249.244C355.074 249.183 353.461 249.221 351.854 249.358C351.388 249.416 351.148 249.358 351.074 248.774C350.781 246.339 350.431 243.909 350.075 241.474C350.007 240.999 350.205 240.884 350.598 240.78C352.168 240.394 353.707 239.94 354.974 238.861C355.915 238.019 356.593 236.924 356.927 235.708C357.26 234.492 357.234 233.206 356.853 232.003C356.673 231.465 356.37 230.976 355.968 230.575C355.565 230.174 355.074 229.872 354.534 229.693C353.057 229.192 351.536 228.831 349.991 228.614C349.535 228.541 349.42 228.384 349.415 227.946C349.389 226.017 349.415 224.087 349.415 222.153C349.427 221.603 349.552 221.061 349.781 220.56C350.011 220.06 350.34 219.612 350.75 219.243C353.304 216.635 355.325 213.642 357.319 210.623C359.848 206.812 362.133 202.846 364.16 198.748C364.359 198.352 364.548 198.117 365.055 198.159C369.855 198.514 374.671 198.482 379.481 198.462C379.738 198.437 379.997 198.487 380.227 198.605C380.456 198.723 380.646 198.905 380.774 199.129C381.847 200.772 383.104 202.258 384.307 203.822C384.098 204.047 383.836 203.948 383.596 203.942C380.167 203.942 376.749 204.109 373.331 204.203C371.541 204.255 369.761 204.443 367.971 204.38C366.751 204.344 365.563 204.771 364.647 205.575C363.336 206.587 362.274 207.884 361.543 209.367C360.812 210.85 360.431 212.48 360.428 214.132C360.376 216.995 360.329 219.868 360.428 222.721C360.654 230.651 361.706 238.537 363.569 246.25C364.485 249.927 365.244 253.645 366.312 257.285C366.617 258.399 367.011 259.487 367.489 260.539C367.848 261.361 368.398 262.087 369.095 262.654C369.791 263.222 370.614 263.616 371.494 263.804C373.327 264.261 375.209 264.5 377.1 264.513C379.439 264.481 381.811 264.513 384.129 264.513C386.626 264.513 389.102 264.226 391.588 264.101C393.501 264.084 395.41 263.91 397.294 263.579C400.298 262.912 402.968 261.65 404.69 258.928C405.177 258.163 405.508 257.311 405.664 256.419C406.011 254.163 406.206 251.886 406.245 249.604C406.564 241.322 406.302 233.041 406.396 224.76C406.355 224.588 406.35 224.409 406.382 224.235C406.413 224.061 406.481 223.895 406.58 223.748V223.748Z" fill="#F69118"/>
<path d="M299.385 100.391C299.393 100.612 299.35 100.832 299.259 101.033C299.169 101.235 299.032 101.413 298.861 101.554C298.27 102.075 297.689 102.654 297.061 103.155C293.763 105.804 292.046 109.314 291.209 113.381C290.256 117.986 289.44 122.617 288.806 127.273C288.623 128.64 288.471 130.006 288.335 131.372C288.251 132.233 287.812 132.827 287.163 132.9C286.294 132.999 285.718 132.582 285.467 131.649C284.849 129.349 284.273 127.044 283.635 124.749C282.331 120.098 281.049 115.436 279.295 110.915C278.468 108.792 276.867 107.316 275.244 105.846C274.077 104.821 272.854 103.862 271.58 102.972C271.015 102.571 270.496 102.07 270.69 101.288C270.784 100.947 270.98 100.643 271.251 100.415C271.521 100.187 271.855 100.046 272.208 100.01C273.749 99.6803 275.252 99.1945 276.694 98.5605C277.368 98.267 277.974 97.8373 278.473 97.2988C278.972 96.7603 279.354 96.1245 279.594 95.4316C281.105 91.3163 282.36 87.1121 283.352 82.843C283.407 82.2623 283.689 81.7264 284.137 81.3515C284.374 81.1945 284.646 81.098 284.93 81.0706C285.213 81.0432 285.499 81.0858 285.762 81.1945C286.024 81.3033 286.256 81.4749 286.437 81.6942C286.617 81.9135 286.741 82.1737 286.796 82.4519C287.089 83.4948 287.32 84.59 287.581 85.6642C288.236 88.4177 289.021 91.1346 289.832 93.8463C290.507 96.0887 292.02 97.2099 294.156 97.7835C295.323 98.0964 296.506 98.305 297.684 98.5657C298.861 98.8265 299.395 99.4575 299.385 100.391Z" fill="#FED77B"/>
<path d="M270.947 141.28C270.528 141.218 270.392 140.915 270.287 140.555C269.648 138.318 268.916 136.107 268.24 133.875C267.697 131.951 266.44 130.305 264.723 129.271C264.493 129.125 264.257 128.973 264.037 128.806C263.817 128.64 263.613 128.436 263.686 128.113C263.72 127.977 263.794 127.855 263.899 127.762C264.003 127.669 264.134 127.609 264.273 127.591C265.04 127.441 265.789 127.21 266.508 126.903C267.02 126.682 267.426 126.273 267.644 125.761C268.292 124.158 268.837 122.515 269.277 120.843C269.277 120.77 269.308 120.697 269.324 120.624C269.439 120.165 269.612 119.707 270.167 119.707C270.721 119.707 270.926 120.186 271.056 120.666C271.371 121.824 271.758 122.971 271.999 124.144C272.344 125.85 273.422 126.627 275.061 126.856C275.663 126.94 276.469 126.856 276.631 127.638C276.762 128.316 275.998 128.525 275.584 128.874C274.342 129.834 273.461 131.182 273.082 132.702C272.453 135.227 271.995 137.792 271.711 140.378C271.622 140.842 271.475 141.207 270.947 141.28Z" fill="#FED77B"/>
<path d="M285.723 155.402C285.325 155.366 285.31 155.027 285.226 154.75C284.797 153.285 284.341 151.83 283.97 150.349C283.638 149.103 282.855 148.024 281.771 147.319C281.515 147.137 281.159 146.98 281.248 146.579C281.337 146.177 281.719 146.198 282.022 146.125C282.485 146.051 282.913 145.837 283.251 145.514C283.588 145.191 283.819 144.773 283.912 144.315C284.142 143.372 284.436 142.443 284.708 141.499C284.786 141.218 284.87 140.936 285.231 140.941C285.592 140.947 285.697 141.207 285.755 141.489C286.001 142.407 286.278 143.319 286.472 144.248C286.538 144.607 286.717 144.937 286.984 145.189C287.25 145.441 287.589 145.603 287.953 145.65C288.22 145.708 288.476 145.765 288.754 145.849C289.277 146.021 289.429 146.427 288.989 146.73C286.77 148.294 286.849 150.73 286.372 152.988C286.241 153.645 286.173 154.318 286.09 154.99C286.048 155.199 285.969 155.361 285.723 155.402Z" fill="#FED77B"/>
<path d="M321.238 129.526C319.1 128.247 316.875 127.116 314.58 126.142C311.052 124.578 307.969 122.325 304.918 120.009C304.624 119.821 304.405 119.538 304.298 119.207C304.192 118.876 304.203 118.518 304.331 118.195C307.116 107.551 310.613 97.1423 315.376 87.208C317.925 81.9097 321.416 77.2007 325.232 72.7316C329.46 67.8068 334.141 63.2867 339.213 59.2304C340.551 58.2053 341.949 57.2614 343.401 56.4039C343.924 56.0858 344.113 56.1119 344.285 56.7325C344.997 59.3399 345.793 61.8795 346.693 64.4087C347.337 66.3825 348.597 68.0998 350.289 69.3107C350.974 69.7874 351.755 70.1098 352.577 70.2557C353.4 70.4016 354.245 70.3674 355.053 70.1555C356.853 69.7383 357.612 68.3147 358.031 66.6928C358.259 65.5605 358.348 64.4048 358.298 63.251C358.329 59.0583 358.329 54.8656 358.298 50.6728C358.278 50.5601 358.282 50.4444 358.309 50.3332C358.337 50.222 358.388 50.1178 358.458 50.0274C358.529 49.937 358.617 49.8623 358.719 49.8082C358.82 49.7541 358.932 49.7218 359.046 49.7133C360.826 49.2596 362.611 48.8529 364.417 48.5139C364.94 48.4148 365.003 48.5817 364.94 49.0354C364.207 53.7461 363.703 58.4795 363.428 63.2354C363.239 66.4008 363.14 69.5454 363.851 72.6691C364.312 74.6768 365.061 76.4342 367.301 76.9869C369.735 77.5866 372.012 77.3259 373.922 75.5372C374.845 74.6034 375.559 73.4855 376.016 72.2571C377.194 69.5193 377.738 66.6042 378.408 63.7256C379.685 58.2187 381.549 52.8944 383.37 47.5596C383.486 47.2154 383.616 47.0381 384.04 47.0381C386.03 47.0381 388.013 47.1632 390.002 47.278C390.625 47.3145 390.662 47.5074 390.526 48.0393C389.385 52.8161 388.258 57.5964 387.144 62.3802C386.741 64.1115 386.391 65.8585 385.967 67.595C385.443 69.7227 387.417 71.7669 389.5 71.8816C393.619 72.1476 396.88 70.8386 399.157 67.0683C402.281 62.024 404.613 56.5337 406.072 50.7876C406.203 50.2661 406.381 50.2296 406.841 50.3704C416.827 53.4328 425.965 58.7592 433.537 65.9315C443.199 75.0209 449.439 86.1494 453.6 98.5712C455.351 103.907 456.712 109.362 457.672 114.894C457.718 115.207 457.691 115.527 457.594 115.829C457.497 116.131 457.332 116.407 457.112 116.635C452.838 122.459 447.197 127.15 440.682 130.298C437.347 131.951 433.757 132.864 430.181 133.813C429.253 134.038 428.343 134.333 427.46 134.694C425.528 134.94 423.649 134.47 421.77 134.173C415.244 133.203 408.754 132.026 402.298 130.642C401.984 130.575 401.638 130.559 401.424 130.257C401.476 129.704 401.947 129.808 402.277 129.735C405.973 128.979 409.673 128.249 413.374 127.514C413.647 127.472 413.917 127.409 414.18 127.326C414.389 127.253 414.656 127.18 414.573 126.877C414.489 126.575 414.253 126.664 414.049 126.69C413.447 126.768 412.856 126.883 412.264 126.997L401.314 129.172C400.84 129.254 400.417 129.518 400.136 129.907C399.77 130.137 399.403 129.959 399.047 129.876C394.489 128.726 390.022 127.241 385.684 125.433C383.109 124.416 380.586 123.3 378.042 122.215C377.695 122.07 377.336 121.955 376.969 121.871C375.33 120.745 373.441 120.531 371.536 120.307C369.049 120.009 366.573 120.239 364.098 120.307C363.606 120.297 363.117 120.387 362.662 120.571C362.207 120.756 361.794 121.032 361.449 121.381C356.874 122.805 352.257 124.108 347.63 125.36C345.908 125.829 344.181 126.267 342.448 126.69C342.115 126.816 341.755 126.859 341.401 126.815C339.009 125.892 336.512 125.287 334.073 124.494C333.262 124.228 332.435 124.02 331.623 123.748C331.346 123.66 331.027 123.608 330.875 123.3C330.864 123.188 330.88 123.076 330.923 122.972C330.966 122.868 331.034 122.777 331.121 122.705C331.55 122.205 331.829 121.595 331.927 120.945C332.025 120.295 331.938 119.63 331.676 119.026C331.414 118.423 330.987 117.905 330.443 117.531C329.9 117.157 329.263 116.943 328.603 116.912C327.111 116.677 325.593 116.661 324.096 116.865C323.133 116.952 322.234 117.381 321.563 118.075C321.241 118.436 320.997 118.859 320.848 119.319C320.698 119.779 320.647 120.264 320.696 120.745C320.745 121.225 320.894 121.69 321.134 122.111C321.373 122.531 321.697 122.897 322.086 123.185C322.947 123.763 323.95 124.095 324.986 124.145C326.42 124.26 327.849 124.374 329.247 123.9C330.207 124.075 331.151 124.33 332.068 124.661C334.303 125.308 336.523 126.012 338.747 126.7C339.004 126.783 339.465 126.726 339.376 127.222C339.11 127.456 338.772 127.59 338.418 127.602C334.495 128.389 330.524 128.912 326.53 129.167C324.798 129.354 323.039 129.563 321.238 129.526Z" fill="#F69118"/>
<path d="M377.084 121.762C377.435 121.732 377.787 121.818 378.084 122.007C384.145 124.614 390.217 127.222 396.587 129.026C397.744 129.354 398.917 129.626 400.084 129.923C400.547 129.877 401.014 129.964 401.429 130.173C404.046 130.862 406.721 131.331 409.385 131.831C414.447 132.796 419.519 133.657 424.623 134.361C425.565 134.486 426.517 134.564 427.465 134.668C426.941 134.924 426.418 135.148 425.895 135.435C425.434 135.685 425.028 136.023 424.7 136.432C424.373 136.84 424.13 137.309 423.987 137.812C423.844 138.315 423.804 138.841 423.868 139.36C423.932 139.878 424.1 140.379 424.361 140.832C425.266 142.45 426.719 143.696 428.459 144.347C431.487 145.539 434.705 146.184 437.96 146.251C444.67 146.443 451.218 145.604 457.479 143.038C458.002 142.83 458.526 142.626 458.997 142.371C459.468 142.115 459.944 141.813 460.567 141.442C460.567 141.933 460.567 142.345 460.567 142.751C460.682 144.837 460.698 146.923 460.714 149.009C460.726 149.228 460.675 149.446 460.568 149.637C460.46 149.828 460.3 149.985 460.106 150.089C454.014 154.261 447.256 157.035 440.446 159.731C439.399 160.138 438.352 160.503 437.363 160.967C434.076 162.49 433.699 166.276 436.615 168.429C438.893 170.112 441.632 171.063 444.466 171.157C448.153 171.361 451.836 170.678 455.202 169.165C455.278 169.11 455.37 169.081 455.464 169.081C455.557 169.081 455.649 169.11 455.725 169.165C455.495 169.498 455.28 169.842 455.024 170.161C451.002 175.232 446.173 179.614 440.729 183.13C433.914 187.577 426.347 190.757 418.394 192.517C415.714 193.09 413.002 193.502 410.296 193.909C409.888 193.972 409.773 193.716 409.563 193.507C403.921 187.385 398.187 181.348 392.363 175.396C390.536 173.529 388.662 171.704 386.82 169.848C385.021 168.082 382.95 166.616 380.685 165.504C379.115 164.69 377.45 164.257 375.697 165.008C374.838 164.862 373.99 165.092 373.137 165.123C371.337 165.18 369.52 165.003 367.73 165.384C367.359 165.462 366.997 165.572 366.626 165.634C365.809 165.316 364.972 165.055 364.129 164.815C363.439 164.612 362.714 164.55 361.999 164.633C361.284 164.715 360.593 164.94 359.968 165.295C357.902 166.411 356.084 167.931 354.623 169.764C348.865 177.023 343.322 184.47 337.837 191.943C337.668 192.251 337.395 192.491 337.067 192.619C336.738 192.746 336.375 192.755 336.041 192.642C332.901 191.948 329.723 191.63 326.708 190.556C322.175 188.944 318.229 186.306 314.413 183.458C311.543 181.401 309.047 178.87 307.032 175.975C306.875 175.751 306.739 175.511 306.598 175.276C307.255 174.866 307.957 174.533 308.692 174.286C309.157 174.077 309.487 174.39 309.786 174.729C310.34 175.365 310.351 175.36 310.974 174.844C311.213 174.661 311.48 174.517 311.764 174.416C313.56 173.681 315.428 173.081 317.255 172.512C318.161 172.236 318.422 172.356 318.784 173.206C319.196 174.066 319.681 174.889 320.233 175.667C320.945 176.789 322.17 176.935 323.264 177.331C323.401 177.368 323.546 177.357 323.676 177.3C323.805 177.243 323.911 177.144 323.976 177.018C324.404 176.485 324.996 176.105 325.661 175.939C326.979 175.514 328.268 175.003 329.519 174.411C329.732 174.27 329.987 174.207 330.242 174.233C331.142 174.416 331.869 174.009 332.581 173.587C332.881 173.357 333.226 173.192 333.594 173.102C333.962 173.012 334.344 173 334.717 173.065C335.15 173.1 335.58 172.969 335.921 172.7C337.491 171.845 338.538 170.447 339.449 168.961C340.079 168.045 340.471 166.988 340.59 165.884C340.587 165.731 340.635 165.581 340.726 165.457C341.611 164.602 342.354 163.6 343.39 162.907C343.48 162.858 343.573 162.815 343.668 162.776C344.715 162.224 344.804 161.926 344.16 160.899C343.703 160.14 343.154 159.44 342.527 158.813C342.37 158.662 342.165 158.458 342.302 158.224C342.438 157.989 342.699 158.041 342.924 158.078C344.113 158.306 345.329 158.35 346.531 158.208C348.196 157.97 349.707 157.11 350.76 155.804C353.22 152.847 353.456 149.546 351.99 146.073C351.802 145.625 351.467 145.208 351.614 144.66C351.661 144.66 351.734 144.608 351.755 144.634C352.844 145.839 354.456 146.532 354.78 148.456C355.466 152.503 357.617 155.851 360.172 158.996C361.269 160.377 362.63 161.529 364.176 162.385C365.722 163.24 367.423 163.783 369.18 163.981C371.852 164.327 374.566 163.851 376.958 162.615C380.457 160.939 383.386 158.279 385.386 154.965C386.355 153.225 386.975 151.314 387.213 149.338C387.25 148.981 387.379 148.641 387.587 148.348C387.795 148.056 388.075 147.822 388.401 147.669C389.762 146.918 390.583 145.625 391.363 144.321C392.166 142.949 392.619 141.402 392.682 139.815C392.697 139.494 392.797 139.181 392.972 138.911C393.148 138.64 393.393 138.422 393.682 138.277C394.616 137.718 395.383 136.92 395.904 135.967C396.425 135.013 396.68 133.938 396.645 132.854C396.643 131.734 396.214 130.657 395.446 129.839C395.001 129.318 394.546 129.266 394.122 129.589C393.698 129.912 393.666 130.335 394.033 130.919C395.394 133.099 394.823 135.414 392.641 136.801C390.159 138.366 387.406 138.736 384.585 138.501C381.432 138.276 378.356 137.423 375.54 135.993C374.142 135.236 372.932 134.177 371.996 132.895C371.473 132.243 371.541 132.066 372.226 131.555C373.985 130.231 375.603 128.781 376.697 126.825C377.269 125.846 377.585 124.74 377.618 123.608C377.675 122.898 377.168 122.403 377.084 121.762Z" fill="#FCFAF4"/>
<path d="M406.58 223.748C406.58 231.325 406.611 238.908 406.538 246.485C406.572 249.747 406.357 253.007 405.894 256.237C405.449 258.943 403.863 260.81 401.555 262.161C399.609 263.281 397.432 263.942 395.19 264.095C388.791 264.636 382.368 264.838 375.948 264.7C374.284 264.654 372.632 264.397 371.033 263.934C370.154 263.696 369.343 263.255 368.667 262.646C367.991 262.037 367.469 261.277 367.144 260.429C366.074 257.64 365.232 254.77 364.626 251.846C363.532 247.21 362.36 242.589 361.59 237.88C360.958 233.992 360.542 230.071 360.344 226.137C360.135 222.079 360.015 218.017 360.177 213.949C360.334 209.976 362.124 206.972 365.364 204.75C365.844 204.425 366.407 204.244 366.987 204.229C372.195 203.989 377.403 203.791 382.617 203.77C383.172 203.77 383.721 203.817 384.276 203.838C388.579 209.1 393.41 213.871 398.152 218.726C400.356 221.094 403.184 222.796 406.313 223.639C406.405 223.668 406.494 223.705 406.58 223.748V223.748Z" fill="#FDFAF3"/>
<path d="M351.692 144.628C352.001 145.817 352.739 146.84 352.954 148.07C353.671 152.597 351.86 156.758 347.41 158.224C346.005 158.621 344.52 158.645 343.102 158.291C342.851 158.2 342.574 158.2 342.322 158.291C343.134 159.01 343.829 159.849 344.385 160.779C344.547 161.03 344.691 161.294 344.814 161.566C344.857 161.643 344.883 161.728 344.891 161.816C344.9 161.904 344.89 161.992 344.862 162.076C344.835 162.159 344.79 162.236 344.731 162.302C344.673 162.368 344.601 162.421 344.521 162.458C344.137 162.739 343.716 162.967 343.27 163.136C343.102 163.183 342.867 163.198 342.835 163.386C342.715 164.205 341.972 164.429 341.464 164.872C341.3 164.983 341.161 165.124 341.053 165.289C340.945 165.454 340.871 165.638 340.836 165.832C340.695 167.699 339.669 169.138 338.606 170.572C337.837 171.631 336.818 172.483 335.638 173.055C335.503 173.148 335.35 173.211 335.188 173.241C335.027 173.271 334.861 173.266 334.701 173.227C333.947 172.914 333.393 173.336 332.806 173.654C332.021 174.071 331.288 174.661 330.289 174.332C330.089 174.322 329.892 174.379 329.729 174.494C328.411 175.116 327.056 175.656 325.672 176.11C325.096 176.324 324.479 176.491 324.175 177.153C324.112 177.294 324.001 177.408 323.863 177.476C323.724 177.543 323.566 177.56 323.416 177.524C322.181 177.06 320.799 176.898 320.019 175.563C319.446 174.746 318.961 173.872 318.569 172.955C318.412 172.46 318.045 172.434 317.663 172.564C315.57 173.221 313.476 173.889 311.482 174.723C311.343 174.778 311.218 174.862 311.115 174.968C310.529 175.578 310.199 175.605 309.77 174.911C309.341 174.217 308.99 174.249 308.404 174.582C307.87 174.914 307.276 175.135 306.655 175.234C305.017 173.008 303.991 170.484 303.023 167.934C302.429 166.428 301.92 164.891 301.5 163.329C304.153 164.346 306.807 165.138 309.644 164.998C313 164.831 315.224 162.912 316.868 160.205C317.606 159.006 317.517 157.598 317.119 156.252C316.979 155.834 316.754 155.45 316.458 155.123C316.161 154.796 315.8 154.534 315.397 154.354C313.183 153.144 310.806 152.299 308.519 151.256C306.781 150.464 305.049 149.692 303.243 149.051C302.086 148.644 301.254 147.71 300.27 147.017C300.097 146.897 300.102 146.725 300.118 146.542C300.353 143.544 300.641 140.545 300.997 137.557C300.997 137.437 301.044 137.317 301.091 137.103C303.337 138.487 305.823 139.442 308.419 139.919C310.901 140.441 313.387 140.822 315.857 139.846C317.977 139.017 319.863 137.687 321.354 135.972C322.242 134.961 322.736 133.665 322.746 132.321C322.802 131.767 322.694 131.209 322.435 130.715C322.177 130.221 321.779 129.814 321.291 129.542C322.4 129.14 323.573 129.276 324.714 129.187C329.557 128.891 334.373 128.263 339.13 127.31C339.251 127.276 339.37 127.232 339.485 127.18C339.586 127.104 339.708 127.06 339.834 127.054C339.96 127.049 340.085 127.081 340.192 127.148C340.415 127.265 340.675 127.289 340.917 127.216C341.158 127.143 341.36 126.978 341.48 126.757C347.897 125.224 354.231 123.394 360.549 121.506C360.836 121.417 361.13 121.36 361.423 121.292C361.611 121.527 361.47 121.767 361.423 122.006C361.115 123.343 361.323 124.747 362.004 125.938C363.362 128.212 365.24 130.135 367.484 131.55C368.28 132.071 368.343 132.264 367.714 132.994C365.534 135.554 362.434 137.161 359.078 137.468C355.919 137.847 352.717 137.377 349.802 136.107C348.106 135.362 346.62 133.323 347.321 131.122C347.478 130.6 347.677 130.131 347.787 129.615C347.897 129.099 347.855 128.624 347.29 128.421C346.725 128.217 346.411 128.556 346.191 128.984C344.62 132.113 345.233 135.794 348.593 137.448C349.091 137.636 349.524 137.961 349.842 138.386C350.16 138.811 350.35 139.318 350.389 139.846C350.589 141.265 350.994 142.648 351.593 143.95C351.687 144.149 351.865 144.368 351.692 144.628Z" fill="#FCFAF5"/>
<path d="M387.422 171.98C391.861 176.366 396.179 180.846 400.466 185.393C404.612 189.774 408.841 194.102 412.699 198.727C415.51 202.091 417.745 205.861 420.001 209.606C420.159 209.921 420.244 210.269 420.247 210.622C420.453 212.243 420.453 213.883 420.247 215.504C419.791 218.486 417.875 220.489 415.347 221.913C412.51 223.508 409.506 223.341 406.48 222.486C403.84 221.775 401.436 220.378 399.513 218.44C394.206 213.047 388.835 207.718 384.103 201.783C380.502 197.129 377.529 192.023 375.262 186.598C374.545 184.945 373.865 183.271 373.169 181.607C373.383 181.232 373.875 181.294 374.132 180.992C376.623 179.307 379.324 177.946 381.638 176.001C383.208 174.677 384.951 173.576 386.626 172.387C386.85 172.183 387.125 172.042 387.422 171.98V171.98Z" fill="#F69118"/>
<path d="M369.745 180.991C368.081 186.644 365.981 192.161 363.464 197.491C360.427 203.778 356.778 209.753 352.571 215.331C350.42 218.146 347.905 220.666 345.091 222.825C344.065 223.691 342.815 224.252 341.483 224.442C340.152 224.632 338.793 224.444 337.564 223.899C337.091 223.722 336.658 223.45 336.293 223.101C333.864 220.635 331.937 217.834 331.493 214.346C331.137 211.296 331.411 208.206 332.299 205.267C333.262 201.913 334.916 198.894 336.722 195.916C340.909 189.038 346.144 182.947 350.855 176.455C351.001 176.251 351.163 176.063 351.32 175.865C351.395 175.852 351.471 175.852 351.545 175.865C356.565 177.43 361.716 178.572 366.725 180.225C367.414 180.407 368.113 180.546 368.819 180.642C369.102 180.715 369.499 180.673 369.745 180.991Z" fill="#F69118"/>
<path d="M435.421 64.6224C433.584 62.9119 431.757 61.1962 429.695 59.6213C433.783 56.8992 437.965 54.6777 442.854 54.0832C446.627 53.5462 450.472 53.858 454.108 54.9958C457.133 55.9918 459.473 57.9891 461.635 60.2523C463.535 62.234 465.398 64.2208 466.592 66.7448C467.656 69.1052 468.265 71.6436 468.387 74.2281C468.608 77.1345 468.46 80.0569 467.948 82.9265C467.482 85.4557 466.126 87.5573 464.524 89.5337C462.193 92.3886 459.21 94.6468 455.825 96.12C455.49 96.2713 455.207 96.4642 455.029 95.9062C454.286 93.6169 453.333 91.4058 452.412 89.1791C452.564 88.7932 452.935 88.6576 453.244 88.449C455.163 87.2306 456.787 85.6026 457.997 83.6826C459.796 80.8309 460.537 77.4418 460.091 74.103C459.52 69.3209 457.05 65.7175 453.019 63.1831C450.208 61.4436 446.878 60.7285 443.597 61.1597C440.829 61.4654 438.205 62.5508 436.034 64.2886C435.874 64.4664 435.658 64.5842 435.421 64.6224Z" fill="#F69118"/>
<path d="M314.617 83.8028C313.4 86.0581 312.298 88.3729 311.314 90.7385C311.141 91.1505 310.995 91.1765 310.618 90.9367C305.415 87.6096 302.091 83.0101 300.966 76.9035C300.536 74.5725 300.762 72.2467 301.039 69.9313C301.426 66.7085 302.269 63.6057 304.18 60.9357C306.483 57.7285 309.116 54.8447 312.675 52.9361C315.067 51.6901 317.681 50.923 320.37 50.6781C324.666 50.1507 329.027 50.7623 333.011 52.4511C335.234 53.4316 337.305 54.7241 339.161 56.2892C337.428 57.7755 335.738 59.2356 334.047 60.6958C333.76 60.5978 333.503 60.4292 333.298 60.2056C331.383 58.7079 329.111 57.7289 326.703 57.3635C322.826 56.7898 318.877 57.7438 315.694 60.023C312.511 62.3022 310.345 65.7273 309.655 69.5714C309.187 71.9071 309.31 74.322 310.014 76.5982C310.717 78.8744 311.979 80.9401 313.685 82.6086C314.036 82.9945 314.491 83.2708 314.617 83.8028Z" fill="#F69118"/>
<path d="M435.421 64.6223C437.584 62.6504 440.307 61.3935 443.215 61.0241C446.986 60.4775 450.824 61.3751 453.956 63.5359C457.089 65.6968 459.283 68.9604 460.096 72.6688C461.577 79.3125 458.557 85.7059 452.433 89.179C451.035 86.1857 449.523 83.2498 447.863 80.392C444.639 74.781 440.624 69.6599 435.939 65.1855C435.756 64.9926 435.578 64.8049 435.421 64.6223Z" fill="#FCF8F2"/>
<path d="M314.617 83.8028C313.126 82.5984 311.892 81.1094 310.987 79.4231C310.081 77.7368 309.524 75.8873 309.346 73.9832C308.734 67.6107 311.183 62.6201 316.585 59.2461C321.05 56.4561 325.824 56.284 330.666 58.3908C331.717 58.8711 332.71 59.4714 333.623 60.1795C333.823 60.298 333.975 60.4825 334.052 60.701C328.077 65.8904 322.745 71.7728 318.171 78.2229C316.904 80.0324 315.763 81.9202 314.617 83.8028Z" fill="#FCF8F3"/>
<path d="M369.745 180.992C367.29 180.804 365.003 179.949 362.674 179.239C359.884 178.41 357.099 177.571 354.246 176.971C353.202 176.812 352.203 176.435 351.315 175.865C352.812 173.884 354.314 171.902 355.911 169.999C356.892 168.921 357.979 167.945 359.156 167.084C361.25 165.41 363.496 165.394 365.793 166.51C367.144 167.167 368.473 167.761 370.018 167.704C370.604 167.704 370.761 168.158 370.871 168.601C371.365 170.649 371.493 172.767 371.248 174.859C370.934 176.944 370.431 178.997 369.745 180.992Z" fill="#FDFAF5"/>
<path d="M453.647 236.191C453.035 233.693 451.381 232.118 449.831 230.454C446.822 227.263 443.393 224.541 439.938 221.855C439.52 221.532 439.368 221.287 439.593 220.755C440.43 218.631 441.129 216.455 441.687 214.241C441.818 213.788 441.948 213.657 442.425 213.923C446.98 216.399 451.299 219.285 455.327 222.544C456.397 223.504 457.264 224.667 457.877 225.964C457.924 226.051 457.949 226.148 457.949 226.246C457.949 226.345 457.924 226.441 457.877 226.528C456.516 229.688 455.118 232.832 453.647 236.191Z" fill="#F69117"/>
<path d="M460.703 189.069C463.464 187.36 466.462 186.063 469.602 185.221C469.769 185.174 469.931 185.132 470.078 185.31C470.544 185.775 471.072 186.173 471.648 186.493C474.977 188.741 476.391 192.177 477.495 195.797C478.107 198.074 478.413 200.422 478.406 202.779C478.406 203.426 478.186 203.702 477.542 203.822C476.026 204.046 474.523 204.35 473.041 204.735C472.517 204.902 472.475 204.495 472.376 204.172C471.73 202.062 470.873 200.023 469.816 198.086C468.045 195.004 465.581 192.374 462.619 190.399C461.996 189.977 461.389 189.539 460.703 189.069Z" fill="#F69117"/>
<path d="M465.466 211.405C465.448 211.613 465.364 211.81 465.226 211.968C464.609 212.853 464.054 213.78 463.566 214.742C463.352 215.196 463.189 215.154 462.902 214.8C460.162 211.472 456.764 208.741 452.92 206.779C450.901 205.741 448.8 204.869 446.638 204.172C446.115 203.989 445.989 203.843 446.282 203.306C447.438 201.047 448.842 198.924 450.47 196.975C450.533 196.872 450.616 196.782 450.715 196.711C450.813 196.639 450.924 196.588 451.043 196.56C451.161 196.532 451.284 196.528 451.404 196.547C451.524 196.566 451.639 196.609 451.742 196.673C454.202 197.778 456.699 198.821 458.714 200.667C460.635 202.435 462.001 204.646 463.357 206.852C464.216 208.092 464.879 209.455 465.325 210.894C465.414 211.087 465.414 211.254 465.466 211.405Z" fill="#F69117"/>
<path d="M440.697 254.281C439.65 247.767 436.667 242.193 432.532 237.192C432.421 237.096 432.33 236.979 432.265 236.848C432.2 236.717 432.163 236.574 432.154 236.428C432.146 236.282 432.167 236.136 432.217 235.999C432.266 235.861 432.343 235.735 432.443 235.627C433.327 234.254 434.112 232.82 434.793 231.335C434.913 231.101 434.976 230.772 435.353 231.137C437.97 233.656 440.729 236.076 442.969 238.96C444.728 241.233 446.057 243.778 447.434 246.286C447.516 246.396 447.558 246.531 447.553 246.667C447.547 246.804 447.494 246.935 447.403 247.037C445.397 249.588 443.222 252.001 440.891 254.26C440.86 254.27 440.812 254.26 440.697 254.281Z" fill="#F69116"/>
<path d="M387.422 171.981C386.953 172.435 386.425 172.824 385.852 173.138C383.873 174.468 381.999 175.933 380.094 177.373C378.188 178.812 376.116 179.792 374.205 181.122C373.792 181.226 373.383 181.644 372.975 181.122C372.602 180.194 372.228 179.267 371.855 178.343C371.772 178.182 371.753 177.995 371.803 177.821C372.618 174.805 372.702 171.64 372.049 168.586C372.572 168.831 372.891 168.539 373.205 168.241C373.9 167.591 374.648 166.998 375.44 166.468C375.989 166.064 376.637 165.814 377.316 165.746C377.995 165.678 378.68 165.794 379.298 166.083C381.355 166.967 383.262 168.163 384.951 169.629C385.852 170.374 386.616 171.198 387.422 171.981Z" fill="#FDFAF5"/>
<path d="M378.843 196.297C374.284 196.297 369.908 196.219 365.443 195.989C367.724 190.778 369.668 185.427 371.263 179.969C373.398 185.584 375.931 191.04 378.843 196.297V196.297Z" fill="#FDFAF4"/>
<path d="M419.137 205.986C416.939 202.508 414.698 199.061 411.809 195.917L414.829 195.437C415.054 195.406 415.164 195.473 415.264 195.718C416.604 199.092 418.106 202.404 419.32 205.83C419.352 205.986 419.273 205.986 419.137 205.986Z" fill="#F69118"/>
<path d="M366.657 165.587C367.139 164.799 367.976 165.18 368.636 165.013C370.237 164.617 371.897 165.013 373.525 164.846C373.87 164.81 374.216 164.773 374.571 164.726C374.927 164.68 375.43 164.507 375.739 164.961C374.322 165.783 373.03 166.801 371.902 167.986C371.509 166.776 370.578 166.479 369.478 166.505C368.464 166.507 367.475 166.185 366.657 165.587V165.587Z" fill="#FCFAF5"/>
<path d="M373.006 181.117C373.415 181.44 373.828 181.059 374.236 181.117C373.96 181.402 373.587 181.574 373.19 181.602L373.006 181.117Z" fill="#F7DAB5"/>
<path d="M419.137 205.987L419.294 205.83L419.65 206.591C419.526 206.534 419.415 206.45 419.327 206.345C419.238 206.241 419.173 206.118 419.137 205.987Z" fill="#A86016"/>
<path d="M351.692 144.628C350.865 142.939 350.312 141.129 350.054 139.267C350.038 138.957 349.93 138.659 349.744 138.41C349.557 138.161 349.301 137.973 349.007 137.87C348.16 137.519 347.399 136.989 346.778 136.317C346.158 135.644 345.691 134.845 345.412 133.974C345.132 133.104 345.046 132.183 345.16 131.276C345.274 130.37 345.584 129.498 346.07 128.723C346.127 128.596 346.208 128.481 346.31 128.386C346.411 128.291 346.531 128.217 346.662 128.168C346.792 128.12 346.931 128.098 347.071 128.103C347.21 128.109 347.347 128.142 347.473 128.202C347.611 128.252 347.737 128.331 347.843 128.434C347.948 128.536 348.031 128.659 348.085 128.796C348.139 128.932 348.164 129.078 348.158 129.225C348.152 129.371 348.115 129.515 348.049 129.646C347.813 130.279 347.614 130.925 347.452 131.581C347.291 132.388 347.401 133.226 347.767 133.964C348.132 134.702 348.732 135.3 349.473 135.664C354.215 137.75 358.999 138.178 363.81 135.805C365.354 135.002 366.716 133.893 367.814 132.546C368.091 132.222 368.049 132.113 367.688 131.894C365.337 130.505 363.361 128.567 361.93 126.246C361.45 125.522 361.152 124.693 361.061 123.83C360.97 122.967 361.088 122.095 361.407 121.287C361.999 120.327 363.019 120.176 363.972 120.129C366.558 119.999 369.149 119.795 371.74 120.129C372.919 120.213 374.085 120.421 375.221 120.75C375.92 120.961 376.567 121.317 377.121 121.793C378.168 122.867 378.031 124.129 377.644 125.38C376.985 127.263 375.828 128.933 374.294 130.215C373.638 130.802 372.948 131.351 372.226 131.857C371.818 132.144 371.871 132.311 372.127 132.665C373.518 134.562 375.466 135.982 377.702 136.728C381.141 137.985 384.721 138.663 388.469 138.193C390.122 137.963 391.693 137.327 393.038 136.342C393.452 136.058 393.804 135.694 394.073 135.27C394.341 134.847 394.521 134.374 394.6 133.88C394.68 133.386 394.658 132.88 394.537 132.395C394.415 131.909 394.195 131.453 393.892 131.054C393.441 130.402 393.483 129.776 394.007 129.38C394.129 129.29 394.269 129.225 394.418 129.191C394.567 129.156 394.721 129.153 394.871 129.18C395.021 129.207 395.164 129.265 395.291 129.35C395.418 129.435 395.526 129.544 395.608 129.672C396.229 130.338 396.655 131.161 396.839 132.051C397.024 132.94 396.96 133.864 396.655 134.72C396.417 135.569 396.008 136.361 395.453 137.048C394.897 137.735 394.208 138.302 393.426 138.715C393.277 138.775 393.151 138.881 393.067 139.016C392.982 139.152 392.943 139.311 392.955 139.471C392.857 142.088 391.842 144.588 390.086 146.537C389.605 147.188 388.953 147.695 388.202 148.002C388.002 148.07 387.829 148.198 387.708 148.37C387.587 148.541 387.523 148.747 387.527 148.957C386.344 156.779 381.533 161.53 374.231 163.73C369.028 165.295 364.385 163.704 360.622 159.751C358.272 157.223 356.431 154.268 355.199 151.048C354.796 149.837 354.486 148.598 354.273 147.34C354.25 147.206 354.2 147.079 354.127 146.965C354.053 146.851 353.956 146.753 353.843 146.678C353.036 146.096 352.312 145.406 351.692 144.628V144.628Z" fill="#4D2512"/>
<path d="M404.727 120.103C401.869 119.978 399.058 119.634 396.488 118.226C394.844 117.323 393.53 116.114 393.007 114.252C392.731 113.173 392.828 112.034 393.282 111.017C393.736 110 394.52 109.164 395.509 108.646C396.951 107.861 398.578 107.476 400.22 107.53C402.917 107.515 405.602 107.879 408.197 108.609C408.313 108.652 408.427 108.7 408.537 108.755C409.757 109.272 410.918 109.915 412.003 110.674C413.248 111.634 414.138 112.76 414.29 114.382C414.35 114.925 414.234 115.473 413.96 115.947C413.387 117.033 412.536 117.951 411.495 118.606C409.46 119.819 407.086 120.344 404.727 120.103V120.103Z" fill="#4D2411"/>
<path d="M350.185 116.953C348.841 118.039 347.198 118.691 345.474 118.826C343.532 119.071 341.574 119.347 339.606 119.034C337.599 118.755 335.724 117.879 334.225 116.521C332.733 115.128 332.765 113.621 333.906 111.827C334.486 110.977 335.192 110.219 335.999 109.58C337.381 108.438 339.082 108.088 340.773 107.906C343.045 107.678 345.337 107.783 347.578 108.219C348.47 108.389 349.299 108.798 349.975 109.402C351.519 110.805 352.378 112.443 351.781 114.586C351.502 115.518 350.946 116.344 350.185 116.953V116.953Z" fill="#4D2411"/>
<path d="M426.994 125.516C425.008 125.967 422.948 125.988 420.953 125.579C420.046 125.339 419.249 124.796 418.695 124.042C418.14 123.288 417.862 122.367 417.907 121.433C418 120.543 418.37 119.705 418.965 119.036C419.56 118.366 420.35 117.899 421.225 117.699C423.047 117.199 424.975 117.239 426.774 117.814C426.897 117.83 427.022 117.83 427.146 117.814C427.568 117.978 427.976 118.177 428.365 118.408V118.408C429.935 119.701 430.459 121.141 429.862 122.888C429.642 123.529 429.264 124.106 428.763 124.565C428.262 125.024 427.654 125.351 426.994 125.516V125.516Z" fill="#FEA172"/>
<path d="M329.32 124.066C327.98 124.723 326.562 124.478 325.169 124.4C324.086 124.382 323.029 124.059 322.123 123.467C321.503 123.07 321.02 122.493 320.739 121.814C320.458 121.135 320.393 120.387 320.553 119.67C320.651 119.046 320.923 118.463 321.339 117.986C321.755 117.509 322.297 117.158 322.903 116.974C324.217 116.547 325.609 116.415 326.981 116.588C327.551 116.651 328.143 116.5 328.687 116.771C331.712 117.391 332.979 120.567 331.105 122.83C330.932 123.044 330.765 123.263 330.456 123.279C329.984 123.236 329.518 123.138 329.069 122.987C328.823 122.95 328.546 122.872 328.436 123.19C328.326 123.508 328.603 123.566 328.802 123.67C329.001 123.774 329.257 123.8 329.32 124.066Z" fill="#FEA172"/>
<path d="M359.366 80.2148C359.36 79.7059 359.426 79.1988 359.559 78.7077C359.606 78.4991 359.716 78.3062 359.941 78.3062C360.166 78.3062 360.255 78.52 360.287 78.7286C360.318 78.9371 360.339 79.0779 360.365 79.25C360.69 81.4611 362.459 82.1912 364.469 81.7114C365.056 81.5662 365.596 81.2756 366.039 80.8666C366.186 80.7363 366.327 80.5537 366.563 80.6685C366.798 80.7832 366.798 80.9762 366.804 81.19C366.826 81.8425 366.933 82.4893 367.123 83.1142C367.229 83.5289 367.44 83.9097 367.734 84.2209C368.029 84.532 368.399 84.7631 368.808 84.8925C371.033 85.6852 372.677 85.1376 373.917 83.1403C374.274 82.5928 374.564 82.0045 374.781 81.3881C374.844 81.2004 374.844 80.9605 375.095 80.924C375.346 80.8875 375.461 81.1482 375.55 81.336C375.764 81.849 376.11 82.2962 376.555 82.6317C376.999 82.9671 377.525 83.1786 378.078 83.2446C378.841 83.3758 379.624 83.2103 380.267 82.7822C380.91 82.3542 381.363 81.6964 381.533 80.9449C381.69 80.2356 381.8 79.516 381.926 78.8016C381.962 78.6243 382.01 78.4365 382.219 78.4209C382.428 78.4052 382.512 78.5878 382.528 78.7703C382.638 80.1679 382.857 81.555 382.182 82.9056C381.177 84.9029 379.565 85.6799 377.382 85.0698C376.707 84.8769 375.985 84.3606 375.398 84.491C374.812 84.6213 374.488 85.4296 374.001 85.8885C373.067 86.748 371.845 87.2305 370.574 87.2421C369.303 87.2537 368.072 86.7935 367.123 85.9511C366.498 85.4307 365.967 84.8082 365.553 84.1103C365.514 84.0122 365.456 83.9232 365.381 83.8491C365.306 83.775 365.216 83.7174 365.118 83.68C365.019 83.6427 364.914 83.6264 364.808 83.6322C364.703 83.6381 364.6 83.6659 364.506 83.7139C363.709 83.9666 362.864 84.0239 362.04 83.8808C360.669 83.5784 359.261 82.6136 359.366 80.2148Z" fill="#4D2512"/>
<path d="M397.686 93.1165C400.675 93.226 403.675 93.2834 406.496 94.4723C407.52 94.8958 408.513 95.3889 409.469 95.9481C410.176 96.3653 410.375 96.939 410.055 97.5126C409.983 97.6547 409.881 97.779 409.755 97.8764C409.628 97.9739 409.482 98.0422 409.326 98.0761C409.17 98.1101 409.009 98.109 408.853 98.0728C408.698 98.0367 408.552 97.9664 408.427 97.8672C404.763 95.557 400.665 95.2963 396.509 95.2598C396.158 95.2598 395.807 95.2598 395.462 95.2598C395.323 95.2668 395.184 95.2462 395.054 95.1992C394.923 95.1522 394.803 95.0798 394.701 94.9861C394.598 94.8924 394.516 94.7793 394.458 94.6535C394.4 94.5277 394.367 94.3917 394.363 94.2533C394.35 94.1091 394.368 93.9639 394.415 93.8269C394.462 93.69 394.537 93.5643 394.636 93.4578C394.734 93.3514 394.854 93.2665 394.987 93.2087C395.12 93.1508 395.264 93.1212 395.41 93.1217C396.174 93.0852 396.933 93.1165 397.686 93.1165Z" fill="#4D2512"/>
<path d="M345.112 93.8674C341.27 93.8257 337.884 95.1241 334.806 97.3352C334.615 97.5 334.402 97.637 334.173 97.742C333.931 97.8571 333.655 97.8786 333.398 97.8021C333.142 97.7256 332.923 97.5567 332.784 97.3283C332.646 97.0999 332.598 96.8283 332.649 96.5664C332.701 96.3045 332.848 96.0711 333.063 95.9116C334.038 95.079 335.118 94.3777 336.277 93.8257C339.203 92.2819 342.484 91.5303 345.793 91.6459C346.094 91.6581 346.395 91.686 346.693 91.7293C346.837 91.7353 346.978 91.7695 347.108 91.8299C347.239 91.8904 347.356 91.9758 347.453 92.0814C347.551 92.187 347.626 92.3107 347.675 92.4453C347.724 92.58 347.746 92.723 347.74 92.8661C347.708 93.1556 347.566 93.4219 347.343 93.6102C347.12 93.7984 346.833 93.8942 346.541 93.8778C346.29 93.8778 346.018 93.8778 345.788 93.8778L345.112 93.8674Z" fill="#4D2512"/>
<path d="M401.429 130.173C400.963 130.173 400.466 130.361 400.084 129.923C400.084 129.401 400.419 129.14 400.927 129.036C405.292 128.174 409.654 127.305 414.012 126.429C414.395 126.356 414.834 126.319 414.929 126.82C415.044 127.43 414.525 127.503 414.117 127.586C410.519 128.306 406.92 129.02 403.319 129.73C402.691 129.85 402.078 130.032 401.429 130.173Z" fill="#4D2512"/>
<path d="M329.32 124.066L328.755 123.868C328.373 123.743 328.027 123.555 328.195 123.081C328.362 122.606 328.687 122.664 329.064 122.773C329.441 122.883 329.922 122.997 330.357 123.112C330.519 123.289 330.807 123.05 330.948 123.289C333.848 124.186 336.758 125.073 339.653 125.991C340.265 126.184 340.962 126.205 341.427 126.742C341.454 127.472 341.045 127.587 340.449 127.43L339.433 127.164L330.686 124.463C330.231 124.322 329.776 124.197 329.32 124.066Z" fill="#4D2512"/>
<path d="M404.727 120.103C406.41 120.177 408.09 119.906 409.663 119.305C410.394 119.005 411.095 118.637 411.756 118.205C412.604 117.709 413.023 116.917 413.573 116.202C414.332 115.212 414.196 113.339 413.416 112.354C412.274 110.993 410.825 109.92 409.186 109.225C408.931 109.126 408.706 108.96 408.537 108.745C411.097 109.449 413.248 110.675 414.295 113.277C415.279 116.614 413.154 118.403 410.82 119.389C410.606 119.446 410.4 119.53 410.207 119.639C408.44 120.207 406.565 120.366 404.727 120.103V120.103Z" fill="#572B11"/>
<path d="M330.948 123.29C330.737 123.298 330.528 123.236 330.357 123.112C331.179 123.018 331.351 122.304 331.534 121.73C332.252 119.493 331.158 117.558 328.875 116.907C328.807 116.907 328.76 116.818 328.697 116.771C329.39 116.792 330.061 117.014 330.629 117.41C331.197 117.805 331.637 118.357 331.896 118.998C332.194 119.608 332.304 120.293 332.211 120.965C332.117 121.637 331.826 122.267 331.372 122.773L330.948 123.29Z" fill="#FC9D5D"/>
<path d="M426.994 125.516C427.47 125.12 428.041 124.958 428.564 124.531C428.967 124.184 429.294 123.758 429.524 123.279C429.753 122.8 429.88 122.279 429.897 121.748C429.914 121.218 429.82 120.69 429.621 120.197C429.422 119.705 429.123 119.259 428.742 118.888C428.606 118.742 428.491 118.58 428.365 118.429C430.318 119.342 430.93 122.356 429.496 124.004C428.826 124.77 428.088 125.443 426.994 125.516Z" fill="#FC9E5F"/>
<path d="M350.185 116.953C350.509 116.547 350.865 116.161 351.158 115.733C351.628 115.022 351.871 114.186 351.856 113.334C351.841 112.483 351.569 111.656 351.074 110.961C350.713 110.44 350.373 109.918 350.027 109.397C351.404 110.106 351.949 111.379 352.221 112.776C352.493 114.174 351.483 116.202 350.185 116.953Z" fill="#6B3812"/>
<path d="M410.218 119.655C411.066 119.091 412.034 118.752 412.835 118.09C414.149 116.953 414.719 115.618 414.374 113.918C414.344 113.721 414.325 113.523 414.316 113.324C414.678 114.115 414.775 115.001 414.592 115.851C414.409 116.701 413.956 117.47 413.301 118.043C412.458 118.875 411.384 119.437 410.218 119.655V119.655Z" fill="#814613"/>
<path d="M428.365 118.429C427.917 118.33 427.499 118.126 427.146 117.834C427.381 117.836 427.612 117.891 427.823 117.994C428.034 118.096 428.219 118.245 428.365 118.429V118.429Z" fill="#FC9E5F"/>
<path d="M334.502 180.658C335.206 180.64 335.899 180.834 336.49 181.215C337.08 181.596 337.542 182.147 337.812 182.794C338.083 183.441 338.151 184.155 338.007 184.841C337.862 185.528 337.513 186.155 337.004 186.639C336.847 186.82 336.633 186.944 336.397 186.991C336.161 187.038 335.917 187.006 335.701 186.9C335.515 186.802 335.302 186.765 335.094 186.796C334.886 186.827 334.693 186.924 334.544 187.072C334.105 187.406 333.696 187.5 333.267 186.963C332.927 186.546 332.424 186.254 332.042 185.862C331.736 185.51 331.508 185.098 331.373 184.652C331.238 184.206 331.199 183.736 331.26 183.274C331.32 182.812 331.478 182.368 331.723 181.971C331.968 181.574 332.294 181.233 332.681 180.971C333.244 180.692 333.878 180.584 334.502 180.658V180.658Z" fill="#FCFAF5"/>
<path d="M343.218 177.19C343.443 179.547 340.689 181.179 338.355 180.261C337.879 180.074 337.638 179.808 338.067 179.312C338.496 178.817 338.423 178.134 338.747 177.591C338.889 177.357 338.679 177.148 338.376 177.294C338.072 177.44 337.706 177.649 337.386 177.816C336.774 178.196 336.366 177.998 336.261 177.294C335.895 174.786 338.067 173.326 340.103 173.581C341.914 173.811 343.453 175.563 343.218 177.19Z" fill="#FCFAF5"/>
<path d="M413.07 145.171C413.074 145.255 413.058 145.338 413.022 145.415C412.987 145.491 412.933 145.557 412.867 145.609C412.8 145.66 412.722 145.694 412.639 145.709C412.556 145.723 412.47 145.718 412.39 145.693C412.195 145.641 412.01 145.56 411.84 145.453L400.298 139.398C400.161 139.333 400.029 139.26 399.901 139.179C399.832 139.147 399.77 139.1 399.72 139.043C399.67 138.986 399.632 138.919 399.608 138.847C399.584 138.775 399.576 138.699 399.583 138.623C399.59 138.547 399.613 138.474 399.649 138.407C399.822 138.068 400.136 138.089 400.44 138.194C400.601 138.261 400.757 138.341 400.906 138.433L412.338 144.394C412.662 144.561 413.07 144.686 413.07 145.171Z" fill="#4D2513"/>
<path d="M400.937 133.197L408.181 134.152L413.484 134.861C413.583 134.861 413.683 134.861 413.782 134.898C414.175 134.986 414.656 135.023 414.588 135.581C414.52 136.139 414.065 136.102 413.651 136.05C412.406 135.894 411.16 135.727 409.914 135.56L401.251 134.397C401.105 134.397 400.953 134.36 400.806 134.334C400.435 134.267 400.084 134.131 400.141 133.677C400.199 133.224 400.55 133.156 400.937 133.197Z" fill="#4D2613"/>
<path d="M329.723 142.094C329.357 142.094 329.169 142.011 329.059 141.786C329.004 141.686 328.987 141.569 329.011 141.457C329.035 141.345 329.098 141.246 329.189 141.176C329.368 141.039 329.561 140.922 329.765 140.827L340.883 135.283C341.037 135.201 341.196 135.128 341.359 135.064C341.49 135.002 341.639 134.993 341.777 135.038C341.914 135.083 342.028 135.179 342.096 135.307C342.164 135.434 342.179 135.583 342.14 135.721C342.1 135.86 342.008 135.978 341.883 136.05C341.754 136.128 341.621 136.2 341.485 136.264L330.242 141.844C330.043 141.964 329.844 142.047 329.723 142.094Z" fill="#4D2613"/>
<path d="M328.645 132.681C328.242 132.681 327.834 132.655 327.808 132.16C327.781 131.665 328.169 131.565 328.582 131.539L340.621 130.794C340.825 130.794 341.024 130.794 341.229 130.794C341.305 130.78 341.383 130.783 341.458 130.803C341.533 130.823 341.602 130.859 341.661 130.909C341.72 130.959 341.768 131.021 341.8 131.091C341.832 131.162 341.847 131.238 341.846 131.315C341.855 131.391 341.847 131.469 341.822 131.542C341.797 131.614 341.756 131.681 341.703 131.736C341.649 131.791 341.584 131.834 341.512 131.861C341.44 131.889 341.363 131.9 341.286 131.894C340.36 131.972 339.433 132.035 338.507 132.092L328.645 132.681Z" fill="#4D2613"/>
<path d="M371.719 145.207C372.5 145.308 373.287 145.351 374.074 145.338C375.713 145.213 377.34 145.426 378.979 145.385C380.858 145.332 382.643 145.906 384.47 146.255C384.789 146.323 384.857 146.469 384.862 146.777C384.862 147.69 385.182 148.404 386.192 148.576C386.611 148.649 386.385 148.91 386.365 149.098C386.016 152.215 384.649 155.131 382.475 157.4C380.036 159.918 377.278 161.931 373.802 162.766C371.82 163.293 369.736 163.308 367.747 162.81C365.758 162.312 363.929 161.317 362.433 159.918C359.832 157.515 357.817 154.553 356.539 151.256C356.461 151.141 356.41 151.01 356.392 150.872C356.373 150.734 356.387 150.594 356.433 150.463C356.478 150.331 356.553 150.212 356.652 150.115C356.752 150.017 356.872 149.944 357.005 149.901C359.769 148.405 362.704 147.248 365.746 146.454C366.94 146.12 368.17 146.016 369.363 145.692C369.573 145.635 369.887 145.692 369.944 145.442C370.002 145.192 369.709 145.02 369.52 144.879C368.773 144.427 368.071 143.903 367.427 143.314C367.004 142.883 366.681 142.365 366.479 141.797C366.155 140.811 366.762 140.107 367.798 140.191C368.486 140.275 369.128 140.58 369.625 141.061C369.918 141.312 370.096 141.312 370.415 141.009C370.756 140.637 371.171 140.34 371.633 140.135C372.095 139.93 372.595 139.823 373.101 139.82C373.328 139.808 373.555 139.855 373.758 139.957C373.962 140.059 374.135 140.212 374.261 140.401C374.386 140.591 374.46 140.81 374.474 141.036C374.488 141.263 374.442 141.489 374.341 141.692C373.798 142.884 372.991 143.938 371.98 144.774C371.865 144.884 371.651 144.915 371.719 145.207Z" fill="#FE999B"/>
<path d="M369.138 145.27C365.395 145.804 361.759 146.918 358.361 148.571C357.743 148.855 357.145 149.179 356.57 149.541C356.183 149.796 356.005 149.786 355.921 149.306C355.838 148.826 355.749 148.383 355.649 147.856C356.246 147.95 356.816 148.216 357.314 147.726C357.562 147.474 357.754 147.173 357.878 146.843C358.003 146.512 358.056 146.159 358.036 145.807C357.999 143.997 357.513 142.245 357.22 140.472C357.052 139.544 357.031 139.575 357.958 139.539C360.092 139.514 362.195 139.033 364.127 138.129C366.058 137.225 367.773 135.918 369.154 134.298C369.892 133.448 369.913 133.411 370.583 134.324C372.834 137.401 376.147 138.678 379.628 139.659C381.195 140.125 382.815 140.393 384.449 140.457C385.04 140.457 385.354 140.65 385.271 141.354C385.114 142.647 385.03 143.961 384.951 145.249C384.951 145.771 384.684 145.739 384.307 145.671C383.261 145.468 382.214 145.207 381.13 145.035C378.963 144.742 376.769 144.703 374.592 144.92C374.017 144.957 373.436 144.92 372.797 144.92C373.022 144.363 373.525 144.039 373.844 143.585C374.219 143.083 374.54 142.543 374.802 141.974C374.969 141.676 375.044 141.335 375.017 140.994C374.99 140.654 374.862 140.329 374.65 140.06C374.418 139.759 374.109 139.527 373.755 139.388C373.401 139.25 373.015 139.21 372.64 139.273C371.744 139.439 370.91 139.844 370.227 140.446C369.939 140.676 369.819 140.665 369.573 140.399C369.249 140.079 368.848 139.846 368.408 139.724C367.968 139.602 367.504 139.594 367.06 139.7C366.039 139.846 365.563 141.035 366.013 142.162C366.493 143.253 367.306 144.166 368.337 144.769L369.138 145.27Z" fill="#D75254"/>
<path d="M391.772 139.549C391.765 140.696 391.532 141.83 391.086 142.887C390.553 144.019 389.867 145.071 389.045 146.016C388.434 146.691 387.624 147.157 386.731 147.345C386.207 147.481 385.961 147.319 386.009 146.756C386.166 144.79 386.328 142.819 386.448 140.853C386.48 140.332 386.804 140.332 387.155 140.3C388.275 140.227 389.421 140.415 390.51 139.977C390.897 139.82 391.306 139.706 391.772 139.549Z" fill="#FEFEFE"/>
<path d="M351.116 138.751C352.454 139.126 353.828 139.359 355.215 139.445C355.315 139.439 355.414 139.454 355.508 139.488C355.602 139.521 355.689 139.574 355.762 139.641C355.835 139.709 355.894 139.791 355.935 139.881C355.976 139.972 355.998 140.07 356 140.17C356.298 141.896 356.68 143.612 356.885 145.353C356.905 145.502 356.905 145.653 356.885 145.802C356.649 147.132 356.576 146.96 355.613 146.48C353.027 145.192 351.86 142.97 351.383 140.269C351.305 139.8 351.231 139.336 351.116 138.751Z" fill="#FEFEFE"/>
<path d="M401.487 108.041C402.321 108.041 403.135 108.294 403.821 108.766C404.508 109.239 405.033 109.908 405.329 110.685C405.352 110.803 405.418 110.908 405.515 110.979C405.612 111.051 405.732 111.083 405.852 111.071C406.666 111.101 407.438 111.441 408.009 112.02C408.289 112.257 408.489 112.575 408.582 112.929C408.676 113.283 408.658 113.658 408.532 114.002C408.405 114.359 408.172 114.67 407.863 114.893C407.555 115.115 407.186 115.239 406.805 115.248C406.096 115.352 405.373 115.204 404.762 114.831C404.151 114.457 403.692 113.881 403.465 113.204C403.345 112.87 403.135 112.896 402.889 112.86C401.769 112.711 400.674 112.413 399.634 111.973C399.249 111.843 398.913 111.599 398.672 111.274C398.431 110.949 398.295 110.557 398.283 110.153C398.313 109.737 398.472 109.34 398.739 109.017C399.005 108.695 399.365 108.463 399.77 108.354C400.32 108.154 400.901 108.048 401.487 108.041Z" fill="#FEFEFE"/>
<path d="M400.042 113.444C400.249 113.428 400.457 113.452 400.655 113.517C400.852 113.581 401.035 113.684 401.192 113.819C401.35 113.955 401.478 114.12 401.571 114.305C401.664 114.49 401.719 114.692 401.733 114.899C401.733 115.314 401.567 115.712 401.273 116.005C400.978 116.298 400.579 116.463 400.162 116.463C399.718 116.495 399.279 116.354 398.938 116.068C398.597 115.783 398.381 115.377 398.336 114.935C398.294 114.085 399.021 113.454 400.042 113.444Z" fill="#FDFDFD"/>
<path d="M409.045 117.855C408.291 117.855 407.888 117.449 407.899 116.765C407.887 116.672 407.896 116.577 407.926 116.487C407.955 116.397 408.004 116.315 408.069 116.246C408.134 116.177 408.213 116.124 408.302 116.089C408.39 116.054 408.485 116.04 408.579 116.046C409.275 116.02 410.066 116.604 409.998 117.089C409.994 117.205 409.966 117.318 409.914 117.422C409.863 117.526 409.789 117.618 409.698 117.69C409.608 117.763 409.503 117.816 409.39 117.844C409.277 117.873 409.159 117.876 409.045 117.855V117.855Z" fill="#FBFAFA"/>
<path d="M345.228 108.203C345.677 108.174 346.125 108.271 346.522 108.483C346.919 108.695 347.248 109.013 347.473 109.402C347.657 109.705 347.744 110.056 347.725 110.41C347.705 110.763 347.579 111.103 347.363 111.384C347.121 111.705 346.804 111.962 346.439 112.133C346.074 112.304 345.672 112.383 345.269 112.364C344.866 112.364 344.746 112.474 344.668 112.886C344.552 113.637 344.039 114.007 343.165 114.101C342.807 114.179 342.433 114.142 342.097 113.995C341.761 113.847 341.481 113.598 341.297 113.282C341.207 113.116 341.154 112.933 341.139 112.745C341.124 112.557 341.149 112.368 341.211 112.19C341.274 112.012 341.373 111.849 341.502 111.711C341.631 111.573 341.787 111.463 341.961 111.389C342.207 111.264 342.364 111.212 342.302 110.867C342.182 110.389 342.248 109.883 342.485 109.45C342.723 109.017 343.115 108.689 343.584 108.531C344.106 108.318 344.664 108.207 345.228 108.203V108.203Z" fill="#FEFEFE"/>
<path d="M338.036 114.174C337.694 114.182 337.364 114.056 337.116 113.823C336.868 113.589 336.722 113.267 336.711 112.928C336.704 112.574 336.836 112.232 337.078 111.974C337.321 111.716 337.655 111.562 338.009 111.546C338.185 111.538 338.36 111.566 338.524 111.628C338.689 111.69 338.838 111.784 338.965 111.906C339.091 112.027 339.191 112.173 339.259 112.334C339.327 112.496 339.361 112.669 339.36 112.844C339.363 113.019 339.332 113.193 339.266 113.355C339.201 113.517 339.104 113.665 338.98 113.789C338.857 113.913 338.71 114.011 338.547 114.077C338.385 114.143 338.211 114.176 338.036 114.174V114.174Z" fill="#F9F8F7"/>
<path d="M346.431 116.619C346.355 116.627 346.278 116.618 346.206 116.593C346.134 116.568 346.068 116.528 346.013 116.474C345.958 116.421 345.915 116.357 345.888 116.285C345.861 116.214 345.85 116.137 345.856 116.061C345.852 115.99 345.862 115.92 345.886 115.853C345.91 115.786 345.946 115.724 345.994 115.671C346.09 115.565 346.225 115.501 346.369 115.493C346.512 115.485 346.653 115.535 346.76 115.631C346.867 115.727 346.932 115.861 346.939 116.004C346.953 116.079 346.95 116.155 346.931 116.229C346.912 116.302 346.877 116.37 346.829 116.429C346.78 116.488 346.72 116.535 346.651 116.568C346.583 116.601 346.508 116.618 346.431 116.619Z" fill="#F1EEED"/>
</g>
<defs>
<clipPath id="clip0_15_1902">
<rect width="268" height="267" fill="white" transform="translate(244)"/>
</clipPath>
</defs>
</svg>
