<svg width="512" height="52" viewBox="0 0 512 52" fill="none" xmlns="http://www.w3.org/2000/svg">
<path d="M303.47 47.2198L302.14 46.4498C297.66 47.5498 293.22 49.2898 288.58 47.1298C288.053 46.9342 287.582 46.615 287.204 46.1991C286.826 45.7832 286.554 45.2828 286.41 44.7398C282.257 34.1865 278.17 23.6065 274.15 12.9998C273.676 12.0343 273.605 10.9202 273.952 9.90216C274.299 8.88412 275.035 8.0453 276 7.56982C276.114 7.51381 276.231 7.46374 276.35 7.41982C279.069 6.16451 282.17 6.01563 284.997 7.00464C287.824 7.99366 290.156 10.0431 291.5 12.7198L293.35 16.5698C293.707 16.2121 294.019 15.8126 294.28 15.3798C297.67 6.37982 301.87 4.37982 310.9 8.00982C313.32 9.00982 314.03 6.47982 316.01 6.78982C323.48 7.97982 331.01 6.10982 338.59 7.47982C341.88 8.07982 345.42 6.88982 348.89 6.72982C358.89 6.28982 368.89 8.14982 378.95 6.85982C381.55 6.52982 384.11 6.91982 385.49 9.68982C387.93 12.0698 386.55 15.6898 388.33 18.2998C389.85 17.8098 389.27 16.5098 389.33 15.5098C389.54 12.4398 388.73 8.98982 392.52 7.34982C396.31 5.70982 402.77 6.96982 405.52 9.83982C406.87 12.1898 406.52 14.7698 406.52 17.2898V39.6798C406.52 46.6798 405.11 48.0798 398.19 48.0698C396.281 48.1474 394.376 47.8518 392.58 47.1998C387.95 44.3798 389.78 39.6798 389.22 35.6698C387.08 35.2198 387.47 36.8698 387.36 37.9998C386.36 48.0798 382.74 50.3698 372.97 47.0998C370.6 45.7798 369.87 43.6598 369.89 41.0998C369.89 36.7998 369.99 32.4998 369.89 28.1998C369.83 26.5898 371 24.1498 367.65 24.0798C363.92 23.9898 365.26 26.7298 365.2 28.4398C365.04 32.7398 365.2 37.0398 365.14 41.3398C365.07 47.2398 363.65 48.8598 358.52 49.0298C350.94 49.2998 347.2 47.0298 346.98 41.5198C346.75 35.7998 346.92 30.0598 346.92 24.3198C343.07 22.7398 342.42 23.0398 342.3 26.8398C342.18 30.6398 342.3 34.4898 342.3 38.3198C342.3 46.6198 340.41 48.3798 332.04 48.0698C330.599 48.1798 329.16 47.8297 327.93 47.0698C325.42 45.6798 324.81 43.3898 324.86 40.7298C324.93 36.5198 324.92 32.2998 324.94 28.0898C324.302 27.2029 323.951 26.1416 323.935 25.049C323.919 23.9564 324.238 22.8851 324.85 21.9798C323.73 22.5498 324.25 23.8098 323.94 24.7498C321.94 31.1298 319.16 37.2498 316.61 43.4298C314.57 48.3998 311 49.2698 303.47 47.2198Z" fill="#FEA901"/>
<path d="M179.19 18.3202C180.9 17.6402 180.19 16.1502 180.19 15.0202C180.3 11.4302 180.12 7.79021 184.91 6.93021C191.54 5.74021 196 7.42021 198 12.0002C198.299 12.8561 198.54 13.7315 198.72 14.6202C203.45 9.77021 208.9 6.80021 215.72 6.86021C222.54 6.92021 227.8 10.3402 232.59 15.0002C234.12 7.10021 234.36 6.91021 242.26 6.91021C245.46 6.91021 248.65 6.83021 251.84 6.91021C257.52 7.08021 261.91 9.47021 264.61 14.6202C270.13 25.1602 265.11 34.8702 253.18 36.6202C251.61 36.8502 250.35 37.0602 250.26 38.9902C250.13 41.9902 250.9 45.4502 247.61 47.1502C244.04 48.9902 240.19 48.4902 236.45 47.2902C234.51 46.2902 233.74 44.3502 232.95 42.4702C232.05 41.3002 231.28 41.4702 230.26 42.4702C223.42 48.9402 215.58 49.4702 207.14 46.2002C203.21 45.3202 201.73 41.2002 198.45 39.5102C198.3 39.5702 198.05 39.6002 198.02 39.6902C195.31 48.7702 192.8 50.0602 183.36 47.1902C178.9 44.3402 180.72 39.7302 180.15 35.7802C178.01 35.3302 178.4 36.9802 178.29 38.1102C177.29 48.1902 173.67 50.4802 163.9 47.2102C163.427 47.0155 163.003 46.7193 162.658 46.3426C162.312 45.9659 162.053 45.5179 161.9 45.0302C160.78 45.1302 160.45 42.7702 158.79 44.2202C153.65 48.7402 147.63 48.7802 141.38 47.3402C138.25 46.7202 136.04 44.5802 133.86 42.5202C129 37.8102 129 35.8602 133.61 31.0002C134.49 30.0802 136.68 29.4702 134.87 27.3202C130.69 22.3202 129.98 16.9702 133.87 11.5802C137.41 6.70021 144.72 4.80021 151.22 6.45021C154.602 7.41409 157.737 9.09561 160.41 11.3802C163.51 5.63021 171.57 4.84021 176.32 9.73021C178.79 12.0902 177.42 15.7202 179.19 18.3202Z" fill="#FEA901"/>
<path d="M70.78 18.3201C72.62 17.4701 71.71 15.8101 71.78 14.5301C72 8.00006 73.2 6.75006 79.85 6.88006C84.08 6.97006 88.28 7.12006 92.52 6.88006C99.4 6.56006 99.41 6.77006 103.98 11.8801C108.58 5.49006 117.56 4.59007 122.55 10.0201C123.9 12.1401 122.91 14.0201 121.82 15.7801C119.96 18.7801 118.49 21.9101 116.58 24.8401C113.993 28.4819 112.707 32.8885 112.93 37.3501C113.5 46.2801 110.73 50.3501 98.63 47.1001C95.14 45.2201 95.28 41.8701 95.63 38.7501C96.3 32.3401 94.23 27.0001 90 22.2901C87.92 23.2301 89.08 25.0501 89 26.4101C88.9 31.0001 89 35.5901 89 40.1801C89 46.4201 87.32 48.0201 81.13 48.0901C79.0717 48.2183 77.0091 47.9222 75.07 47.2201C70.44 44.4001 72.27 39.7001 71.71 35.6901C69.57 35.2401 69.96 36.8901 69.84 38.0201C68.84 48.1001 65.23 50.3901 55.46 47.1201C53.11 45.8101 52.36 43.7101 52.39 41.1201V30.2001C52.1187 29.8253 51.8874 29.4231 51.7 29.0001C51.4324 27.2599 51.6291 25.4799 52.27 23.8401C51.4 24.0901 52.08 24.7601 51.84 25.1801C51.6097 25.7758 51.5009 26.4116 51.52 27.0501C49.76 32.5101 47.41 37.7301 45.28 43.0501C43.15 48.3701 39.62 49.3101 32 47.2301L30.68 46.4501C26.2 47.5501 21.75 49.2901 17.11 47.1301C16.46 46.4801 15.51 45.9401 15.2 45.1301C10.9133 34.3234 6.70001 23.4901 2.56001 12.6301C1.71001 10.3901 2.56001 8.63006 4.77001 7.49006C7.48044 6.23194 10.57 6.06051 13.403 7.01104C16.236 7.96157 18.5969 9.96176 20 12.6001C20.59 13.8101 21.42 14.9001 21.37 16.1801C22.66 16.4101 22.69 15.6301 22.89 15.0901C26.1 6.57006 30.83 4.32006 39.23 7.93006C41.15 8.76006 41.7 7.24006 42.89 7.22006C50.17 7.11006 57.46 7.02006 64.74 7.14006C65.4671 7.20606 66.1585 7.48511 66.7278 7.94227C67.297 8.39942 67.7187 9.01436 67.94 9.71006C70.37 12.0901 69 15.7201 70.78 18.3201Z" fill="#FEA901"/>
<path d="M438.15 10.66C440.86 6.28004 449.62 4.91004 452.91 8.79004C454.36 10.49 454.81 10.51 456.41 9.40004C463.64 4.40004 470.96 4.72004 478.2 9.40004C479.53 10.26 480.34 10.9 481.49 9.02004C487.1 -0.179956 500.98 -1.26996 508.37 11.22C510.94 18.34 510.18 24.48 503.7 29.43C501.59 31.04 501.53 33.89 502.18 36.51C503.38 47.35 499.96 50.13 489.1 47.11C487.1 46.11 486.66 44.19 486.1 42.32C484.69 39.32 485.1 36.13 485.26 32.99C485.16 32.31 485.11 31.62 485.07 30.93C485.42 27.68 484.64 24.93 481.52 23.38C481.311 23.2028 481.075 23.0609 480.82 22.96C480.89 23.45 481.28 23.72 481.58 24.07C483.028 25.3259 484.037 27.011 484.46 28.88C486.94 43.44 474.11 50.88 461.81 47.23C458.38 46.63 456.32 43.82 453.58 42.11C453.133 41.9625 452.655 41.9404 452.196 42.0462C451.738 42.152 451.317 42.3816 450.98 42.71C444.19 49.15 436.4 49.14 428.16 46.24C425.252 44.7377 422.828 42.4443 421.166 39.6241C419.505 36.804 418.674 33.5718 418.77 30.3V15.05C418.77 12.05 418.23 8.81004 421.77 7.22004C425.31 5.63004 431.84 7.07004 434.39 9.74004C436.54 14.08 435.39 18.74 435.68 23.27C435.637 25.1522 435.744 27.0349 436 28.9C437.24 29.68 436.73 28.44 436.93 28.03C437.26 22.23 435.94 16.32 438.15 10.66Z" fill="#FEA901"/>
<path d="M236.41 47.21C237.84 47.21 239.27 47.13 240.7 47.13C248.22 47.13 248.87 46.51 249.23 39.13C249.31 37.31 249.23 35.9 251.81 35.52C263.9 33.72 268.02 26.8 264.57 14.52C268.7 18.66 268.71 23.58 266.85 28.58C264.85 34.01 260.64 36.93 254.91 37.44C252.91 37.62 251.38 37.32 251.24 40.3C250.81 49.24 244.22 52.19 236.41 47.21Z" fill="#FA8011"/>
<path d="M98.63 47.1101C111.86 47.1101 111.91 47.1101 111.99 34.1101C111.99 27.2001 117.1 22.6501 119.72 17.0001C120.72 14.7201 122.58 12.7801 122.55 10.0601C124.96 11.7001 124.55 13.7201 123.34 15.8501C121.45 19.1701 119.75 22.6101 117.63 25.7701C114.568 30.0615 113.148 35.31 113.63 40.5601C113.89 43.5601 114.22 47.3401 110.63 48.3701C106.73 49.4801 102.32 50.5401 98.63 47.1101Z" fill="#FA8216"/>
<path d="M392.63 47.2199C405.71 47.0399 405.81 48.2999 405.63 33.6599C405.54 25.7299 405.58 17.7899 405.57 9.85986C407.84 11.3399 407.52 13.6999 407.57 15.8599V39.8599C407.57 48.4599 406.57 49.3999 397.86 49.0699C395.9 48.9999 394 48.9999 392.63 47.2199Z" fill="#FA7E10"/>
<path d="M327.92 47.12C341.33 47.12 341.32 47.12 341.33 33.72V25.14C341.33 23.85 341.33 22.39 343.08 22.31C344.83 22.23 346.83 21.44 346.93 24.31C344.22 23.58 342.84 24.14 343.06 27.43C343.33 31.68 343.13 35.97 343.12 40.24C343.12 43.41 343.56 47.32 339.88 48.37C336 49.49 331.56 50.59 327.92 47.12Z" fill="#FA851C"/>
<path d="M303.47 47.2199C311.83 48.7699 316 44.6899 318.14 36.9999C319.34 32.5799 321.43 28.4099 323.14 24.1299C325.69 24.9199 324.42 26.6699 324.14 28.1299C322.14 33.1032 320.157 38.0699 318.19 43.0299C315.55 49.6399 309.87 51.2399 303.47 47.2199Z" fill="#FA8113"/>
<path d="M75.06 47.2199C88.16 47.0399 88.25 48.2899 88.06 33.6299C87.99 28.8899 88.06 24.1499 88.06 19.1499C89.71 19.8399 89.82 21.1499 90.06 22.2899C90.06 28.3299 90.04 34.3699 90 40.4099C90 48.3099 89.15 49.1499 81.22 49.0399C79 48.9999 76.68 49.2499 75.06 47.2199Z" fill="#FA7E10"/>
<path d="M461.81 47.2498C465.91 46.8498 470.2 47.8498 474.08 45.8898C480.34 42.7298 484.32 40.6898 483.27 28.0598C485.77 27.3198 485.04 30.0598 486.16 30.7498L486.22 32.6098C485.38 35.1798 486.4 38.1698 484.44 40.4798C479 48.7798 471.19 51.1098 461.81 47.2498Z" fill="#FA8418"/>
<path d="M52.47 28.8701C52.4829 29.3249 52.4562 29.78 52.39 30.2301C49.67 34.0601 48.59 38.6201 46.78 42.8501C43.91 49.6201 38.48 51.2901 31.96 47.2301C40.2 48.7201 44.54 44.8201 46.55 37.1101C47.7189 33.3714 49.0909 29.6993 50.66 26.1101C53.16 25.7701 51.33 28.2801 52.47 28.8701Z" fill="#FA8113"/>
<path d="M207.1 46.1099C211.29 46.3699 215.32 47.6699 219.71 46.6899C224.9 45.5199 228.71 42.5999 232.71 38.1899C232.82 40.2699 232.88 41.3299 232.94 42.3899C223.83 49.9299 215.42 51.1399 207.1 46.1099Z" fill="#FA8114"/>
<path d="M501.57 35.6202C500.815 34.5685 500.497 33.2648 500.683 31.9834C500.87 30.702 501.546 29.543 502.57 28.7502C508.31 24.5502 509.9 19.2802 508.31 12.6602C508.262 12.1868 508.278 11.7091 508.36 11.2402C512.64 18.7502 511.79 24.4602 505.13 29.9002C503.13 31.5202 503.38 33.7902 502.32 35.6202C502.08 36.0802 501.82 36.0802 501.57 35.6202Z" fill="#FA8419"/>
<path d="M428.16 46.2599C431.16 46.1099 434.03 47.4499 437.11 47.1699C441.79 46.7399 446.26 46.0499 449.5 42.1699C450.8 40.6099 452.21 39.7899 453.58 42.1699C450.527 45.7719 446.288 48.1639 441.626 48.9139C436.965 49.664 432.188 48.7226 428.16 46.2599V46.2599Z" fill="#FA8216"/>
<path d="M55.45 47.1198H57.35C68 47.1198 68.01 47.1198 68.85 36.6898C68.93 35.6298 68.6 34.2798 70.05 33.9498C71.3 33.6598 71.61 34.6598 71.7 35.6898C69.7 36.8698 70.83 38.7998 70.7 40.3598C70.43 43.4698 71.19 47.3598 67.39 48.3598C63.59 49.3598 59.08 50.5798 55.45 47.1198Z" fill="#FA8319"/>
<path d="M163.86 47.1198H165.76C176.42 47.1198 176.42 47.1198 177.26 36.6898C177.35 35.6298 177.02 34.2798 178.46 33.9498C179.72 33.6598 180.03 34.6598 180.11 35.6898C178.11 36.8698 179.25 38.7998 179.11 40.3598C178.84 43.4698 179.6 47.3598 175.8 48.3598C172 49.3598 167.5 50.5798 163.86 47.1198Z" fill="#FA8319"/>
<path d="M373 47.1198H374.9C385.56 47.1198 385.56 47.1198 386.4 36.6898C386.48 35.6298 386.15 34.2798 387.6 33.9498C388.86 33.6598 389.17 34.6598 389.25 35.6898C387.25 36.8698 388.38 38.7998 388.25 40.3598C387.98 43.4698 388.74 47.3598 384.95 48.3598C381.16 49.3598 376.65 50.5798 373 47.1198Z" fill="#FA8319"/>
<path d="M501.57 35.6201H502.33C504.24 38.6901 503.6 42.0501 503.22 45.3001C502.93 47.8901 500.89 49.0501 498.46 48.9801C495.26 48.8901 491.74 50.1201 489.1 47.1301H490.05C501.53 47.1101 501.53 47.1101 501.57 35.6201Z" fill="#FA8216"/>
<path d="M183.32 47.0999H188.56C195.29 47.0999 195.95 46.4199 196.49 39.5099C196.49 38.7599 195.85 37.3599 197.4 37.4499C198.25 37.4499 198.29 38.6199 198.4 39.4499C198.04 42.5899 199.73 46.8999 195.78 48.2699C191.83 49.6399 187.19 50.4699 183.32 47.0999Z" fill="#FA8014"/>
<path d="M141.36 47.2501C147.57 47.3501 153.69 47.1801 158.83 42.8901C161.94 40.2901 160.54 44.7201 161.83 44.8901C159.4 45.8901 157 47.0502 154.53 47.9702C152.417 48.8282 150.141 49.2085 147.864 49.0841C145.588 48.9596 143.366 48.3333 141.36 47.2501V47.2501Z" fill="#FA8317"/>
<path d="M436.39 31.7198C434.02 30.7998 434.44 28.7198 434.39 26.8798V9.75977C434.935 10.015 435.411 10.3969 435.778 10.8736C436.145 11.3502 436.392 11.9078 436.5 12.4998C436.823 12.9979 437.044 13.5554 437.15 14.1398C436.91 19.9998 438.25 25.9298 436.39 31.7198Z" fill="#FA7D0E"/>
<path d="M288.58 47.1298C292.5 46.6998 296.75 48.3798 300.23 44.9698C301 44.2198 301.69 45.6598 302.14 46.4498C298.36 49.8998 293.12 50.1598 288.58 47.1298Z" fill="#FA8417"/>
<path d="M17.06 47.13C21 46.7 25.23 48.38 28.71 45C29.48 44.25 30.18 45.69 30.63 46.48C26.84 49.9 21.6 50.16 17.06 47.13Z" fill="#FA8417"/>
<path d="M388.35 18.32C384.56 16.38 387.35 12.32 385.51 9.70996C389 11.73 387.83 15.31 388.35 18.32Z" fill="#FA7F13"/>
<path d="M179.19 18.32C175.4 16.38 178.19 12.32 176.36 9.70996C179.87 11.73 178.67 15.31 179.19 18.32Z" fill="#FA7F13"/>
<path d="M70.78 18.32C66.99 16.38 69.78 12.32 67.94 9.70996C71.46 11.73 70.26 15.31 70.78 18.32Z" fill="#FA7F13"/>
<path d="M324.14 28.1602C323.9 26.7902 324.55 25.1602 323.14 24.1602C323.18 23.483 323.367 22.8226 323.689 22.2251C324.01 21.6276 324.457 21.1072 325 20.7002V28.1802L324.6 28.0902L324.14 28.1602Z" fill="#FB8D0C"/>
<path d="M324.25 11.2098C320.12 21.4698 316.12 31.6698 311.86 41.7498C310.76 44.3598 304.86 43.9499 303.62 41.3099C302.55 39.0499 301.75 36.6699 300.62 33.7199C299.732 35.6758 298.95 37.6788 298.28 39.7199C297.54 42.4399 296.09 43.4498 293.16 43.4398C290.39 43.4398 289.28 42.3499 288.4 39.9499C285.4 31.7298 282.04 23.6198 279.08 15.3698C278.62 14.0698 275.82 11.5298 279.08 10.9698C281.62 10.5398 285.64 8.64985 287.18 13.2498L293.28 31.4499C295.16 25.5698 297.14 20.9998 298 16.1998C299 10.8998 302 10.1998 306.47 10.6598C308.39 10.8498 309.11 11.2798 308.35 13.2198C307.861 14.9024 307.267 16.5523 306.57 18.1598C304.09 22.5398 305.83 26.2998 308.07 30.9198C309.86 25.9198 311.4 21.6598 312.92 17.3898C315.55 9.88985 315.55 9.88985 324.25 11.2098Z" fill="#FEFEFE"/>
<path d="M401.78 27.3701C401.78 31.6801 401.6 36.0101 401.83 40.3101C402.01 43.6601 399.94 43.4401 397.83 43.2601C395.72 43.0801 392.95 44.4001 393.19 40.4601C393.12 38.8636 393.14 37.2644 393.25 35.6701C394.1 30.7801 392.14 29.5101 387.34 29.6701C383.46 29.8201 381.74 30.6001 382.34 34.6701C382.58 36.2301 382.2 37.8801 382.41 39.4501C382.93 43.4501 380.47 43.1901 377.7 43.3401C374.56 43.5101 373.6 42.4901 373.7 39.3401C373.9 30.8701 373.88 22.4001 373.7 13.9401C373.64 10.9401 374.94 10.3701 377.44 10.6401C379.61 10.8801 382.65 9.64009 382.44 13.7501V15.1901C382.54 22.1901 384.52 23.6501 391.44 22.1901C392.95 21.8701 393.21 21.1901 393.19 19.9201V15.6101C393.19 11.0501 396.19 9.07009 400.5 10.7101C402.27 11.3901 401.7 12.7701 401.72 13.9101C401.82 18.4201 401.78 22.9001 401.78 27.3701Z" fill="#FEFEFE"/>
<path d="M355.48 10.6799C358.19 10.6799 360.9 10.7499 363.6 10.6799C366.3 10.6099 368.16 10.5299 368.16 14.2399C368.16 17.7099 366.93 18.9099 363.72 18.3599C360.01 17.7199 359.13 19.3599 359.33 22.8399C359.62 28.0799 359.25 33.3499 359.46 38.5999C359.59 41.8299 359.13 43.5099 355.18 43.4599C351.54 43.4599 350.51 42.3499 350.69 38.8199C350.97 33.4199 350.57 27.9799 350.84 22.5799C351 19.2699 350.03 17.8299 346.63 18.3599C343.63 18.8299 342.12 18.0799 342.08 14.4199C342.03 10.4199 344.18 10.5899 346.87 10.6799C349.74 10.7499 352.61 10.6799 355.48 10.6799Z" fill="#FEFEFD"/>
<path d="M328.7 26.9399C328.7 22.6399 328.85 18.3299 328.64 14.0299C328.51 11.1799 329.7 10.3199 332.28 10.6799C334.39 10.9599 337.39 9.5299 337.36 13.6799C337.28 22.5999 337.28 31.5232 337.36 40.4499C337.36 44.2099 334.67 43.1599 332.64 43.2899C330.61 43.4199 328.49 43.6499 328.64 40.2899C328.86 35.8699 328.7 31.3999 328.7 26.9399Z" fill="#FEFDFC"/>
<path d="M164.64 26.9998C164.64 22.6898 164.85 18.3598 164.57 14.0598C164.35 10.6298 166.22 10.5998 168.7 10.6498C171.18 10.6998 173.7 10.4098 173.28 14.1898C173.19 14.9698 173.39 15.7998 173.28 16.5798C172.45 21.1698 174.28 22.1298 178.86 22.4398C185.05 22.8598 184.16 19.4398 184.11 15.7498C184.04 11.0498 186.89 9.18976 191.32 10.7498C192.85 11.2798 192.64 12.3598 192.64 13.4098C192.64 22.5198 192.64 31.6298 192.64 40.7298C192.64 44.3698 190.07 43.2098 188.27 43.2698C186.47 43.3298 183.78 44.1198 184.04 40.5798C184.13 39.2998 184.04 38.0198 184.04 36.7398C184.04 29.9898 181.59 28.2198 174.9 29.8698C173.38 30.2498 173.27 31.0798 173.26 32.2398V37.9998C173.26 43.1598 171.26 44.5798 166.26 43.3498C164.39 42.8898 164.66 41.6498 164.65 40.4498C164.62 35.9398 164.64 31.4698 164.64 26.9998Z" fill="#FEFEFE"/>
<path d="M215.57 10.6799C217.728 10.6628 219.869 11.0716 221.869 11.883C223.869 12.6944 225.689 13.8924 227.226 15.4084C228.762 16.9243 229.985 18.7285 230.823 20.7176C231.661 22.7067 232.098 24.8415 232.11 26.9999V27.4799C231.93 36.3899 224.39 43.4199 215.11 43.3099C210.748 43.3263 206.555 41.6239 203.438 38.5713C200.322 35.5187 198.534 31.3616 198.46 26.9999C198.44 17.9999 206.25 10.5699 215.57 10.6799Z" fill="#FEFEFE"/>
<path d="M236.92 26.6401C236.92 22.3301 237 18.0101 236.92 13.7001C236.86 11.4401 237.68 10.5701 239.98 10.7001C244.13 10.8301 248.29 10.5901 252.44 10.7701C255.105 10.9016 257.616 12.0583 259.448 13.9984C261.28 15.9386 262.291 18.5118 262.27 21.1801C262.354 23.9177 261.348 26.5767 259.473 28.5733C257.598 30.57 255.007 31.7413 252.27 31.8301V31.8301C245.72 32.1701 245.52 32.1801 245.73 38.8301C245.84 42.3301 244.95 43.4501 241.26 43.4801C237.34 43.4801 236.76 41.9401 236.96 38.6601C237.1 34.6401 236.92 30.6301 236.92 26.6401Z" fill="#FEFEFD"/>
<path d="M147.23 43.33C143.653 43.4002 140.163 42.2228 137.36 40C135.93 38.85 132.59 38 135.05 35C136.86 32.83 138.8 30.32 141.89 33.72C142.822 34.6 143.989 35.1905 145.25 35.42C147.15 35.86 149.36 35.94 150.2 33.73C151.2 31.21 148.97 30.48 147.2 29.73C144.2 28.54 141.2 27.66 138.65 25.55C134.32 21.9 134.04 16.23 138.01 12.61C142.69 8.34 152.65 8.86 156.91 13.52C157.91 14.63 158.54 15.72 157.18 16.72C155.82 17.72 155.28 20.79 152.46 19.72C151.88 19.51 151.46 18.92 150.9 18.62C148.58 17.35 145.52 15.93 144.22 18.9C142.92 21.87 146.7 21.81 148.45 22.76C149.83 23.5 151.45 23.76 152.92 24.39C156.92 26.07 159.66 28.66 159.28 33.39C158.9 38.12 156.16 40.91 151.8 42.25C150.13 42.87 148.47 43.61 147.23 43.33Z" fill="#FEFEFE"/>
<path d="M160.76 19.5898C160.76 21.5298 160.88 22.8498 159.7 23.7498C159.58 23.8398 158.82 23.3798 158.64 23.0298C157.75 21.2298 159.16 20.6198 160.76 19.5898Z" fill="#FA7D0E"/>
<path d="M36.7 30.4699C38.32 25.9399 39.81 21.7499 41.3 17.5499C43.92 10.1699 43.92 10.1699 52.8 11.0499C50.25 17.3499 47.8 23.4799 45.27 29.6199C44 32.8699 42.39 35.9999 41.38 39.3699C40.52 42.2499 39.19 43.3699 36.04 43.4299C32.89 43.4899 32.04 41.6499 31.27 39.2899C30.72 37.6399 29.97 36.0599 29.04 33.7899C28.1838 35.6487 27.4261 37.5514 26.77 39.4899C26.05 42.1099 24.86 43.4199 21.77 43.4099C18.68 43.3999 17.65 42.2599 16.7 39.6599C13.21 30.1299 9.47999 20.6599 5.78999 11.0899C14.56 10.0899 14.55 10.0899 17.03 17.5599C18.39 21.6399 19.79 25.6999 21.18 29.7699C21.18 29.8899 21.36 29.9799 21.93 30.6099C23.82 24.7199 25.57 19.1799 27.39 13.6599C28.19 11.2299 34.65 9.25989 36.54 10.9299C37.97 12.1999 36.54 13.6199 36.15 14.7899C34.22 19.8899 32.14 24.9099 36.7 30.4699Z" fill="#FEFEFE"/>
<path d="M56.22 26.52C56.22 22.37 56.43 18.2 56.16 14.06C55.93 10.64 57.79 10.59 60.28 10.64C62.77 10.69 65.28 10.38 64.87 14.17C64.77 14.96 64.97 15.79 64.87 16.56C64.04 21.14 65.87 22.12 70.44 22.43C76.62 22.85 75.75 19.43 75.7 15.74C75.62 11.04 78.46 9.17999 82.9 10.74C84.43 11.27 84.22 12.34 84.22 13.4V40.72C84.22 44.35 81.67 43.21 79.87 43.26C78.07 43.31 75.37 44.12 75.62 40.57C75.71 39.3 75.62 38.02 75.62 36.74C75.62 29.97 73.21 28.21 66.49 29.86C64.98 30.23 64.85 31.06 64.85 32.22V38C64.85 43.17 62.85 44.58 57.85 43.35C55.98 42.89 56.24 41.66 56.23 40.46C56.2 35.79 56.22 31.15 56.22 26.52Z" fill="#FEFEFE"/>
<path d="M88.88 11.4299C99.63 7.04993 100 16.6699 103.64 22.2899C107.22 16.4899 107.64 7.20993 118.37 11.2899C116.49 14.6699 114.74 18.3599 112.49 21.7099C108.99 26.9199 107.01 32.4199 107.91 38.7099C108.4 42.1499 107.2 43.4199 103.48 43.3799C100.02 43.3799 98.89 42.2199 99.39 38.9999C100.39 32.4699 98.08 26.8899 94.62 21.5299C92.49 18.2899 90.74 14.7599 88.88 11.4299Z" fill="#FEFEFD"/>
<path d="M52.47 28.87L50.66 26.06C51.08 25.06 51.51 24.14 52.47 21.98V28.87Z" fill="#FB8B0A"/>
<path d="M422.6 22.3301V15.6201C422.6 10.9501 425 9.32005 429.43 10.7101C431.24 11.2701 430.89 12.5901 430.9 13.7101C430.96 18.7101 430.9 23.6201 430.96 28.5701C431.02 32.1801 431.88 35.5701 436.4 35.5001C440.92 35.4301 441.87 32.3201 441.9 28.6101C441.9 23.8201 442.09 19.0201 441.9 14.2401C441.74 11.1401 442.99 10.3301 445.8 10.6001C448.08 10.8201 450.8 9.90005 450.63 13.8901C450.42 19.6401 450.77 25.4101 450.38 31.1401C449.82 39.4401 444.57 43.5701 435.69 43.2401C427.5 42.9301 422.93 38.4601 422.69 30.4201C422.53 27.7601 422.61 25.0001 422.6 22.3301Z" fill="#FEFEFE"/>
<path d="M467.26 9.72011C469.832 9.5689 472.386 10.2414 474.55 11.6401C476.18 12.7301 479.55 13.5001 477.85 16.3101C476.55 18.5201 474.67 22.1201 470.94 18.5101C470.03 17.8592 468.948 17.4905 467.83 17.4501C466.33 17.2501 464.83 17.6401 464.4 19.3101C463.97 20.9801 465.4 21.5201 466.59 21.9901C469.09 22.9901 471.69 23.8001 474.17 24.8801C477.67 26.4001 479.86 28.8801 479.76 32.9801C479.776 34.8311 479.244 36.6455 478.232 38.1952C477.219 39.7449 475.771 40.9608 474.07 41.6901C471.174 43.0679 467.929 43.5377 464.762 43.038C461.594 42.5383 458.651 41.0924 456.32 38.8901C455.23 37.8901 453.38 36.6301 455.47 35.0901C457.08 33.9101 457.91 30.2501 461.12 32.8801C462.85 34.2901 464.64 35.6301 467.06 35.6201C468.8 35.6201 470.33 35.2301 470.8 33.3601C471.27 31.4901 469.91 30.7501 468.57 30.1501C466.83 29.3701 464.99 28.8001 463.25 28.0301C457.47 25.4701 454.91 21.6801 455.81 17.1601C456.71 12.6401 461.23 9.72011 467.26 9.72011Z" fill="#FEFEFE"/>
<path d="M492.27 30.9999C492.44 30.9999 490.64 31.7299 490.27 30.2699C489.919 29.2824 489.801 28.2275 489.924 27.1869C490.047 26.1464 490.409 25.1482 490.98 24.2699C492.14 22.6599 493.87 21.7999 495.52 20.8299C497.17 19.8599 498.18 18.5399 497.73 16.4999C497.59 15.7877 497.235 15.1355 496.713 14.6313C496.191 14.1271 495.527 13.795 494.81 13.6799C494.391 13.5627 493.953 13.5293 493.521 13.5815C493.09 13.6338 492.672 13.7706 492.293 13.9842C491.914 14.1978 491.581 14.484 491.313 14.8264C491.045 15.1689 490.847 15.5608 490.73 15.9799V16.1099C489.67 19.8899 486.65 19.1099 484.58 18.3699C481.58 17.2799 483.26 14.5599 483.95 12.6799C484.831 10.5837 486.342 8.81405 488.275 7.61679C490.208 6.41954 492.466 5.85421 494.735 5.99938C497.004 6.14456 499.171 6.99303 500.935 8.42685C502.7 9.86067 503.974 11.8086 504.58 13.9999C506.01 18.6899 504.86 22.4699 500.64 25.1699C499.43 25.9499 497.91 26.7599 497.89 28.2699C497.85 31.4899 495.8 31.2999 492.27 30.9999Z" fill="#FEFEFD"/>
<path d="M493.89 35.6999C497.26 34.9499 497.7 36.6999 497.83 39.6199C497.99 43.1099 496.34 43.2899 493.6 43.3799C490.6 43.4799 489.92 42.3799 489.88 39.5399C489.85 36.4899 490.65 34.9999 493.89 35.6999Z" fill="#FEFEFD"/>
<path d="M481.46 22.1802C481.03 22.8102 480.59 23.4302 480.15 24.0602C479.15 23.2502 477.86 22.3402 479.38 21.0602C480.43 20.2002 481 21.3902 481.46 22.1802Z" fill="#FA8419"/>
<path d="M223.61 26.7601C223.72 31.7601 220.36 35.4901 215.61 35.6201C214.519 35.6629 213.431 35.4896 212.407 35.1101C211.384 34.7307 210.445 34.1525 209.646 33.409C208.847 32.6655 208.202 31.7713 207.75 30.7778C207.298 29.7843 207.046 28.7112 207.01 27.6202C207.01 27.4802 207.01 27.3402 207.01 27.2002C206.951 26.0909 207.111 24.9809 207.481 23.9336C207.851 22.8862 208.424 21.9221 209.167 21.0964C209.91 20.2707 210.808 19.5996 211.811 19.1215C212.814 18.6434 213.901 18.3677 215.01 18.3101H215.11C219.87 18.2101 223.5 21.7902 223.61 26.7601Z" fill="#FEAA04"/>
<path d="M245.59 21.45C245.31 19.03 245.34 17.09 248.8 17.31C251.6 17.48 253.56 18.31 253.54 21.31C253.52 24.31 251.54 25.09 248.73 25.2C245.76 25.26 245.18 23.89 245.59 21.45Z" fill="#FEAC09"/>
</svg>
